<svg xmlns="http://www.w3.org/2000/svg" width="171.303" height="171.303" viewBox="0 0 171.303 171.303">
  <g id="Grupo_8159" data-name="Grupo 8159" transform="translate(-354.227 -5115.141)">
    <path id="Trazado_1414" data-name="Trazado 1414" d="M525.53,5200.793a85.652,85.652,0,1,1-85.652-85.652,85.651,85.651,0,0,1,85.652,85.652Zm0,0" fill="#5fc6ff"/>
    <path id="Trazado_1415" data-name="Trazado 1415" d="M407.968,5198.54a10.55,10.55,0,1,1-8.869-10.426,10.561,10.561,0,0,1,8.869,10.426Zm0,0" fill="#d89b75"/>
    <path id="Trazado_1416" data-name="Trazado 1416" d="M401.183,5198.54a3.775,3.775,0,1,1-3.775-3.775,3.775,3.775,0,0,1,3.775,3.775Zm0,0" fill="#cc8a65"/>
    <path id="Trazado_1417" data-name="Trazado 1417" d="M492.9,5198.54a10.55,10.55,0,1,1-8.869-10.426,10.561,10.561,0,0,1,8.869,10.426Zm0,0" fill="#d89b75"/>
    <path id="Trazado_1418" data-name="Trazado 1418" d="M486.119,5198.54a3.774,3.774,0,1,1-3.774-3.775,3.774,3.774,0,0,1,3.774,3.775Zm0,0" fill="#cc8a65"/>
    <path id="Trazado_1419" data-name="Trazado 1419" d="M482.665,5178.054V5275a84.714,84.714,0,0,1-13.474,6.29H410.564a85.132,85.132,0,0,1-13.477-6.29v-96.951a42.789,42.789,0,1,1,85.578,0Zm0,0" fill="#2f373b"/>
    <rect id="Rectángulo_2956" data-name="Rectángulo 2956" width="67.822" height="48.943" transform="translate(405.435 5207.014)" fill="#151a1c"/>
    <path id="Trazado_1420" data-name="Trazado 1420" d="M418.026,5198.439c5.772,20.333,8.1,55.409,9.036,82.856h-16.5a85.121,85.121,0,0,1-13.476-6.29v-96.951a42.766,42.766,0,0,1,42.787-42.79c-15.19,0-32.345,26.209-21.85,63.175Zm0,0" fill="#151a1c"/>
    <path id="Trazado_1421" data-name="Trazado 1421" d="M482.075,5265.559v9.785a85.892,85.892,0,0,1-68.135,7.1c-.144-.046-.288-.092-.43-.14a85.16,85.16,0,0,1-15.827-6.961v-9.785a31.808,31.808,0,0,1,15.827-27.517,31.4,31.4,0,0,1,5.2-2.43c.937-.338,1.895-.636,2.87-.885.245-.063.493-.122.741-.181a31.434,31.434,0,0,1,4.587-.71c.861-.069,1.727-.1,2.605-.1h20.727a31.919,31.919,0,0,1,7.126.8l.069.017c.245.056.5.116.738.179.975.251,1.937.549,2.874.887a31.853,31.853,0,0,1,21.027,29.947Zm0,0" fill="#17a388"/>
    <path id="Trazado_1422" data-name="Trazado 1422" d="M482.075,5265.559v9.785a85.9,85.9,0,0,1-68.137,7.1v-16.886a31.832,31.832,0,0,1,31.834-31.828h4.469a31.83,31.83,0,0,1,31.834,31.828Zm0,0" fill="#27ba9e"/>
    <path id="Trazado_1423" data-name="Trazado 1423" d="M413.51,5238.042v44.263a85.16,85.16,0,0,1-15.827-6.961v-9.785a31.808,31.808,0,0,1,15.827-27.517Zm0,0" fill="#cc8a65"/>
    <path id="Trazado_1424" data-name="Trazado 1424" d="M482.075,5265.559v9.785a85.055,85.055,0,0,1-15.825,6.961v-44.263a31.82,31.82,0,0,1,15.825,27.517Zm0,0" fill="#d89b75"/>
    <path id="Trazado_1425" data-name="Trazado 1425" d="M451.234,5221.47v13.937a11.357,11.357,0,0,1-22.713,0V5221.47Zm0,0" fill="#cc8a65"/>
    <path id="Trazado_1426" data-name="Trazado 1426" d="M451.234,5234.525v.882a11.355,11.355,0,0,1-8,10.847,11.349,11.349,0,0,1-7.9-9.368q1.139.069,2.288.07a39.273,39.273,0,0,0,13.615-2.431Zm0,0" fill="#d89b75"/>
    <path id="Trazado_1427" data-name="Trazado 1427" d="M479.169,5178.054v14.964a39.292,39.292,0,0,1-32.987,38.783c-.065.01-.13.021-.192.033a38.876,38.876,0,0,1-6.116.474,39.291,39.291,0,0,1-39.291-39.29v-14.964c0-4.569,4.58,5,4.58,5h65.955s8.051-13.963,8.051-5Zm0,0" fill="#cc8a65"/>
    <path id="Trazado_1428" data-name="Trazado 1428" d="M479.169,5178.054v14.964a39.292,39.292,0,0,1-32.987,38.783c-.065.01-.13.021-.192.033a39.3,39.3,0,0,1-33.171-38.816v-8.212c0-.081,58.3,0,58.3,0s8.051-15.712,8.051-6.752Zm0,0" fill="#d89b75"/>
    <path id="Trazado_1429" data-name="Trazado 1429" d="M398.536,5171.966l.443-1.169c-.148-.133-.3-.261-.443-.4Zm0,0" fill="#2f373b"/>
    <path id="Trazado_1430" data-name="Trazado 1430" d="M479.17,5168.49l-11.855,14.567,5.437,60,9.913-8.422Zm0,0" fill="#2f373b"/>
    <path id="Trazado_1431" data-name="Trazado 1431" d="M400.581,5168.49l11.857,14.567-5.437,60-9.914-8.422Zm0,0" fill="#151a1c"/>
    <path id="Trazado_1432" data-name="Trazado 1432" d="M460.977,5189.7a6.526,6.526,0,1,0-13.052,0" fill="#cc8a65"/>
    <path id="Trazado_1433" data-name="Trazado 1433" d="M431.83,5189.7a6.526,6.526,0,1,0-13.052,0" fill="#cc8a65"/>
    <path id="Trazado_1434" data-name="Trazado 1434" d="M429.761,5192.477a4.457,4.457,0,1,1-4.458-4.457,4.458,4.458,0,0,1,4.458,4.457Zm0,0" fill="#2f373b"/>
    <path id="Trazado_1435" data-name="Trazado 1435" d="M458.909,5192.477a4.458,4.458,0,1,1-4.458-4.457,4.458,4.458,0,0,1,4.458,4.457Zm0,0" fill="#2f373b"/>
    <path id="Trazado_1436" data-name="Trazado 1436" d="M444.335,5203.7H435.42a1.923,1.923,0,0,1,0-3.845h8.915a1.923,1.923,0,0,1,0,3.845Zm0,0" fill="#cc8a65"/>
    <path id="Trazado_1437" data-name="Trazado 1437" d="M439.878,5215.866a19.85,19.85,0,0,1-9.58-2.475,1.748,1.748,0,1,1,1.684-3.063,16.313,16.313,0,0,0,15.792,0,1.747,1.747,0,1,1,1.683,3.063,19.843,19.843,0,0,1-9.579,2.475Zm0,0" fill="#cc8a65"/>
    <path id="Trazado_1438" data-name="Trazado 1438" d="M428.853,5191.691a1.91,1.91,0,1,1-1.911-1.911,1.911,1.911,0,0,1,1.911,1.911Zm0,0" fill="#fff"/>
    <path id="Trazado_1439" data-name="Trazado 1439" d="M458.218,5191.691a1.909,1.909,0,1,1-1.909-1.911,1.909,1.909,0,0,1,1.909,1.911Zm0,0" fill="#fff"/>
    <path id="Trazado_1440" data-name="Trazado 1440" d="M466.621,5203.333a4.895,4.895,0,1,1-4.895-4.894,4.895,4.895,0,0,1,4.895,4.894Zm0,0" fill="#cc8a65"/>
    <path id="Trazado_1441" data-name="Trazado 1441" d="M422.921,5203.333a4.895,4.895,0,1,1-4.895-4.894,4.895,4.895,0,0,1,4.895,4.894Zm0,0" fill="#cc8a65"/>
    <path id="Trazado_1442" data-name="Trazado 1442" d="M467.315,5183.057l-1.04-17.13-3.322,17.13" fill="#bf7c5e"/>
    <path id="Trazado_1443" data-name="Trazado 1443" d="M489.2,5208.391a3,3,0,1,1-3-3,3,3,0,0,1,3,3Zm0,0" fill="#2f373b"/>
    <path id="Trazado_1444" data-name="Trazado 1444" d="M396.564,5208.391a3,3,0,1,1-3-3,3,3,0,0,1,3,3Zm0,0" fill="#2f373b"/>
    <path id="Trazado_1445" data-name="Trazado 1445" d="M461.048,5235.612c-.937-.338-1.9-.636-2.874-.887-.242-.063-.493-.123-.738-.179a17.189,17.189,0,0,1,.158,2.349v8.855a17.714,17.714,0,0,1-35.429,0V5236.9a17.511,17.511,0,0,1,.157-2.349c-.248.059-.5.118-.741.181-.975.249-1.933.547-2.87.885-.027.426-.042.853-.042,1.283v8.855a21.21,21.21,0,0,0,42.421,0V5236.9c0-.43-.015-.857-.042-1.283Zm0,0" fill="#ffe05c"/>
  </g>
</svg>
