<svg xmlns="http://www.w3.org/2000/svg" width="151.223" height="165.925" viewBox="0 0 151.223 165.925">
  <g id="Grupo_8816" data-name="Grupo 8816" transform="translate(-1828.123 -4913.671)">
    <path id="Trazado_5764" data-name="Trazado 5764" d="M1935.02,4918.96a.9.9,0,0,0-1.031.013l-7.692,5.542-2.808-10.185a.9.9,0,0,0-1.706-.079l-3.826,10.075-5.77-5.745a.9.9,0,0,0-1.529.7l.475,6.972-5.022-2.166a.9.9,0,0,0-1.213,1.1l1.8,5.693a.9.9,0,1,0,1.714-.541l-1.205-3.819,4.57,1.972a.9.9,0,0,0,1.253-.887l-.414-6.056,5.059,5.036a.9.9,0,0,0,1.473-.318l3.342-8.8,2.42,8.78a.9.9,0,0,0,1.393.49l6.733-4.853-2.236,8.785a.9.9,0,0,0,1.03,1.106l7.7-1.383-6.726,7.447a.9.9,0,0,0,.246,1.4l5.15,2.74-5.5,1.61a.9.9,0,1,0,.506,1.726h0l7.619-2.229a.9.9,0,0,0,.169-1.657l-6.083-3.237,7.718-8.542a.9.9,0,0,0-.826-1.487l-8.921,1.6,2.5-9.828a.9.9,0,0,0-.365-.964Z" fill="#7e9e0b"/>
    <path id="Trazado_5765" data-name="Trazado 5765" d="M1977.8,5002.76a23.57,23.57,0,0,0,1.546-8.289,21.567,21.567,0,0,0-2.515-10.126,5.974,5.974,0,0,1-5.14,2.91l-.061,0a6.763,6.763,0,0,1-.106,3,14.415,14.415,0,0,1,.632,4.217,16.409,16.409,0,0,1-1.092,5.772v0a21.052,21.052,0,0,1-.937,2.121,34.506,34.506,0,0,1-8.583,10.3,3.6,3.6,0,1,0,4.68,5.459,42.507,42.507,0,0,0,9.9-11.719,28.553,28.553,0,0,0,1.674-3.639l.005-.012Z" fill="#7e9e0b"/>
    <path id="Trazado_5766" data-name="Trazado 5766" d="M1970.772,5029.93l-13.642,3.159v40.163a5.993,5.993,0,1,0,11.986,0V5041.29a45.066,45.066,0,0,1,1.656-11.36Z" fill="#7e9e0b"/>
    <path id="Trazado_5767" data-name="Trazado 5767" d="M1941.491,5029.929a45.122,45.122,0,0,1,1.656,11.361v31.962a5.992,5.992,0,1,0,11.985,0v-40.164l-13.641-3.159Z" fill="#7e9e0b"/>
    <path id="Trazado_5768" data-name="Trazado 5768" d="M1967,5019.04a4.793,4.793,0,1,1-6.238-7.279,39.506,39.506,0,0,0,6.116-6.444,13.376,13.376,0,0,1-.819-3.689c0-.029,0-.062,0-.092a22.544,22.544,0,0,1,.722-6.327,6.978,6.978,0,0,1-8.333-3.706,7.257,7.257,0,0,0,12.957-4.261,5.982,5.982,0,0,1-3.789-1.587,37.9,37.9,0,0,0-5.251-4.582,20.633,20.633,0,0,1,6.071,3.707,4.795,4.795,0,0,0,6.518-7.034,32.953,32.953,0,0,0-12.174-6.741,4.757,4.757,0,0,0-1.069-.218,13.784,13.784,0,0,1-20.247-3.209c-1.79-.073-3.478-.1-5-.107-3.084,0-5.515.115-6.9.2h-21.5a44.374,44.374,0,0,1-11.955-6.841,35.4,35.4,0,0,1-8.559-9.855,32.713,32.713,0,0,1-4.272-15.184,4.794,4.794,0,1,0-9.58.41,42.324,42.324,0,0,0,5.686,19.806,47.487,47.487,0,0,0,16.778,16.51,54.881,54.881,0,0,0,5.722,2.976V4994.9a6,6,0,0,1,1.661,8.222q-.807,1.242-1.661,2.407v66.657a7.409,7.409,0,1,0,14.818,0v-52.9h2.779v52.9a7.409,7.409,0,1,0,14.818,0v-45.422l.547.128,21.286,4.929,21.285-4.929.709-.165-5.164-9.711-1.305-2.454a53.891,53.891,0,0,1-4.655,4.477Zm-25.107-41.85c-.047.013-.094.023-.14.037v0a7.533,7.533,0,0,0-3.155,2.165,27.46,27.46,0,0,0-3.985,6.077c-.1.207-.21.43-.315.643v-9.03q1.008-.018,2.16-.02c1.638,0,3.48.033,5.436.13Zm-7.6,33.11a83.467,83.467,0,0,1,4.317-16.11,55.14,55.14,0,0,1,2.584-5.795,7,7,0,0,1,.364-2.112c-.023.238-.036.479-.036.723a7.263,7.263,0,0,0,12.969,4.5,6.981,6.981,0,0,1-9.075,3.436,23.093,23.093,0,0,1,.783,6.6c0,.03,0,.063,0,.092a13.915,13.915,0,0,1-1.416,5.1h-.011l-1.2,2.248a35.128,35.128,0,0,0-1.84,3.46l-2.435,4.579-5,9.408V5010.3Z" fill="#7e9e0b"/>
    <path id="Trazado_5769" data-name="Trazado 5769" d="M1955.889,4972.336a12.582,12.582,0,1,0-15.108-9.4,12.582,12.582,0,0,0,15.108,9.4Z" fill="#7e9e0b"/>
    <path id="Trazado_5770" data-name="Trazado 5770" d="M1913.9,4937.648a13.484,13.484,0,1,0,13.484,13.484,13.484,13.484,0,0,0-13.484-13.484Z" fill="#7e9e0b"/>
    <path id="Trazado_5771" data-name="Trazado 5771" d="M1853.892,5069.784a51.05,51.05,0,0,1-15.03-2.243,5.99,5.99,0,0,0,2.661,11.358h37.356a5.993,5.993,0,0,0,4.672-9.746l-4.253-5.3a60.217,60.217,0,0,1-25.4,5.927Z" fill="#7e9e0b"/>
    <path id="Trazado_5772" data-name="Trazado 5772" d="M1851.812,4976.424a13.48,13.48,0,1,0,15.685,10.836,13.481,13.481,0,0,0-15.685-10.836Z" fill="#7e9e0b"/>
    <path id="Trazado_5773" data-name="Trazado 5773" d="M1901.136,4995.838a4.793,4.793,0,0,0-6.633,1.4,32.707,32.707,0,0,1-11.219,10.994,26.5,26.5,0,0,1-10.691,3.336,28.36,28.36,0,0,1-6.991-.216c-.854-.136-1.519-.286-1.945-.393-.214-.053-.369-.1-.457-.123l-.08-.025h0a4.794,4.794,0,0,0-3,9.107,35.155,35.155,0,0,0,13.359,1.2l.021,0a36.118,36.118,0,0,0,14.509-4.54,42.331,42.331,0,0,0,14.529-14.107,4.8,4.8,0,0,0-1.4-6.632Z" fill="#7e9e0b"/>
    <path id="Trazado_5774" data-name="Trazado 5774" d="M1871.014,5026.531c-.094-1.409-.156-2.765-.2-4.065a35.726,35.726,0,0,1-11-1.387l-.01,0-.054-.017a5.992,5.992,0,0,1,3.748-11.383c.12.033.258.076.45.122.58.146,1.2.27,1.847.372a26.961,26.961,0,0,0,4.266.32c-.474-2.348-1.3-3.967-2.8-4.929a8.923,8.923,0,0,0-4.7-1.177c-.137,0-.279-.007-.425-.007-4.486,0-8.458,1.9-12.037,5.073a45.954,45.954,0,0,0-9.375,12.628c-5.349,9.978-8.864,22.042-10.807,30.078-1,4.129-1.581,7.181-1.8,8.369l0,0c.3.208.743.51,1.332.873a40.7,40.7,0,0,0,5.19,2.677,48.58,48.58,0,0,0,19.245,3.908c8.061,0,17.683-1.9,28.468-7.652a66.475,66.475,0,0,1-4.826-8.259,15.079,15.079,0,0,0,1.518-.986,13.441,13.441,0,0,0,5.628-10.818c0-6.674-5.089-12.24-11.847-13.51a15.807,15.807,0,0,0-1.819-.229Z" fill="#7e9e0b"/>
  </g>
</svg>
