<svg xmlns="http://www.w3.org/2000/svg" width="171.303" height="171.303" viewBox="0 0 171.303 171.303">
  <g id="Grupo_8160" data-name="Grupo 8160" transform="translate(-916.541 -5115.141)">
    <path id="Trazado_1446" data-name="Trazado 1446" d="M1087.844,5200.793a85.725,85.725,0,0,1-109.183,82.379,84.75,84.75,0,0,1-14.2-5.465,85.661,85.661,0,1,1,123.387-76.914Zm0,0" fill="#5fc6ff"/>
    <path id="Trazado_1447" data-name="Trazado 1447" d="M1037.6,5203.933c5.122,5.122,10.737,19.677-1.5,28.418s2.8,29.716,2.8,29.716l-31.114,12.585-39.505-22.374,6.852-59.26" fill="#e89f18"/>
    <path id="Trazado_1448" data-name="Trazado 1448" d="M1044.389,5265.559v9.785a85.227,85.227,0,0,1-15.977,7.007c-.58.188-1.161.367-1.747.541q-3.269.976-6.644,1.688-1.477.316-2.972.574a86.342,86.342,0,0,1-29.714,0c-1-.171-1.987-.365-2.972-.574q-3.916-.83-7.691-2.006c-.14-.045-.28-.087-.42-.133-.094-.029-.185-.06-.28-.092a84.967,84.967,0,0,1-15.977-7.009v-9.785a31.805,31.805,0,0,1,15.977-27.6,31.647,31.647,0,0,1,13.25-4.118q1.29-.1,2.605-.106h20.728a31.908,31.908,0,0,1,7.124.8c.115.028.231.052.342.081a31.494,31.494,0,0,1,8.391,3.345,31.821,31.821,0,0,1,15.977,27.6Zm0,0" fill="#dd104f"/>
    <path id="Trazado_1449" data-name="Trazado 1449" d="M1044.389,5265.559v9.785a85.163,85.163,0,0,1-39.984,11.073c-.737.017-1.472.027-2.213.027s-1.478-.01-2.212-.031a85.4,85.4,0,0,1-23.728-3.968v-16.886a31.831,31.831,0,0,1,31.834-31.828h4.469a31.83,31.83,0,0,1,31.834,31.828Zm0,0" fill="#f73b6c"/>
    <path id="Trazado_1450" data-name="Trazado 1450" d="M1020.487,5234.725v11.195a9.969,9.969,0,0,1-9.97,9.969H993.863a9.969,9.969,0,0,1-9.969-9.969v-11.191a31.409,31.409,0,0,1,5.328-.892q1.29-.1,2.605-.106h20.728a31.908,31.908,0,0,1,7.124.8c.269.062.543.125.808.2Zm0,0" fill="#f6ba97"/>
    <path id="Trazado_1451" data-name="Trazado 1451" d="M991.827,5233.731h16.259a31.773,31.773,0,0,0-24.192,11.139v-10.141a31.409,31.409,0,0,1,5.328-.892q1.29-.1,2.605-.106Zm0,0" fill="#eaa27f"/>
    <path id="Trazado_1452" data-name="Trazado 1452" d="M1013.547,5221.47v13.937a11.357,11.357,0,0,1-22.713,0V5221.47Zm0,0" fill="#eaa27f"/>
    <path id="Trazado_1453" data-name="Trazado 1453" d="M1013.547,5234.525v.882a8.211,8.211,0,1,1-15.9,1.479q1.137.069,2.287.07a39.272,39.272,0,0,0,13.616-2.431Zm0,0" fill="#f6ba97"/>
    <path id="Trazado_1454" data-name="Trazado 1454" d="M970.525,5198.63a10.56,10.56,0,1,1-8.869-10.426,10.562,10.562,0,0,1,8.869,10.426Zm0,0" fill="#f6ba97"/>
    <path id="Trazado_1455" data-name="Trazado 1455" d="M970.525,5198.63a10.562,10.562,0,0,1-8.869,10.425,39.491,39.491,0,0,1,0-20.851,10.561,10.561,0,0,1,8.869,10.426Zm0,0" fill="#eaa27f"/>
    <path id="Trazado_1456" data-name="Trazado 1456" d="M963.739,5198.63a3.774,3.774,0,1,1-3.774-3.775,3.774,3.774,0,0,1,3.774,3.775Zm0,0" fill="#eaa27f"/>
    <path id="Trazado_1457" data-name="Trazado 1457" d="M1033.855,5198.63a10.561,10.561,0,1,0,8.87-10.426,10.563,10.563,0,0,0-8.87,10.426Zm0,0" fill="#f6ba97"/>
    <path id="Trazado_1458" data-name="Trazado 1458" d="M1033.855,5198.63a10.563,10.563,0,0,0,8.87,10.425,39.465,39.465,0,0,0,0-20.851,10.562,10.562,0,0,0-8.87,10.426Zm0,0" fill="#eaa27f"/>
    <path id="Trazado_1459" data-name="Trazado 1459" d="M1048.191,5198.63a3.775,3.775,0,1,1-3.774-3.775,3.774,3.774,0,0,1,3.774,3.775Zm0,0" fill="#eaa27f"/>
    <path id="Trazado_1460" data-name="Trazado 1460" d="M1041.484,5178.054v14.964A39.293,39.293,0,0,1,1008.5,5231.8l-.192.032a38.857,38.857,0,0,1-6.116.475,39.291,39.291,0,0,1-39.29-39.291v-14.964a39.269,39.269,0,0,1,39.29-39.294h0a39.27,39.27,0,0,1,39.292,39.294Zm0,0" fill="#eaa27f"/>
    <path id="Trazado_1461" data-name="Trazado 1461" d="M1041.484,5178.054v14.964A39.293,39.293,0,0,1,1008.5,5231.8l-.192.032a39.3,39.3,0,0,1-33.171-38.816v-14.964a39.3,39.3,0,0,1,33.177-38.818,39.3,39.3,0,0,1,33.174,38.818Zm0,0" fill="#f6ba97"/>
    <path id="Trazado_1462" data-name="Trazado 1462" d="M1028.935,5203.335a4.895,4.895,0,1,1-4.9-4.9,4.9,4.9,0,0,1,4.9,4.9Zm0,0" fill="#eaa27f"/>
    <path id="Trazado_1463" data-name="Trazado 1463" d="M985.235,5203.335a4.895,4.895,0,1,1-4.895-4.9,4.895,4.895,0,0,1,4.895,4.9Zm0,0" fill="#eaa27f"/>
    <path id="Trazado_1464" data-name="Trazado 1464" d="M1023.291,5189.7a6.526,6.526,0,0,0-13.052,0" fill="#eaa27f"/>
    <path id="Trazado_1465" data-name="Trazado 1465" d="M994.144,5189.7a6.526,6.526,0,0,0-13.052,0" fill="#eaa27f"/>
    <path id="Trazado_1466" data-name="Trazado 1466" d="M992.075,5192.478a4.457,4.457,0,1,1-4.457-4.458,4.457,4.457,0,0,1,4.457,4.458Zm0,0" fill="#2f373b"/>
    <path id="Trazado_1467" data-name="Trazado 1467" d="M1021.224,5192.478a4.458,4.458,0,1,1-4.458-4.458,4.458,4.458,0,0,1,4.458,4.458Zm0,0" fill="#2f373b"/>
    <path id="Trazado_1468" data-name="Trazado 1468" d="M1006.649,5203.7h-8.915a1.923,1.923,0,0,1,0-3.846h8.915a1.923,1.923,0,0,1,0,3.846Zm0,0" fill="#eaa27f"/>
    <path id="Trazado_1469" data-name="Trazado 1469" d="M1002.192,5215.866a19.85,19.85,0,0,1-9.58-2.475,1.748,1.748,0,1,1,1.685-3.063,16.311,16.311,0,0,0,15.791,0,1.748,1.748,0,0,1,1.684,3.063,19.85,19.85,0,0,1-9.58,2.475Zm0,0" fill="#eaa27f"/>
    <path id="Trazado_1470" data-name="Trazado 1470" d="M991.167,5191.691a1.91,1.91,0,1,1-1.911-1.911,1.91,1.91,0,0,1,1.911,1.911Zm0,0" fill="#fff"/>
    <path id="Trazado_1471" data-name="Trazado 1471" d="M1020.534,5191.691a1.91,1.91,0,1,1-1.911-1.911,1.911,1.911,0,0,1,1.911,1.911Zm0,0" fill="#fff"/>
    <path id="Trazado_1472" data-name="Trazado 1472" d="M1042.724,5188.2c-16.8,0-20.515-29.375-20.515-29.375,0,11.188-23.688,21.256-34,10.943,0,0,10.139,16.082-12.236,28.318,0,0,13.985,6.282,6.992,23.074s-1.4,35.658-1.4,35.658,6.009,15.627-2.9,26.35a85.512,85.512,0,0,1-34.688-19.556c2.14-13.922,10.006-32.367,5.429-64.988-6.642-47.357,22.726-62.416,46.847-65.564s29.366,13.636,29.366,13.636c20.277-4.9,24.472,41.5,17.109,41.5Zm0,0" fill="#ffe05c"/>
    <path id="Trazado_1473" data-name="Trazado 1473" d="M968.98,5198.628c6.272,44.7-10.824,62.784-4.523,79.079a85.8,85.8,0,0,1-20.484-14.091c2.14-13.922,10.006-32.367,5.429-64.988-6.642-47.357,22.726-62.416,46.847-65.564a35.879,35.879,0,0,1,14.714.791c-23,4.5-48.184,20.564-41.983,64.773Zm0,0" fill="#e89f18"/>
    <path id="Trazado_1474" data-name="Trazado 1474" d="M1051.513,5208.391a3,3,0,1,1-3-3,3,3,0,0,1,3,3Zm0,0" fill="#f73b6c"/>
  </g>
</svg>
