<svg xmlns="http://www.w3.org/2000/svg" width="538.888" height="364.307" viewBox="0 0 538.888 364.307">
  <g id="Grupo_8680" data-name="Grupo 8680" transform="translate(-749.727 -7501.951)">
    <path id="Trazado_2905" data-name="Trazado 2905" d="M1288.615,7866.257H749.727V7501.951h538.888v364.307Z" fill="#efb29a"/>
    <g id="Grupo_8516" data-name="Grupo 8516">
      <path id="Trazado_2906" data-name="Trazado 2906" d="M1053.7,7866.257l-1.331-54.611,81.287,1.7v52.916Z" fill="#a20e2e"/>
      <path id="Trazado_2907" data-name="Trazado 2907" d="M1033.022,7649.52c-5.818-27.243,4.431-19.055,4.3-37.809-.159-23.68,16.634-22.094,22.469-28.646,11.607-13.033,25.808-9.074,32.5-5.486,9.951-10.281,20.56-.9,28-.852,21.3.141,15.018,17.984,22.691,24.412,17.573,14.721,1.683,25.011,6.491,34.306,11.393,22.025-11.789,17.7-7.583,36.915,4.844,22.138-33.138,19.67-33.419,20.043-6.209,8.252-33.947,9.387-50.566,9.231-19.833-.185-7.84-9.166-14.7-14.614-21.8-17.292-7.188-23.46-10.187-37.5Z" fill="#2b110b"/>
      <path id="Trazado_2908" data-name="Trazado 2908" d="M1133.235,7627.242c-.69-1.661-4.871-4.484-6.118-9.405-.458-1.814.04-2.8.4-4.542,1.15-5.54-3.16-13.36-6.354-17.759-1.581-2.179-2.889-3.519-3.126-3.327s-.654.519-1.2.938c-1.971,1.5-5.577,4.161-7.99,5.632-12.82,7.8-37.457,18.5-40.345,19.566a.267.267,0,0,0-.165.315c.414,1.669,12.576,15.321,12.292,31.507-.1,6,.515,16.127-3.3,20.615-2.929,3.445-10.4,3.815-12.963,4.15-4.686,2.42,25.615,75.212,35.084,74.435,2.578-.21,27.887-73.222,24.769-73.737-5.666-.935-7.674-2.022-9.133-3.515-.962-.984-2.416-2.483-2.621-6.422-.2-3.73-.3-6.977-.259-7.705a4.642,4.642,0,0,1,4.4-4.363c.058,0,.114,0,.174,0h.084c.01,0,.194.013.2.013.633.05,7.827.6,10.181-.293a4.961,4.961,0,0,0,1.921-1.244,7.319,7.319,0,0,0,.772-1,5.207,5.207,0,0,0,.748-1.908,6.1,6.1,0,0,0-.068-2.287,11.2,11.2,0,0,0-.553-1.82c-.316-.8.221-1.424.98-2.384.057-.072.12-.145.188-.218,0,0-4.448-.7-5.337-1.822-.03-.042-.056-.082-.081-.122a.686.686,0,0,1-.081-.19.711.711,0,0,1,0-.352h0c.085-.079,1.931-1.329,3.433-2.347.473-.32.91-.617,1.248-.847a3.141,3.141,0,0,0,.808-.815,5.629,5.629,0,0,1-1.421-2.248,2.277,2.277,0,0,1-.145-.739c.026-.414.152-.485.485-.6a4.76,4.76,0,0,0,3.32-3.576,3.031,3.031,0,0,0-.221-1.586Z" fill="#73190a"/>
      <path id="Trazado_2909" data-name="Trazado 2909" d="M1122.754,7612.9c-.432,1.137,1.317,3.386-.016,5.282l-5.853,1.874s1.564-5.157-.007-6.777c-1.124-1.161,5.876-.379,5.876-.379Z" fill="#470f05"/>
      <path id="Trazado_2910" data-name="Trazado 2910" d="M1122.215,7619c-4.017.438-6.923,2.11-6.937,1.905-.019-.308,3.83-2.617,6.13-3.166a9.541,9.541,0,0,0,3.143-1.491c.275-.149-.631,2.616-2.336,2.752Z" fill="#2b110b"/>
      <path id="Trazado_2911" data-name="Trazado 2911" d="M1108.7,7615.171c.7-.017,9.094-2.057,15.657-.988,1.262.206,2.507-3.024.924-3.348-10.465-2.139-18.109,4.376-16.581,4.336Z" fill="#2b110b"/>
      <path id="Trazado_2912" data-name="Trazado 2912" d="M1123.41,7639.436c.637.2,5.466-.188,6.408-.119a2.2,2.2,0,0,1,1.633,2.869c-.906,2.384-6.708.061-8.041-2.75Z" fill="#a20e2e"/>
      <path id="Trazado_2913" data-name="Trazado 2913" d="M1102.257,7649.948c2.918,2.977,10.982,3.388,14.7,3.678l-.091,0h-.039c-.073,0-.148,0-.219,0a4.642,4.642,0,0,0-4.4,4.363c-.036.728.032,3.977.259,7.705-3.143-6.725-8.88-8.3-11.558-11.213-3.383-3.682-4.911-13.542-5.86-15.918-.824-2.065.128-3.039.532-1.975,0,0,3.825,10.444,6.679,13.361Z" fill="#470f05"/>
      <path id="Trazado_2914" data-name="Trazado 2914" d="M1123.41,7639.436c-.045-.107.056-.206.166-.214,1.972-.144,3.763-2.419,6.153-3.325.952-.361,1.614-.16,1.952.871a2.317,2.317,0,0,1-1.6,2.889c-1.121.448-6.007,1.4-6.671-.221Z" fill="#a20e2e"/>
      <path id="Trazado_2915" data-name="Trazado 2915" d="M1130.081,7632.507c-.328.123-.382.161-.4.574a5.483,5.483,0,0,0,.253,1.015c-.379-.819-4.081-.5-5.252-1.405-1.672-1.3-.031-3.447.156-3.222,0,0-.881,2.031.917,2.743a6.193,6.193,0,0,0,3.186-.041,31.26,31.26,0,0,1,3.126-.881,5.636,5.636,0,0,1-1.982,1.217Z" fill="#470f05"/>
      <path id="Trazado_2916" data-name="Trazado 2916" d="M1120.526,7619.894c.1.723.616,1.25,1.157,1.176a1.192,1.192,0,0,0,.805-1.442c-.1-.724-.618-1.25-1.159-1.177a1.191,1.191,0,0,0-.8,1.443Z" fill="#2b110b"/>
      <path id="Trazado_2917" data-name="Trazado 2917" d="M1047.39,7684a.456.456,0,0,1,.2-.887c.237.037,23.875,3.689,38.59-1.732a.456.456,0,0,1,.315.856c-14.939,5.5-38.809,1.815-39.049,1.777a.472.472,0,0,1-.059-.014Z" fill="#470f05"/>
      <path id="Trazado_2918" data-name="Trazado 2918" d="M1104.885,7682.1a.456.456,0,0,1,.283-.865c.234.059,23.438,5.864,38.587,1.816a.456.456,0,0,1,.235.881c-15.381,4.11-38.812-1.753-39.047-1.813a.609.609,0,0,1-.058-.019Z" fill="#470f05"/>
      <path id="Trazado_2919" data-name="Trazado 2919" d="M1082.577,7635.185c-.06,3.224,12.37,8.517,13.779,4.013,2.77-8.848-7.348-9.236-7.348-9.236l-6.431,5.223Z" fill="#470f05"/>
      <path id="Trazado_2920" data-name="Trazado 2920" d="M1088.783,7618.682c-3.643-.7-5.461,1.58-6.418,3.261a7.546,7.546,0,0,0,.1,6.476,31.149,31.149,0,0,0,4.766,6.836c1.424,1.459,4.707,4.415,7.527,3.9,1.777-.327,3.015-2.7,2.671-4.959l-1.871-11.535s-3.814-3.41-6.772-3.975Z" fill="#73190a"/>
      <path id="Trazado_2921" data-name="Trazado 2921" d="M1094.179,7633.009c.973.829-.517,2.329-2.287,1.482-1.363-.651-3.139-1.421-3.941-2.619-1.4-2.086-1.838-5.1-.2-6.063,2.3-1.357,4.277-.225,4.465,1.527.106.977.769,1.884.817,2.585.157,2.23.457,2.5,1.149,3.088Z" fill="#470f05"/>
      <path id="Trazado_2922" data-name="Trazado 2922" d="M1118.827,7674.254c.308-.594,15.077,2.244,25.133,5.056,6.183,1.73,12.231,3.121,17.409,5.563,11.811,5.569,54.79,43.992,55.138,61.658.327,16.6-29.911,33.331-29.911,33.331h-39.257s35.87-40.862,32.653-31.927c-1.557,4.321-32.76-19.047-32.76-19.047s3.586,11.212,2.421,21.835c-1.173,10.673-6.125,29.139-6.125,29.139h-95.11s-4.888-21.8-5.5-31.3c-.622-9.646,3.345-20.437,3.345-20.437,1.285-.131-33.607,27.738-31.74,20.037,1.512-6.236,30.785,31.7,30.785,31.7h-41.466s-23.257-16.528-26.312-31.788c-4.1-20.476,49.867-62.714,56.063-65.982,5.8-3.061,9.459-3.835,15.838-5.024,9.474-1.767,22.04-3.736,22.4-3.193,0,0-1.038,32.9,25.444,32.9,22.732,0,21.557-32.518,21.557-32.518Z" fill="#a20e2e"/>
      <path id="Trazado_2923" data-name="Trazado 2923" d="M1046.78,7729.579a.468.468,0,0,1-.505-.6c3.436-11.142,2.777-23.564,1.62-32.022-1.35-9.861-3.7-16.69-4.267-17.264a.467.467,0,1,1,.664-.656c.967.977,3.265,8.573,4.528,17.794,1.169,8.551,1.833,21.118-1.652,32.422a.467.467,0,0,1-.388.327Z" fill="#73190a"/>
      <path id="Trazado_2924" data-name="Trazado 2924" d="M1146.528,7730.253a.469.469,0,0,1-.419-.378c-.083-.429-.27-1.076-.505-1.9-1.661-5.782-6.073-21.138.2-47.075a.467.467,0,0,1,.907.219c-6.214,25.7-1.851,40.881-.208,46.6.241.845.433,1.51.524,1.979a.467.467,0,0,1-.37.546.477.477,0,0,1-.128.009Z" fill="#73190a"/>
      <path id="Trazado_2925" data-name="Trazado 2925" d="M1177.93,7748.074a.467.467,0,0,1-.265-.851c.095-.065,9.594-6.456,25.31-3.968a.467.467,0,0,1-.145.923c-15.326-2.428-24.544,3.752-24.635,3.813a.468.468,0,0,1-.265.083Z" fill="#73190a"/>
      <path id="Trazado_2926" data-name="Trazado 2926" d="M1017.43,7748.574a.458.458,0,0,1-.172-.033c-.123-.05-12.343-4.868-23.579-2.438a.467.467,0,1,1-.2-.912c11.521-2.492,24,2.432,24.123,2.482a.468.468,0,0,1-.175.9Z" fill="#73190a"/>
      <path id="Trazado_2927" data-name="Trazado 2927" d="M1108.43,7578.637s21.292,5.021,12.079,15.472c-5.38,6.1-16.856,7.186-15.927,22.243s-5.141,15.865-6.5,21.024c-3.061,11.583,12.322,22.592-1.136,30.349-15.259,8.794-15.259,13.062-22.234,14.1-14.635,2.179-21.995-7.151-38.31-1.067,0,0,5.791-76.319,35.179-88.121s29.313-21.765,36.853-14Z" fill="#2b110b"/>
      <path id="Trazado_2928" data-name="Trazado 2928" d="M900.405,7806.344l98.393,11.819-5.686,48.094H902.421l-2.015-59.913Z" fill="#fcd8c2"/>
      <path id="Trazado_2929" data-name="Trazado 2929" d="M921.6,7684.964s5.351-52.308,6.808-58.936c0,0,27.821-23.778,26.753-26.16,2.2-.652,8.527-1.109,9.1-4.232,6.381.276,11.451,5.829,11.014,13.787-.747,13.615,1.434,14.877,5.969,25.838,7.158,17.3-10.72,23.576-2.267,40.746,27.912,56.694-57.4,12.1-57.376,8.957Z" fill="#a20e2e"/>
      <path id="Trazado_2930" data-name="Trazado 2930" d="M970.444,7629.119c-.646-1.59-4.622-4.323-5.773-9.036-.425-1.737-.028-2.7.418-4.337.031-.118.063-.235.091-.353a15.448,15.448,0,0,0-.056-8.125,27.333,27.333,0,0,0-1.178-3.27c-1.629-3.763-3.808-6.587-4.494-6.04-1.031.825-3.942,1.57-6.906,3.346-12.316,7.357-12.4,16.719-28.229,16.646-3.04-.014-9.314,53.006-1.217,63.273,1.925,2.436,23.177-1.932,28.18-2.948.418-.087.725-.4.895-.4h0c.1,0,.152.183.152.183-.035-.027-.066.049-.1.012a1.578,1.578,0,0,1-.308-.438c-.949-2.017-1.447-7.957-1.675-12.758-.156-3.218-.184-5.9-.148-6.544a4.524,4.524,0,0,1,2.847-3.865,3.821,3.821,0,0,1,.365-.118c.07-.018.138-.034.209-.05l.212-.041a4.146,4.146,0,0,1,.439-.045c.107-.007.218-.006.333,0,.031,0,.066,0,.107,0,.018,0,.038,0,.06,0l.058,0c.033,0,7.421.673,9.777-.2a4.713,4.713,0,0,0,1.845-1.173,5.436,5.436,0,0,0,1.477-2.767,5.864,5.864,0,0,0-.047-2.186,10.783,10.783,0,0,0-.515-1.743,3.058,3.058,0,0,1,.482-2.765s-4.967-.576-4.586-2.133c.006-.025,1.826-1.235,3.3-2.217,1-.668,1.813-1.109,1.813-1.109a10.765,10.765,0,0,1-1.565-2.606,2.145,2.145,0,0,1-.132-.709c.03-.394.147-.46.467-.565,1.411-.449,3.328-1.675,3.591-3.407a2.953,2.953,0,0,0-.2-1.521Z" fill="#ff9669"/>
      <path id="Trazado_2931" data-name="Trazado 2931" d="M960.088,7616.157c-.422,1.083,1.345,2.5.057,4.3l-5.357,1.116s2.139-3.636.652-5.2c-1.066-1.119,4.648-.222,4.648-.222Z" fill="#e66135"/>
      <path id="Trazado_2932" data-name="Trazado 2932" d="M959.638,7621.237a34.315,34.315,0,0,0-6.954,1.517c-.428.038,1.508-1.946,6.194-2.728a7.519,7.519,0,0,0,3.015-1.4c.263-.14-.622,2.5-2.255,2.612Z" fill="#73190a"/>
      <path id="Trazado_2933" data-name="Trazado 2933" d="M947.728,7618.071s5.833-1.673,8.5-1.692a26.055,26.055,0,0,0,5.624-.283,2.642,2.642,0,0,0,1.683-2.543.7.7,0,0,0-.606-.682c-12.55-.638-16.151,5.787-15.2,5.2Z" fill="#73190a"/>
      <path id="Trazado_2934" data-name="Trazado 2934" d="M959.1,7641.356c.661.189,6.3-.644,7.279-.574a1.907,1.907,0,0,1,1.414,2.683c-.975,2.289-6.814-.136-8.693-2.109Z" fill="#e66135"/>
      <path id="Trazado_2935" data-name="Trazado 2935" d="M954.732,7654.216l-.118-.007c-.041,0-.076,0-.107,0-.115,0-.226,0-.333,0a3.947,3.947,0,0,0-.439.045c-.071.012-.144.025-.212.041s-.139.032-.209.053a3.461,3.461,0,0,0-.365.121,4.289,4.289,0,0,0-2.574,3.774c-.1,1.568-.125,6.654-.125,6.654-4.3-6.509-11.758-12.288-12.641-14.141-3.066-6.434-3.151-15.853-2.848-13.266,0,0,2.615,8.573,5.322,11.384,2.775,2.88,11.056,5.011,14.591,5.335l.058,0Z" fill="#e66135"/>
      <path id="Trazado_2936" data-name="Trazado 2936" d="M958.86,7641.048c-.043-.1.071-.248.175-.2,2.8,1.173,5.474-2.23,7.966-3.089a1.118,1.118,0,0,1,1.538.536c.595,1.388-.637,2.374-1.7,2.758-1.17.424-7.313,1.549-7.982,0Z" fill="#e66135"/>
      <path id="Trazado_2937" data-name="Trazado 2937" d="M967.051,7634.206a.637.637,0,0,0-.437.649,2.736,2.736,0,0,0,.2.737c-.356-.786-2.382-.419-3.482-1.313-1.235-1-.5-3.01-.319-2.794a2.355,2.355,0,0,0,.738,2.1,2.2,2.2,0,0,0,2.206.295,27.28,27.28,0,0,1,2.877-.717c-.049.025-.755.5-1.786,1.047Z" fill="#e66135"/>
      <path id="Trazado_2938" data-name="Trazado 2938" d="M958.017,7622.075c.088.692.579,1.2,1.1,1.134a1.141,1.141,0,0,0,.78-1.372c-.088-.693-.58-1.2-1.1-1.134a1.138,1.138,0,0,0-.778,1.372Z" fill="#73190a"/>
      <path id="Trazado_2939" data-name="Trazado 2939" d="M999.655,7688.008c-6.585-3.795-11.175-6.493-19.576-8.7-10.614-2.791-25.347-1.923-26.892-7.363-.445-1.566-1.3-3.178-2.7-2.182-11.988,8.523-28.385,6.007-32.164,2.128,0,0-24.086,4.835-33.559,6.6-6.378,1.189-10.034,1.386-15.837,4.447-6.2,3.268-58.575,45.2-54.475,65.671,3.056,15.26,26.312,31.516,26.312,31.516h41.466s-19.391-24.861-27.423-30.853c7.9-3.59,26.811-18.525,28.317-20.309-.5,1.416-3.86,11.127-3.283,20.06.613,9.5,5.5,31.1,5.5,31.1h95.11s4.951-18.193,6.123-28.866c1.167-10.624-2.419-21.7-2.419-21.7s22.394,16.568,30.185,19.065c-7.927,6.471-30.078,31.5-30.078,31.5h39.257s30.238-16.463,29.911-33.059c-.35-17.667-42.463-52.54-53.777-59.059Z" fill="#fcd8c2"/>
      <path id="Trazado_2940" data-name="Trazado 2940" d="M883.665,7731.047a.419.419,0,0,1-.2-.02.465.465,0,0,1-.3-.587c3.624-11.082,3.175-23.514,2.161-31.991-1.183-9.883-3.417-16.75-3.975-17.334a.467.467,0,1,1,.675-.645c.95.994,3.121,8.628,4.226,17.868,1.026,8.571,1.477,21.147-2.2,32.391a.464.464,0,0,1-.394.318Z" fill="#541206"/>
      <path id="Trazado_2941" data-name="Trazado 2941" d="M983.054,7731.38a.463.463,0,0,1-.419-.376c-.084-.429-.271-1.076-.508-1.9-1.669-5.779-6.1-21.13.131-47.075a.467.467,0,0,1,.909.218c-6.178,25.706-1.794,40.883-.143,46.6.244.844.436,1.51.527,1.978a.468.468,0,0,1-.369.549.518.518,0,0,1-.128.006Z" fill="#541206"/>
      <path id="Trazado_2942" data-name="Trazado 2942" d="M1014.855,7749.039a.46.46,0,0,1-.384-.2.467.467,0,0,1,.119-.649c.094-.065,9.594-6.454,25.31-3.966a.467.467,0,0,1-.145.923c-15.326-2.429-24.544,3.75-24.635,3.813a.47.47,0,0,1-.265.081Z" fill="#541206"/>
      <path id="Trazado_2943" data-name="Trazado 2943" d="M854.355,7749.539a.459.459,0,0,1-.173-.033c-.122-.048-12.342-4.868-23.578-2.437a.467.467,0,0,1-.2-.913c11.521-2.492,24,2.434,24.122,2.484a.466.466,0,0,1-.174.9Z" fill="#541206"/>
      <path id="Trazado_2944" data-name="Trazado 2944" d="M963.163,7599.154c-5.727,4.071-19.008,10.129-20.388,18.186-1.728,10.1-5.649,7.825-7.664,6.018-.012-.03.753,8.1.164,9.5-3.476,8.261,9.246,18.631-.825,29.8-7.019,7.788,1.793,18.8-10.354,27.462-5.467,3.9-16.314,4.223-28.876-4.336-12.1-8.244-20.931-4.968-20.931-4.968-5.495-20.62,11.382-16.307,14.094-35.143,2.4-16.637-.849-29.4,4.372-41.234,1.463-3.317,3.981-8.581,7.73-12.274,14.377-14.159,33.682-8.44,43.3-6.091a30.874,30.874,0,0,0,10.3,1.155c11.884-1.165,12.8,7.8,9.072,11.922Z" fill="#a20e2e"/>
      <path id="Trazado_2945" data-name="Trazado 2945" d="M929.329,7619.57c-3.239-.849-5.017,1.09-5.983,2.547a6.814,6.814,0,0,0-.308,5.841,28.151,28.151,0,0,0,3.877,6.452c1.2,1.4,3.972,4.266,6.545,3.971,1.621-.186,4.552-2.835,4.38-4.89l-2.729-10.133s-3.15-3.1-5.782-3.788Z" fill="#ff9669"/>
      <path id="Trazado_2946" data-name="Trazado 2946" d="M933.862,7632.229c.909.631-.2,2.129-1.141,1.221s-2.824-.953-3.617-1.915c-1.381-1.676-2.022-4.232-.7-5.2,1.864-1.368,3.664-.562,3.977.929.176.832-.78,1.87-.677,2.469.326,1.907,1.51,2.051,2.157,2.5Z" fill="#e66135"/>
      <path id="Trazado_2947" data-name="Trazado 2947" d="M924.615,7626.51a3.991,3.991,0,0,1,.972-3.334,3.757,3.757,0,0,1,3.149-1.269c1.518.11,3.075,1.753,2.533,1.989-.261.147-2.808-1.565-4.864-.259-1.207.766-1.678,3.193-1.79,2.873Z" fill="#e66135"/>
      <path id="Trazado_2948" data-name="Trazado 2948" d="M1157.2,7746.557s-3.6-28.652-2.863-35.675c0,0,30.162-25.781,28.779-28.121,2.194-.93,4.529-4.2,4.755-7.5,6.633-.461,12.639,4.686,13,12.975.382,8.688-3.794,11.016,4.162,25.642,8.541,15.7-7.255,26.736,2.2,37.788,5.675,6.634-48.534,8.928-50.032-5.111Z" fill="#fcd8c2"/>
      <path id="Trazado_2949" data-name="Trazado 2949" d="M1199.255,7711.791c-.691-1.66-4.871-4.483-6.118-9.4-.459-1.815.04-2.8.4-4.542,1.151-5.541-3.159-13.36-6.353-17.759-1.581-2.179-2.889-3.519-3.126-3.327s-.654.519-1.2.938c-1.97,1.505-5.577,4.16-7.989,5.632-12.821,7.8-37.457,18.5-40.345,19.565a.269.269,0,0,0-.166.316c.414,1.668,12.576,15.321,12.293,31.507-.1,6,.808,17.943-3.009,22.43-2.929,3.446-10.405,3.815-12.963,4.152-4.686,2.419,25.322,73.394,34.792,72.617,2.578-.21,28.213-71.179,25.095-71.694-5.665-.935-7.675-2.021-9.132-3.515-.962-.983-2.744-4.525-2.949-8.464-.2-3.731-.3-6.976-.258-7.706a4.642,4.642,0,0,1,4.4-4.363c.057,0,.114,0,.173,0a.347.347,0,0,1,.045,0,.3.3,0,0,1,.04,0c.01,0,.194.011.2.011.632.05,7.826.6,10.181-.293a4.957,4.957,0,0,0,1.919-1.243,7.192,7.192,0,0,0,.773-1,5.168,5.168,0,0,0,.747-1.906,6.081,6.081,0,0,0-.066-2.288,11.33,11.33,0,0,0-.553-1.82,2.144,2.144,0,0,1,.513-2.406c.055-.071.118-.146.185-.217,0,0-3.978-.68-4.867-1.8-.03-.042-.057-.081-.082-.123a.735.735,0,0,1-.081-.19.694.694,0,0,1,0-.351l0,0c.084-.078,1.93-1.328,3.432-2.346.474-.32.911-.618,1.248-.848a2.456,2.456,0,0,1,.645-.331,8.289,8.289,0,0,1-1.664-2.711,2.274,2.274,0,0,1-.145-.738c.027-.414.151-.485.484-.6,1.472-.484,3.466-1.783,3.727-3.6a3.045,3.045,0,0,0-.22-1.587Z" fill="#ff9669"/>
      <path id="Trazado_2950" data-name="Trazado 2950" d="M1188.34,7697.453c-.432,1.136,1.316,3.386-.017,5.282l-5.851,1.874s1.563-5.157-.007-6.777c-1.126-1.161,5.875-.379,5.875-.379Z" fill="#e66135"/>
      <path id="Trazado_2951" data-name="Trazado 2951" d="M1187.8,7703.553c-4.017.437-6.923,2.109-6.936,1.9-.02-.308,3.832-2.616,6.131-3.166a9.534,9.534,0,0,0,3.142-1.49c.274-.149-.63,2.616-2.337,2.752Z" fill="#73190a"/>
      <path id="Trazado_2952" data-name="Trazado 2952" d="M1174.291,7699.721c.38-.139,3.382-1,6.992-1.922,1.1-.281,5.81.411,8.665.934,1.258.231,2.877-2.9,1.293-3.225-3.341-.683-8.623-1.13-10.287-.717-3.853.955-7.841,5.362-6.663,4.93Z" fill="#73190a"/>
      <path id="Trazado_2953" data-name="Trazado 2953" d="M1189,7723.985c.639.2,5.465-.188,6.409-.119a2.249,2.249,0,0,1,1.631,2.87c-1.076,2.311-6.707.061-8.04-2.751Z" fill="#e66135"/>
      <path id="Trazado_2954" data-name="Trazado 2954" d="M1168.277,7734.5c2.917,2.977,10.981,3.388,14.7,3.677h-.091a.3.3,0,0,0-.04,0c-.073,0-.147,0-.218,0a4.642,4.642,0,0,0-4.4,4.363c-.037.73.031,3.977.258,7.706-3.143-6.724-8.88-8.3-11.559-11.213-3.381-3.683-4.909-13.543-5.858-15.917-.825-2.067.127-3.04.531-1.977,0,0,3.825,10.445,6.68,13.362Z" fill="#e66135"/>
      <path id="Trazado_2955" data-name="Trazado 2955" d="M1189,7723.985c-.043-.107.058-.205.165-.213,1.974-.144,3.653-1.692,6-2.716.977-.427,1.818-.442,2.109.262.6,1.432-.583,2.484-1.6,2.889-1.122.447-6.007,1.4-6.672-.222Z" fill="#e66135"/>
      <path id="Trazado_2956" data-name="Trazado 2956" d="M1195.668,7717.058c-.331.119-.382.145-.4.558a4.277,4.277,0,0,0,.214.889c-.379-.82-3.624-.391-4.782-1.317-1.3-1.039-.462-3.394-.275-3.169a2.339,2.339,0,0,0,.918,2.742,5.515,5.515,0,0,0,3.184-.04,27.322,27.322,0,0,1,2.977-.614,8.667,8.667,0,0,1-1.832.951Z" fill="#e66135"/>
      <path id="Trazado_2957" data-name="Trazado 2957" d="M1186.111,7704.444c.1.723.618,1.25,1.159,1.175a1.189,1.189,0,0,0,.8-1.442c-.1-.723-.616-1.25-1.159-1.175a1.192,1.192,0,0,0-.8,1.442Z" fill="#73190a"/>
      <path id="Trazado_2958" data-name="Trazado 2958" d="M1184.414,7760.649c.308-.594,15.445,1.708,25.556,4.315,8.441,2.179,10.093,3.261,17.134,6.8,8.08,4.062,54.641,43.5,54.99,61.163.326,16.6-29.91,33.331-29.91,33.331h-39.259s35.871-40.861,32.654-31.928c-1.557,4.323-32.76-19.045-32.76-19.045s3.587,11.211,2.419,21.835c-1.172,10.673-6.125,29.138-6.125,29.138h-95.108s-4.888-21.8-5.5-31.306c-.621-9.646,3.346-20.435,3.346-20.435,1.285-.133-33.607,27.737-31.741,20.035,1.512-6.235,30.784,31.706,30.784,31.706h-41.466s-23.255-16.528-26.312-31.788c-4.1-20.475,47.293-60.363,53.123-64.249a48.462,48.462,0,0,1,18.541-7.266c9.473-1.766,22.277-3.227,22.633-2.684,16.3,5.117,32.046,5.88,47,.379Z" fill="#73190a"/>
      <path id="Trazado_2959" data-name="Trazado 2959" d="M1112.863,7815.117a.469.469,0,0,1-.442-.648c4.513-10.751,5.078-23.176,4.757-31.708-.375-9.946-2.042-16.972-2.55-17.6a.466.466,0,1,1,.725-.587c.866,1.068,2.407,8.852,2.757,18.152.326,8.625-.249,21.2-4.828,32.1a.468.468,0,0,1-.419.287Z" fill="#2b110b"/>
      <path id="Trazado_2960" data-name="Trazado 2960" d="M1211.581,7815.289a.469.469,0,0,1-.434-.361c-.1-.424-.31-1.065-.578-1.876-1.884-5.713-6.89-20.888-1.628-47.048a.467.467,0,0,1,.916.184c-5.213,25.918-.265,40.923,1.6,46.571.274.834.492,1.492.6,1.957a.466.466,0,0,1-.348.561.487.487,0,0,1-.127.012Z" fill="#2b110b"/>
      <path id="Trazado_2961" data-name="Trazado 2961" d="M1243.517,7834.469a.467.467,0,0,1-.265-.851c.093-.066,9.592-6.456,25.309-3.967a.467.467,0,1,1-.146.922c-15.324-2.429-24.543,3.751-24.634,3.814a.464.464,0,0,1-.264.082Z" fill="#2b110b"/>
      <path id="Trazado_2962" data-name="Trazado 2962" d="M1083.017,7834.969a.469.469,0,0,1-.174-.034c-.121-.048-12.342-4.867-23.576-2.436a.468.468,0,1,1-.2-.914c11.521-2.49,24,2.434,24.123,2.484a.467.467,0,0,1-.174.9Z" fill="#2b110b"/>
      <path id="Trazado_2963" data-name="Trazado 2963" d="M1123.087,7675.838c15.548-14.12,32.47-9.417,42.7-8.111a31.98,31.98,0,0,0,10.786-.013c12.155-2.591,13.872,6.748,10.494,11.439-5.448,4.878-16.227,11.585-16.715,20.081-.611,10.644-5.886,9.376-8.2,6.935-.023-.023-1.936,10.4-.588,12.329,11.41,16.386-9.7,27.667,4.305,36.252,8.157,5-73,30.465-56.893-33.157,4.589-18.119-.975-32.061,14.106-45.755Z" fill="#fcd8c2"/>
      <path id="Trazado_2964" data-name="Trazado 2964" d="M1157.445,7702.384c-3.292-1.707-5.661.51-6.922,1.977a7.554,7.554,0,0,0-1.139,6.376,31.122,31.122,0,0,0,3.376,7.619c1.121,1.7,3.476,4.152,6.528,3.844a4.755,4.755,0,0,0,4.048-4.228l-1.179-11.8a15.22,15.22,0,0,0-4.712-3.785Z" fill="#ff9669"/>
      <path id="Trazado_2965" data-name="Trazado 2965" d="M1159.74,7716.029c.647.812-.772,1.777-2.052.828a8.043,8.043,0,0,1-2.734-2.695c-.789-1.88-.675-4.347.775-4.863,2.044-.726,3.443.483,3.322,1.907-.066.795.321,1.621.251,2.187-.22,1.8-.023,2.06.438,2.636Z" fill="#e66135"/>
      <path id="Trazado_2966" data-name="Trazado 2966" d="M1151.333,7708.76a4,4,0,0,1,1.381-3.2,3.772,3.772,0,0,1,3.29-.872c1.5.3,2.843,2.126,2.275,2.294-.278.113-2.6-1.907-4.808-.862-1.3.614-2.067,2.97-2.138,2.637Z" fill="#e66135"/>
      <path id="Trazado_2967" data-name="Trazado 2967" d="M1079.868,7770.642c-5.178-2.442-9.7-3.851-17.409-5.562-10.195-2.261-22.222-3.018-23.873-6.331h0c-.778-1.429-1.32-2.133-2.721-1.138-11.988,8.522-28.615,3.931-32.393.053,0,0-20.857,4.835-30.331,6.6-6.377,1.189-10.033,1.386-15.836,4.445-6.2,3.269-61.806,45.376-57.7,65.851,3.055,15.26,26.312,31.695,26.312,31.695h41.466s-19.391-25.04-27.423-31.033c7.9-3.589,23.657-15.826,25.164-17.609-.5,1.416-.707,8.473-.131,17.406.613,9.5,5.5,31.236,5.5,31.236h95.11s4.951-18.372,6.125-29.046a158.806,158.806,0,0,0,.932-19.323s19.041,14.237,26.832,16.734c-7.925,6.471-30.077,31.635-30.077,31.635h39.257s30.237-16.642,29.91-33.238c-.35-17.667-46.9-56.807-58.711-62.377Z" fill="#2b110b"/>
      <path id="Trazado_2968" data-name="Trazado 2968" d="M966.008,7818.282a.466.466,0,0,1-.426-.657c4.794-10.628,5.684-23.037,5.587-31.572-.114-9.953-1.6-17.022-2.088-17.661a.467.467,0,1,1,.74-.57c.838,1.092,2.176,8.913,2.282,18.219.1,8.632-.807,21.182-5.67,31.967a.465.465,0,0,1-.425.274Z" fill="#73190a"/>
      <path id="Trazado_2969" data-name="Trazado 2969" d="M1071.1,7818.272a.465.465,0,0,1-.448-.341c-.118-.419-.358-1.049-.661-1.849-2.134-5.623-7.8-20.563-3.7-46.93a.467.467,0,0,1,.923.144c-4.069,26.123,1.536,40.9,3.646,46.455.311.821.558,1.468.687,1.929a.468.468,0,0,1-.325.576.441.441,0,0,1-.126.016Z" fill="#73190a"/>
      <path id="Trazado_2970" data-name="Trazado 2970" d="M1099.825,7834.817a.467.467,0,0,1-.265-.851c.094-.065,9.594-6.456,25.31-3.966a.466.466,0,1,1-.145.921c-15.326-2.427-24.544,3.752-24.635,3.813a.457.457,0,0,1-.265.083Z" fill="#73190a"/>
      <path id="Trazado_2971" data-name="Trazado 2971" d="M939.325,7835.317a.467.467,0,0,1-.174-.033c-.121-.05-12.341-4.868-23.577-2.437a.467.467,0,0,1-.2-.913c11.521-2.492,24,2.433,24.122,2.482a.467.467,0,0,1-.174.9Z" fill="#73190a"/>
      <path id="Trazado_2972" data-name="Trazado 2972" d="M1055.64,7713.519c-.786-1.636-7.159-7.007-6.8-11.658.026-.33.07-.669.114-1.02.167-1.309.408-2.759.467-4.229a10.423,10.423,0,0,0-.48-3.435c-.007-.019-.012-.036-.017-.052a25.622,25.622,0,0,0-5.334-8.725,57.482,57.482,0,0,0-8.1-7.565c-.222-.168-.384-.285-.478-.349-1.156-.777-42.132,30.367-44.983,31.6a.269.269,0,0,0-.149.324c.939,3.063,11.133,40.749,2.311,61.739-1.439,3.423,42.541.615,42.541.615-2.136-1.522,2.416-26.451,2.512-26.966.3-1.6,2.3-2.32,4.722-2.7,3.409-.533,7.64-.374,9.057-1a4.975,4.975,0,0,0,1.866-1.353,5.751,5.751,0,0,0,1.371-3.007c.02-.172.032-.346.036-.522a8.352,8.352,0,0,0-.884-3.576,3.051,3.051,0,0,1,.012-2.512s-4.949-.71-4.648-2.371c.008-.046,5.179-3.486,5.179-3.486a19.254,19.254,0,0,1-1.833-2.987,2.2,2.2,0,0,1-.183-.738c0-.417.124-.495.453-.626,1.454-.565,3.39-1.98,3.554-3.82a3.048,3.048,0,0,0-.307-1.583Z" fill="#e66135"/>
      <path id="Trazado_2973" data-name="Trazado 2973" d="M1044.956,7699.013c-.517,1.13,1.117,3.538-.365,5.383l-6.088,1.523s1.932-5.151.439-6.906c-1.07-1.258,6.014,0,6.014,0Z" fill="#b33f15"/>
      <path id="Trazado_2974" data-name="Trazado 2974" d="M1043.982,7705.27a22.094,22.094,0,0,1-6.511.982c-1.74-.053,2.027-.719,5.756-2.164a19.2,19.2,0,0,0,2.292-1.164c.193-.093.228,1.889-1.537,2.346Z" fill="#2b110b"/>
      <path id="Trazado_2975" data-name="Trazado 2975" d="M1031.824,7704.136a21.033,21.033,0,0,1,8.815-3.483,26.073,26.073,0,0,0,6.383-.952c1.545-.526,1.341-3.17,1-3.17a33.6,33.6,0,0,0-9.691,1.38c-5.33,1.509-7.171,6.682-6.51,6.225Z" fill="#2b110b"/>
      <path id="Trazado_2976" data-name="Trazado 2976" d="M1045.24,7726.2c.706.156,6.216-.116,7.249-.107.921.008,1.976,1.523.986,3.033-.967,1.5-6.579-.252-8.235-2.926Z" fill="#73190a"/>
      <path id="Trazado_2977" data-name="Trazado 2977" d="M1045.24,7726.2a.17.17,0,0,1,.189-.212c3.3.451,4.688-2.134,7.335-2.974.942-.3,1.293.277,1.363.648a2.6,2.6,0,0,1-1.611,2.82c-1.244.419-6.61,1.367-7.276-.282Z" fill="#73190a"/>
      <path id="Trazado_2978" data-name="Trazado 2978" d="M1052.393,7718.993c-.321.149-.44.209-.453.626a2.912,2.912,0,0,0,.235.793c-.31-.9-2.471-.232-3.686-1.1-1.366-.977-.72-3.135-.52-2.918a2.484,2.484,0,0,0,.914,2.156,2.324,2.324,0,0,0,2.34.167,26.778,26.778,0,0,1,2.9-.778,9.049,9.049,0,0,1-1.734,1.053Z" fill="#b33f15"/>
      <path id="Trazado_2979" data-name="Trazado 2979" d="M1042.681,7705.931c.008.71.41,1.281.9,1.275s.874-.588.864-1.3-.41-1.28-.9-1.274-.874.586-.864,1.3Z" fill="#2b110b"/>
      <path id="Trazado_2980" data-name="Trazado 2980" d="M1035.415,7676.713c2.77,1.96,8.322,7.153,10.587,10.743-2.3,2.452-10.1,8.518-15.654,11.725,3.933-6.634,5.1-17.5,5.067-22.468Z" fill="#fcd8c2"/>
      <path id="Trazado_2981" data-name="Trazado 2981" d="M1046.484,7750.8c1.709-4.077-2.808-6.128-2.769-7.688.086-3.528-5.151-1.192-8.649-4.476-4.908-4.606-8.635-17.912-8.635-17.912,6.058-15.827,13.3-46.005,8.928-46.674-11.533-1.762-22.746-8.06-37-6.2-15.874,2.076-30.607,10.015-34.76,26.982-3.987,16.293,3.774,19.078.808,31.1-2.614,10.6,2.446,13.906,4.6,16.982,1.835,2.619-5.754,8.42,1.669,13.493.906,1-7.653,6.229,5.024,16.424,0,0,6.674,2.069,22.5,3.876,5.688.649,41.9,11.85,51.664-5.029,8.966-15.5-3.972-19.67-3.376-20.884Z" fill="#2b110b"/>
      <path id="Trazado_2982" data-name="Trazado 2982" d="M1016.216,7704.54a.47.47,0,0,1-.326-.133c-5.656-5.536-9.325-17.837-9.479-18.358a.466.466,0,1,1,.894-.263c.036.125,3.755,12.59,9.237,17.954a.466.466,0,0,1,.007.659.457.457,0,0,1-.333.141Z" fill="#73190a"/>
      <path id="Trazado_2983" data-name="Trazado 2983" d="M1022.912,7741.179a.464.464,0,0,1-.2-.045c-8.531-4-13.4-11.375-15.988-16.851a44.16,44.16,0,0,1-3.6-11.027.466.466,0,0,1,.921-.141,44.127,44.127,0,0,0,3.535,10.8c2.52,5.328,7.259,12.5,15.53,16.381a.466.466,0,0,1-.2.887Z" fill="#73190a"/>
      <path id="Trazado_2984" data-name="Trazado 2984" d="M1025.381,7749.794a.254.254,0,0,1-.038,0c-12.664-1.048-20.79-6.79-25.378-11.423a33.629,33.629,0,0,1-7-9.931.466.466,0,1,1,.862-.353,33.426,33.426,0,0,0,6.834,9.658c4.474,4.509,12.4,10.1,24.762,11.122a.465.465,0,0,1-.038.929Z" fill="#73190a"/>
      <path id="Trazado_2985" data-name="Trazado 2985" d="M1014.8,7763.093a.466.466,0,0,1,.116-.925c.149.016,14.992.636,28.031-5.65a.465.465,0,1,1,.4.838c-13.246,6.386-28.418,5.754-28.551,5.737Z" fill="#73190a"/>
      <path id="Trazado_2986" data-name="Trazado 2986" d="M912.6,7713.637c-.69-1.661-4.87-4.484-6.116-9.405-.461-1.815.038-2.8.4-4.542,1.151-5.54-3.157-13.36-6.351-17.759-1.582-2.179-2.891-3.519-3.126-3.327s-.656.519-1.206.938c-1.97,1.5-5.576,4.161-7.989,5.632-12.821,7.8-37.456,18.5-40.345,19.566a.266.266,0,0,0-.165.315c.414,1.669,12.575,15.321,12.293,31.508-.1,6,.514,16.125-3.3,20.614-2.929,3.444-10.4,3.815-12.963,4.151-4.687,2.419,25.614,75.211,35.084,74.435,2.578-.211,27.885-73.223,24.768-73.738-5.665-.935-7.675-2.023-9.132-3.515-.962-.985-2.416-2.483-2.623-6.421-.2-3.73-.294-6.977-.258-7.706a4.643,4.643,0,0,1,4.4-4.363c.058,0,.116,0,.173,0h.085c.01,0,.194.014.2.014.632.049,7.828.6,10.181-.293a4.983,4.983,0,0,0,1.921-1.244,7.22,7.22,0,0,0,.771-1,5.223,5.223,0,0,0,.749-1.907,6.129,6.129,0,0,0-.066-2.289,11.1,11.1,0,0,0-.555-1.819c-.315-.8-.139-1.471.621-2.43.056-.072.119-.145.187-.218,0,0-4.088-.654-4.976-1.777-.031-.041-.058-.081-.083-.121a.75.75,0,0,1-.081-.19.718.718,0,0,1,0-.351l0,0c.085-.079,1.929-1.328,3.431-2.348.474-.319.912-.616,1.25-.846a1,1,0,0,0,.4-.788,5.658,5.658,0,0,1-1.425-2.253,2.305,2.305,0,0,1-.144-.741c.026-.413.152-.483.485-.6,1.47-.481,3.464-1.781,3.727-3.6a3.041,3.041,0,0,0-.222-1.586Z" fill="#73190a"/>
      <path id="Trazado_2987" data-name="Trazado 2987" d="M901.689,7699.3c-.434,1.137,1.316,3.387-.017,5.283l-5.853,1.873s1.563-5.156-.007-6.777c-1.124-1.161,5.877-.379,5.877-.379Z" fill="#541206"/>
      <path id="Trazado_2988" data-name="Trazado 2988" d="M901.149,7705.4c-4.017.437-6.923,2.11-6.936,1.9-.02-.308,3.83-2.617,6.13-3.165a9.57,9.57,0,0,0,3.142-1.492c.275-.149-.631,2.616-2.336,2.753Z" fill="#2b110b"/>
      <path id="Trazado_2989" data-name="Trazado 2989" d="M887.639,7701.566c.658-.24,8.945-3.922,15.658-.987,1.172.512,1.293-3.226-.292-3.549-10.463-2.14-17.1,5.17-15.366,4.536Z" fill="#2b110b"/>
      <path id="Trazado_2990" data-name="Trazado 2990" d="M902.344,7725.832c.638.195,5.466-.189,6.408-.12a2.2,2.2,0,0,1,1.633,2.87c-.906,2.383-6.708.059-8.041-2.75Z" fill="#541206"/>
      <path id="Trazado_2991" data-name="Trazado 2991" d="M881.625,7736.343c2.916,2.977,10.98,3.389,14.694,3.679-.026,0-.061,0-.091,0h-.038c-.075,0-.148,0-.22,0a4.643,4.643,0,0,0-4.4,4.363c-.036.729.032,3.977.258,7.706-3.142-6.726-8.88-8.3-11.558-11.215-3.382-3.68-4.91-13.541-5.859-15.917-.824-2.064.128-3.038.532-1.975,0,0,3.824,10.445,6.68,13.361Z" fill="#541206"/>
      <path id="Trazado_2992" data-name="Trazado 2992" d="M902.344,7725.832c-.044-.108.057-.207.164-.214,1.974-.144,3.766-2.419,6.155-3.326.952-.361,1.614-.159,1.952.871a2.313,2.313,0,0,1-1.6,2.889c-1.121.449-6.008,1.4-6.672-.22Z" fill="#541206"/>
      <path id="Trazado_2993" data-name="Trazado 2993" d="M909.016,7718.9c-.33.119-.383.167-.4.58a3.945,3.945,0,0,0,.213.867c-.379-.818-4.09-.366-5.3-1.223-1.961-1.394.054-3.486.241-3.262a1.857,1.857,0,0,0,.918,2.743,6.218,6.218,0,0,0,3.184-.041,27.638,27.638,0,0,1,2.982-.618,8.444,8.444,0,0,1-1.836.954Z" fill="#541206"/>
      <path id="Trazado_2994" data-name="Trazado 2994" d="M899.458,7706.288c.1.724.618,1.25,1.159,1.178a1.193,1.193,0,0,0,.8-1.443c-.1-.723-.617-1.25-1.159-1.177a1.194,1.194,0,0,0-.8,1.442Z" fill="#2b110b"/>
      <path id="Trazado_2995" data-name="Trazado 2995" d="M826.324,7770.394a.457.457,0,0,1,.2-.888c.237.038,23.876,3.689,38.59-1.732a.456.456,0,0,1,.315.856c-14.938,5.506-38.809,1.817-39.048,1.779l-.06-.015Z" fill="#541206"/>
      <path id="Trazado_2996" data-name="Trazado 2996" d="M883.819,7768.493a.457.457,0,0,1,.284-.866c.232.06,23.436,5.865,38.586,1.816a.457.457,0,0,1,.235.883c-15.38,4.11-38.811-1.754-39.046-1.813-.02-.007-.04-.012-.059-.02Z" fill="#541206"/>
      <path id="Trazado_2997" data-name="Trazado 2997" d="M861.943,7721.58c-.058,3.225,12.371,8.517,13.781,4.013,2.769-8.848-7.349-9.236-7.349-9.236l-6.432,5.223Z" fill="#541206"/>
      <path id="Trazado_2998" data-name="Trazado 2998" d="M900.535,7681.931c-.231.554-10.266,10.775-10.266,10.775l5.934-13.164c.55-.419.972-.749,1.206-.938s1.544,1.148,3.126,3.327Z" fill="#2b110b"/>
      <path id="Trazado_2999" data-name="Trazado 2999" d="M867.717,7705.078c-3.642-.7-5.46,1.58-6.418,3.26a7.549,7.549,0,0,0,.1,6.476,31.183,31.183,0,0,0,4.766,6.837c1.425,1.459,4.708,4.414,7.527,3.9,1.776-.328,3.015-2.7,2.671-4.961l-1.87-11.534s-3.814-3.409-6.773-3.974Z" fill="#73190a"/>
      <path id="Trazado_3000" data-name="Trazado 3000" d="M873.113,7719.4c.974.829-.516,2.33-2.287,1.482-1.362-.651-3.139-1.421-3.94-2.618-1.4-2.086-1.838-5.1-.2-6.063,2.3-1.358,4.278-.226,4.467,1.526.1.977.768,1.884.817,2.585.156,2.23.456,2.5,1.148,3.088Z" fill="#541206"/>
      <path id="Trazado_3001" data-name="Trazado 3001" d="M863.4,7713.5a4,4,0,0,1,.746-3.4,3.771,3.771,0,0,1,3.064-1.484c1.527.007,3.2,1.545,2.67,1.818-.251.166-2.916-1.375-4.884.072-1.156.847-1.463,3.308-1.6,3Z" fill="#803116"/>
      <path id="Trazado_3002" data-name="Trazado 3002" d="M859.938,7737.212c-.955.271-3.547-3.05-7.024-8.463-4.468-6.956-18.471-5.837-19.6-18.5-.915-10.287-12.542-10.414-8.229-26.919,2.858-10.939-4.946-20.569,13.741-24.814,19.726-4.481,23.528-8.681,33-5.892,5.063,1.492,7.27,5.677,8.373,9.817,1.7,6.382,18.856,9.226,17.728,16.568-4.21,21.5-29.235,31.454-37.99,58.2Z" fill="#2b110b"/>
      <path id="Trazado_3003" data-name="Trazado 3003" d="M854.167,7721.4a.457.457,0,0,1-.347-.783c.212-.206,21.308-20.7,29.677-36.162a.456.456,0,1,1,.8.434c-8.436,15.59-29.631,36.176-29.844,36.383a.458.458,0,0,1-.288.128Z" fill="#73190a"/>
      <path id="Trazado_3004" data-name="Trazado 3004" d="M835.574,7701.088a.457.457,0,0,1-.119-.9c.236-.047,23.668-4.849,35.576-15.051a.456.456,0,1,1,.593.693c-12.089,10.358-35.751,15.2-35.989,15.253-.02,0-.041.007-.061.009Z" fill="#73190a"/>
      <path id="Trazado_3005" data-name="Trazado 3005" d="M850.44,7682.082c-12.724.821-21.007-1.647-21.117-1.681a.456.456,0,0,1,.267-.873c.144.045,14.686,4.366,34.873-.5a.456.456,0,0,1,.214.887,83.789,83.789,0,0,1-14.237,2.171Z" fill="#73190a"/>
      <path id="Trazado_3006" data-name="Trazado 3006" d="M854.672,7666.606c-4.687.3-9.818.324-15.86.218a.456.456,0,0,1,.016-.912c14.368.251,23.546-.22,33.835-3.5a.456.456,0,0,1,.277.869,73.581,73.581,0,0,1-18.268,3.32Z" fill="#73190a"/>
      <path id="Trazado_3007" data-name="Trazado 3007" d="M897.761,7760.649c.308-.594,15.445,1.5,25.5,4.315,6.184,1.731,12.233,3.122,17.411,5.564,11.809,5.568,54.419,44.731,54.768,62.4.328,16.6-29.91,33.331-29.91,33.331H926.274s35.869-40.861,32.652-31.928c-1.557,4.323-32.76-19.045-32.76-19.045s3.587,11.211,2.419,21.835c-1.172,10.673-6.123,29.138-6.123,29.138h-95.11s-4.888-21.8-5.5-31.306c-.622-9.646,3.346-20.435,3.346-20.435,1.285-.133-33.608,27.737-31.741,20.035,1.512-6.235,30.785,31.706,30.785,31.706H782.774s-23.256-16.528-26.312-31.788c-4.1-20.475,51.081-63.454,57.277-66.723,5.8-3.061,9.46-3.257,15.837-4.447,9.474-1.767,20.828-3.572,21.183-3.029l24.978,60.3,22.024-59.923Z" fill="#ef4a36"/>
      <path id="Trazado_3008" data-name="Trazado 3008" d="M825.909,7815.436a.465.465,0,0,1-.488-.613c3.72-11.05,3.38-23.485,2.439-31.969-1.1-9.894-3.27-16.78-3.823-17.37a.466.466,0,0,1,.68-.639c.942,1,3.046,8.655,4.071,17.906.951,8.579,1.292,21.158-2.482,32.371a.467.467,0,0,1-.4.314Z" fill="#541206"/>
      <path id="Trazado_3009" data-name="Trazado 3009" d="M925.6,7816.4a.465.465,0,0,1-.389-.409c-.048-.433-.182-1.094-.353-1.932-1.195-5.894-4.371-21.553,3.944-46.908a.467.467,0,0,1,.888.29c-8.24,25.121-5.1,40.6-3.916,46.433.174.861.311,1.54.366,2.015a.468.468,0,0,1-.413.515.422.422,0,0,1-.127,0Z" fill="#541206"/>
      <path id="Trazado_3010" data-name="Trazado 3010" d="M956.864,7834.469a.467.467,0,0,1-.264-.851c.094-.066,9.593-6.456,25.31-3.967a.467.467,0,0,1-.146.922c-15.326-2.429-24.544,3.751-24.635,3.814a.465.465,0,0,1-.265.082Z" fill="#541206"/>
      <path id="Trazado_3011" data-name="Trazado 3011" d="M796.365,7834.969a.466.466,0,0,1-.174-.034c-.122-.048-12.342-4.867-23.577-2.436a.468.468,0,0,1-.2-.914c11.521-2.49,24,2.434,24.123,2.484a.467.467,0,0,1-.174.9Z" fill="#541206"/>
    </g>
  </g>
</svg>
