<svg xmlns="http://www.w3.org/2000/svg" width="129.894" height="148.078" viewBox="0 0 129.894 148.078">
  <g id="Grupo_8814" data-name="Grupo 8814" transform="translate(-1838.788 -4717.772)">
    <path id="Trazado_5741" data-name="Trazado 5741" d="M1858.683,4847.508a114.349,114.349,0,0,1-.658,11.847,5.683,5.683,0,0,0,5.064,6.24,5.437,5.437,0,0,0,.595.032,5.685,5.685,0,0,0,5.646-5.095,126.2,126.2,0,0,0,.718-13.024,69.8,69.8,0,0,0-2.595-20.221,87.728,87.728,0,0,1-11.007,2.864c1.231,3.889,2.223,9.455,2.237,17.357Z" fill="#2e9ba6"/>
    <path id="Trazado_5742" data-name="Trazado 5742" d="M1894.185,4720.916a.854.854,0,0,0-.963.165l-6.393,6.321-4.123-9.129a.852.852,0,0,0-1.61.176l-2.107,10-6.246-4.534a.852.852,0,0,0-1.331.88l1.777,7.823a.853.853,0,0,0,1.663-.377l-1.276-5.614,5.476,3.975a.855.855,0,0,0,1.336-.513l1.838-8.734,3.554,7.869a.853.853,0,0,0,1.375.255l5.6-5.534-.8,8.556a.851.851,0,0,0,1.127.885l7.016-2.426-5.209,7.964a.846.846,0,0,0-.093.741.855.855,0,0,0,.527.53l5.228,1.812-4.916,2.314a.853.853,0,0,0,.365,1.625.838.838,0,0,0,.362-.082l6.808-3.206a.851.851,0,0,0-.084-1.576l-6.173-2.14,5.978-9.134a.853.853,0,0,0-.993-1.272l-8.122,2.807.9-9.573a.858.858,0,0,0-.485-.851Z" fill="#2e9ba6"/>
    <path id="Trazado_5743" data-name="Trazado 5743" d="M1874.593,4858.028c0,.26,0,.533,0,.816a5.681,5.681,0,0,0,5.632,5.731h.053a5.684,5.684,0,0,0,5.68-5.633c0-.3,0-.6,0-.915a85.8,85.8,0,0,0-7.516-35.019,112.532,112.532,0,0,1-10.6,4.152,74.4,74.4,0,0,1,6.753,30.867Z" fill="#2e9ba6"/>
    <path id="Trazado_5744" data-name="Trazado 5744" d="M1861.807,4771.1a5.109,5.109,0,0,1,2.319.559l.149.07c.145.069.378.173.686.3.589.248,1.541.623,2.732,1a32.033,32.033,0,0,0,6.765,1.355,13.621,13.621,0,0,0-1.637-4.527c-1.574-2.555-4.23-4.253-9.628-4.948a11.049,11.049,0,0,0-1.423-.091c-3.919.005-7.153,2.1-9.944,5.743s-5.008,8.759-6.752,14.492c-3.5,11.464-5.076,25.318-5.768,34.544-.351,4.657-.478,8.126-.518,9.542.258.048.593.1,1,.162a37.519,37.519,0,0,0,5.048.312c7.779,0,22.112-1.915,41.839-12.584a61.734,61.734,0,0,1-10.684-28.67c-.152-1.269-.274-2.489-.383-3.669a41.41,41.41,0,0,1-15.982-3.851l-.09-.042-.023-.009-.034-.017a5.115,5.115,0,0,1,2.324-9.672Z" fill="#2e9ba6"/>
    <path id="Trazado_5745" data-name="Trazado 5745" d="M1880.024,4767.531a12.781,12.781,0,1,0-14.872-10.274,12.783,12.783,0,0,0,14.872,10.274Z" fill="#2e9ba6"/>
    <path id="Trazado_5746" data-name="Trazado 5746" d="M1899.448,4766.451a3.976,3.976,0,0,0-5.58.709,21.348,21.348,0,0,1-8.4,6.732,21.847,21.847,0,0,1-8.769,1.735,31.778,31.778,0,0,1-9.35-1.511c-1.208-.379-2.181-.759-2.833-1.035-.327-.137-.572-.249-.726-.321-.078-.036-.133-.063-.163-.078l-.02-.009a3.978,3.978,0,1,0-3.611,7.088h0a40.129,40.129,0,0,0,16.7,3.821h.011a29.734,29.734,0,0,0,11.937-2.4,29.317,29.317,0,0,0,11.507-9.153,3.977,3.977,0,0,0-.709-5.579Z" fill="#2e9ba6"/>
    <path id="Trazado_5747" data-name="Trazado 5747" d="M1964.611,4719.247a.9.9,0,0,0-1.265-.183l-10.328,7.488c-2.206,1.6-3.158,3.576-4.962,5.984a44.072,44.072,0,0,1-5.552,5.066,12.789,12.789,0,1,0,1.134,2.707l.01-.007s5.043-3.372,7.092-4.065c1.864-.632,3.438-.98,4.922-1.591a21.186,21.186,0,0,1,1.952,8.358,13.226,13.226,0,0,1-2.341,7.624,23.44,23.44,0,0,1-8.829,7.245,34.866,34.866,0,0,1-3.955,1.7c-.364.13-.671.232-.912.309h-20.716a4.694,4.694,0,0,0-.722-.074c-.021,0-.158,0-.4,0a258.657,258.657,0,0,0-29.85,1.92c-.218.388-.453.769-.71,1.139a13.823,13.823,0,0,1-8.949,5.779,14.065,14.065,0,0,1-2.519.23,13.85,13.85,0,0,1-3.863-.555c.15.211.3.426.43.648a14.962,14.962,0,0,1,1.692,4.339c3.968-.891,8.078-1.6,12.124-2.173a21.751,21.751,0,0,0,4.877-4.674,5.116,5.116,0,0,1,9.117,2.487,5.536,5.536,0,0,1,.035.691c5.738-.439,10.647-.621,13.868-.694v27.573l-7.284,61.242a7.026,7.026,0,0,0,13.953,1.66l6.172-51.892h3.844v51.294a7.026,7.026,0,1,0,14.051,0V4767.7a42.386,42.386,0,0,0,7.969-4.128,29.476,29.476,0,0,0,8.108-7.845,22.378,22.378,0,0,0,3.9-12.72,30.446,30.446,0,0,0-2.842-12.306,4.5,4.5,0,0,0-.686-1.094l5.119-3.712a.906.906,0,0,0,.219-1.26l-3.905-5.385Z" fill="#2e9ba6"/>
  </g>
</svg>
