<svg xmlns="http://www.w3.org/2000/svg" width="109.948" height="142.032" viewBox="0 0 109.948 142.032">
  <g id="Grupo_8813" data-name="Grupo 8813" transform="translate(-1848.761 -4515.973)">
    <path id="Trazado_5733" data-name="Trazado 5733" d="M1855.239,4636.038a71.638,71.638,0,0,0,3.834-15.251,109.349,109.349,0,0,0-8.565,10.086,5.676,5.676,0,0,0,4.283,9.072,8.2,8.2,0,0,1,.448-3.907Z" fill="#0b92dd"/>
    <path id="Trazado_5734" data-name="Trazado 5734" d="M1914.36,4559.22a5.618,5.618,0,0,1,2.229,1.279,13.889,13.889,0,0,1-1.23-9.238,35.625,35.625,0,0,0-7.052-1.056,54.557,54.557,0,0,0-17.191,2.083l23.244,6.932Z" fill="#0b92dd"/>
    <path id="Trazado_5735" data-name="Trazado 5735" d="M1880.256,4541.206a12.782,12.782,0,1,0-9.551-15.348,12.783,12.783,0,0,0,9.551,15.348Z" fill="#0b92dd"/>
    <path id="Trazado_5736" data-name="Trazado 5736" d="M1856.835,4589.34a61.7,61.7,0,0,1,3.993,22.378,70.889,70.889,0,0,1-4.523,24.715,7.1,7.1,0,1,0,13.322,4.932,85.117,85.117,0,0,0,5.407-29.647,75.1,75.1,0,0,0-5.218-28.159c.006-.632-.013-1.325-.058-2.087-1.009-7.524.4-16.014,1.809-23.155l-9.041-2.7a5.685,5.685,0,0,1-3.82-7.07,5.684,5.684,0,0,1,7.07-3.821l7.452,2.223c-.418-3.933-2.469-7.41-5.814-8.244-4.851-1.209-11.882,1.425-14.743,9.746-3.867,11.463-4.7,18.924-3.229,31.547,1.128,5.806,4.066,8.3,7.393,9.338Z" fill="#0b92dd"/>
    <path id="Trazado_5737" data-name="Trazado 5737" d="M1865.451,4545.82a4.546,4.546,0,1,0-2.6,8.712l48.583,14.49a4.546,4.546,0,0,0,2.6-8.713l-48.583-14.489Z" fill="#0b92dd"/>
    <path id="Trazado_5738" data-name="Trazado 5738" d="M1924.862,4567.462c-.185-.058-.369-.12-.554-.185a13.824,13.824,0,0,1-6.188-4.406,5.652,5.652,0,0,1,.06,3.418,5.674,5.674,0,0,1-7.07,3.822l-10.49-3.129c-8.718,8.756-19.523,20.177-25.977,29.015.424,2.159.8,4.521,1.067,7.072.888.427,1.872.9,2.914,1.4q-1.28.85-2.639,1.8c.117,1.745.185,3.561.186,5.447a83.428,83.428,0,0,1-.5,9.111c2.883-2.4,5.663-4.464,8.193-6.185,2.667-1.816,5.053-3.259,6.987-4.351,2.982,1.411,5.286,2.492,5.906,2.763-.528,1.424-1.1,3.072-1.674,4.936a110.543,110.543,0,0,0-4.844,34.434,5.682,5.682,0,0,0,11.363-.2,99.148,99.148,0,0,1,4.337-30.87c.456-1.476.905-2.79,1.323-3.939,2.973,1.167,5.954,2.295,8.949,3.36,1.02-10.423,5.178-24.7,8.857-35.807-2.248-2.485-4.942-5.817-8.181-10.124a5.115,5.115,0,0,1,8.176-6.147q1.7,2.265,3.2,4.161c.407,1.074.813,2.184,1.2,3.287-1.509-1.818-3.271-4.056-5.307-6.765a3.978,3.978,0,0,0-6.359,4.781,124.553,124.553,0,0,0,9.5,11.52,24.489,24.489,0,0,0,3.3,2.924,6.95,6.95,0,0,0,4.007,1.482h.019a4.9,4.9,0,0,0,1.593-.276,4.138,4.138,0,0,0,.386-.151c.012-.006.025-.009.036-.015h0l.021-.009c.044-.02.082-.046.125-.067.084-.044.169-.087.249-.136a5,5,0,0,0,2.156-2.653,7.164,7.164,0,0,0,.377-2.42c0-.2-.013-.4-.024-.6a28.088,28.088,0,0,0-1.219-6.069c-1.049-3.581-2.567-7.612-3.819-10.738a13.865,13.865,0,0,1-9.638.512Z" fill="#0b92dd"/>
    <path id="Trazado_5739" data-name="Trazado 5739" d="M1958.6,4536.636a.85.85,0,0,0-.9-.425l-8.459,1.518,2.372-9.318a.853.853,0,0,0-1.324-.9l-7.293,5.254-2.663-9.657a.851.851,0,0,0-1.617-.075l-3.627,9.552-5.47-5.447a.853.853,0,0,0-1.453.662l.547,8.005a.852.852,0,1,0,1.7-.116h0l-.392-5.743,4.8,4.776a.851.851,0,0,0,1.4-.3l3.169-8.344,2.294,8.324a.853.853,0,0,0,1.321.466l6.384-4.6-2.119,8.329a.851.851,0,0,0,.976,1.049l7.306-1.311-6.377,7.06a.85.85,0,0,0,.232,1.323l4.883,2.6-5.213,1.526a.853.853,0,0,0,.24,1.672.837.837,0,0,0,.24-.035l7.221-2.114a.853.853,0,0,0,.16-1.571l-5.767-3.069,7.318-8.1a.85.85,0,0,0,.113-.986Z" fill="#0b92dd"/>
    <path id="Trazado_5740" data-name="Trazado 5740" d="M1924.689,4566.206a12.782,12.782,0,1,0-7.764-16.325,12.783,12.783,0,0,0,7.764,16.325Z" fill="#0b92dd"/>
  </g>
</svg>
