<svg xmlns="http://www.w3.org/2000/svg" viewBox="0 0 171.3 171.3"><defs><style>.cls-1{fill:#5fc6ff;}.cls-2{fill:#26bfbf;}.cls-3{fill:#e89f18;}.cls-4{fill:#dd104f;}.cls-5{fill:#f73b6c;}.cls-6{fill:#f6ba97;}.cls-7{fill:#eaa27f;}.cls-8{fill:#2f373b;}.cls-9{fill:#f9725d;}.cls-10{fill:#fff;}.cls-11{fill:#ffe05c;}.cls-12{fill:#3ff;}.cls-13{fill:#ffec9d;}.cls-14{opacity:0.2;}.cls-15{fill:#ccc;}.cls-16{fill:#b3b3b3;}</style></defs><g id="Capa_2" data-name="Capa 2"><g id="CONTENIDO"><path class="cls-1" d="M171.3,85.65A85.73,85.73,0,0,1,62.12,168a84.72,84.72,0,0,1-14.2-5.46A85.66,85.66,0,1,1,171.3,85.65Z"/><path class="cls-2" d="M129.57,62.91s10,5.28-.6,37.81l10.79-4.47S141.49,65.87,132,60.8h0l-2.4,2.11"/><path class="cls-3" d="M121.06,88.79c5.12,5.12,10.74,19.68-1.5,28.42s2.8,29.72,2.8,29.72L91.25,159.51,51.74,137.14l6.85-59.26"/><path class="cls-4" d="M127.85,150.42v9.78a84.83,84.83,0,0,1-16,7c-.58.19-1.16.37-1.75.54-2.17.65-4.39,1.22-6.64,1.69q-1.47.31-3,.57a85.64,85.64,0,0,1-14.86,1.29A86.72,86.72,0,0,1,70.79,170c-1-.17-2-.37-3-.58q-3.91-.83-7.69-2l-.42-.14-.28-.09a84.47,84.47,0,0,1-16-7v-9.78a31.82,31.82,0,0,1,16-27.61,31.54,31.54,0,0,1,13.25-4.11c.86-.07,1.73-.11,2.61-.11H96a31.61,31.61,0,0,1,7.13.8l.34.08a31.44,31.44,0,0,1,8.39,3.34,31.84,31.84,0,0,1,16,27.61Z"/><path class="cls-5" d="M127.85,150.42v9.78a85.15,85.15,0,0,1-40,11.08l-2.21,0c-.74,0-1.48,0-2.21,0a84.91,84.91,0,0,1-23.73-4V150.42a31.83,31.83,0,0,1,31.84-31.83H96a31.83,31.83,0,0,1,31.84,31.83Z"/><path class="cls-6" d="M104,119.58v11.2a10,10,0,0,1-10,10H77.32a10,10,0,0,1-10-10V119.59a30.42,30.42,0,0,1,5.33-.89c.86-.07,1.73-.11,2.61-.11H96a31.61,31.61,0,0,1,7.13.8l.81.19Z"/><path class="cls-7" d="M75.29,118.59H91.55a31.8,31.8,0,0,0-24.2,11.14V119.59a30.42,30.42,0,0,1,5.33-.89c.86-.07,1.73-.11,2.61-.11Z"/><path class="cls-7" d="M97,106.33v13.94a11.36,11.36,0,0,1-22.72,0V106.33Z"/><path class="cls-6" d="M97,119.38v.89a11.35,11.35,0,0,1-8,10.84,11.35,11.35,0,0,1-7.91-9.36c.76,0,1.52.06,2.29.06a39.71,39.71,0,0,0,6.31-.5A38.72,38.72,0,0,0,97,119.38Z"/><path class="cls-6" d="M54,83.49a10.51,10.51,0,1,1-8.86-10.43A10.56,10.56,0,0,1,54,83.49Z"/><path class="cls-7" d="M54,83.49a10.56,10.56,0,0,1-8.86,10.42,39.24,39.24,0,0,1,0-20.85A10.57,10.57,0,0,1,54,83.49Z"/><path class="cls-7" d="M47.2,83.49a3.78,3.78,0,1,1-3.78-3.78,3.77,3.77,0,0,1,3.78,3.78Z"/><path class="cls-6" d="M117.31,83.49a10.52,10.52,0,1,0,8.87-10.43,10.57,10.57,0,0,0-8.87,10.43Z"/><path class="cls-7" d="M117.31,83.49a10.57,10.57,0,0,0,8.87,10.42,39.24,39.24,0,0,0,0-20.85,10.57,10.57,0,0,0-8.87,10.43Z"/><path class="cls-7" d="M131.65,83.49a3.78,3.78,0,1,1-3.77-3.78,3.77,3.77,0,0,1,3.77,3.78Z"/><path class="cls-7" d="M124.94,62.91v15a39.29,39.29,0,0,1-33,38.78l-.19,0a38.46,38.46,0,0,1-6.11.48A39.29,39.29,0,0,1,46.36,77.88v-15A39.27,39.27,0,0,1,85.65,23.62h0a39.8,39.8,0,0,1,6.12.47,39.3,39.3,0,0,1,33.17,38.82Z"/><path class="cls-6" d="M124.94,62.91v15a39.29,39.29,0,0,1-33,38.78l-.19,0A39.29,39.29,0,0,1,58.59,77.88v-15A39.3,39.3,0,0,1,91.77,24.09a39.3,39.3,0,0,1,33.17,38.82Z"/><path class="cls-7" d="M112.39,88.19a4.89,4.89,0,1,1-4.89-4.89,4.89,4.89,0,0,1,4.89,4.89Z"/><path class="cls-7" d="M68.69,88.19A4.89,4.89,0,1,1,63.8,83.3a4.89,4.89,0,0,1,4.89,4.89Z"/><path class="cls-7" d="M106.75,74.56a6.53,6.53,0,1,0-13,0"/><path class="cls-7" d="M77.6,74.56a6.53,6.53,0,1,0-13,0"/><path class="cls-8" d="M75.53,77.34a4.46,4.46,0,1,1-4.45-4.46,4.45,4.45,0,0,1,4.45,4.46Z"/><path class="cls-8" d="M104.68,77.34a4.46,4.46,0,1,1-4.45-4.46,4.45,4.45,0,0,1,4.45,4.46Z"/><path class="cls-7" d="M90.11,88.56H81.19a1.93,1.93,0,0,1,0-3.85h8.92a1.93,1.93,0,0,1,0,3.85Z"/><path class="cls-9" d="M85.65,100.72a19.85,19.85,0,0,1-9.58-2.47,1.75,1.75,0,1,1,1.69-3.06,16.3,16.3,0,0,0,15.79,0,1.75,1.75,0,0,1,1.68,3.06,19.85,19.85,0,0,1-9.58,2.47Z"/><path class="cls-10" d="M74.63,76.55a1.91,1.91,0,1,1-1.91-1.91,1.92,1.92,0,0,1,1.91,1.91Z"/><path class="cls-10" d="M104,76.55a1.91,1.91,0,1,1-1.91-1.91A1.91,1.91,0,0,1,104,76.55Z"/><path class="cls-11" d="M126.18,73.06c-16.8,0-20.51-29.37-20.51-29.37,0,11.19-23.69,21.25-34,10.94,0,0,10.14,16.08-12.24,28.32,0,0,14,6.28,7,23.07S65,141.68,65,141.68s6,15.63-2.91,26.35a85.51,85.51,0,0,1-34.69-19.56c2.14-13.92,10-32.36,5.43-65C26.22,36.13,55.59,21.07,79.71,17.92s29.36,13.64,29.36,13.64c20.28-4.9,24.48,41.5,17.11,41.5Z"/><path class="cls-3" d="M52.44,83.49c6.27,44.7-10.82,62.78-4.52,79.08a85.86,85.86,0,0,1-20.49-14.1c2.14-13.92,10-32.36,5.43-65C26.22,36.13,55.59,21.07,79.71,17.92a36,36,0,0,1,14.71.79c-23,4.5-48.18,20.57-42,64.78Z"/><path class="cls-5" d="M135,93.25a3,3,0,1,1-3-3,3,3,0,0,1,3,3Z"/><path class="cls-12" d="M126.91,46.61s-.79-22.14-16.22-26.67-32.42-7-44.07,0h0S87.9,37.51,126.91,46.61"/><path class="cls-5" d="M48.85,30.31S52.47,45.83,97,44.12l32.56,18.79s5.4-9.58-2.66-16.3c0,0-6.4-14.25-26.74-16.3S68.69,20.2,68.69,20.2,53.44,17.36,48.85,30.31"/><path class="cls-12" d="M37.54,44.4s3.31,9.14,51.51,4.86c28.26-1.86,38.83,23.67,38.83,23.67s5.13-2.79,1.69-10c0,0-9-24.79-40.52-25.65s-40.2-6.95-40.2-6.95S38.53,30.54,37.54,44.4Z"/><path class="cls-12" d="M135,60.8a24.19,24.19,0,0,1,7,17.08c0,10.81,5.15,22.45,5.57,22.84,0,0-3.88-1.37-12.57,3,0,0-.43-14.56,2.2-25.23S132,62.91,132,62.91Z"/><circle class="cls-13" cx="131.97" cy="60.8" r="5.07"/><path class="cls-14" d="M77.11,24.61s.35-4.5,7-9C77.64,15.71,71.63,17,66.62,20c-4.33-.25-14.23.33-17.77,10.33,0,0-10.32.23-11.31,14.09,0,0,1.5,4.14,17.2,5.55,0,0-3-11,8.88-15.06C63.62,34.89,62.45,25.13,77.11,24.61Z"/><path class="cls-15" d="M126.18,129.67a20.09,20.09,0,0,0-11.48,36.57A85.67,85.67,0,0,0,146,146.44,20.08,20.08,0,0,0,126.18,129.67Z"/><path class="cls-16" d="M112,149.76a20.08,20.08,0,0,1,17.15-19.85,19.67,19.67,0,0,0-3-.24,20.09,20.09,0,0,0-11.48,36.57c1.34-.48,2.67-1,4-1.55A20.05,20.05,0,0,1,112,149.76Z"/><circle class="cls-10" cx="114.85" cy="142.49" r="2.46"/><circle class="cls-13" cx="77.6" cy="133.94" r="2.82"/><circle class="cls-13" cx="71.52" cy="126.98" r="2.82"/><circle class="cls-13" cx="68.69" cy="118.69" r="2.82"/><circle class="cls-13" cx="94.31" cy="133.94" r="2.82"/><circle class="cls-13" cx="100.4" cy="126.98" r="2.82"/><circle class="cls-13" cx="103.22" cy="118.69" r="2.82"/><circle class="cls-13" cx="85.96" cy="136.04" r="2.82"/></g></g></svg>