<svg xmlns="http://www.w3.org/2000/svg" width="133.027" height="164.833" viewBox="0 0 133.027 164.833">
  <g id="Grupo_8815" data-name="Grupo 8815" transform="translate(-1837.221 -5119.039)">
    <path id="Trazado_5748" data-name="Trazado 5748" d="M1901.511,5154.411a12.782,12.782,0,1,0,13.458-12.069,12.783,12.783,0,0,0-13.458,12.069Z" fill="#e68800"/>
    <path id="Trazado_5749" data-name="Trazado 5749" d="M1913.869,5187.294h0c-.718,0-1.157-.028-1.238-.034a5.681,5.681,0,0,1,.366-11.351c.12,0,.24,0,.361.01h.066c.09,0,.24.006.447.006h.079a28.644,28.644,0,0,0,5.672-.664c-1.363-2.386-3.444-4.079-5.962-4.255-4.986-.349-11.455,3.466-12.828,12.156-1.327,8.72-1.424,15.071.026,22.587a5.081,5.081,0,0,1,3.814-1.718,5.115,5.115,0,0,1,4.008,8.288,47.357,47.357,0,0,1-4.428,4.881,10.035,10.035,0,0,0,7.024,5.383,65.743,65.743,0,0,1,3.378,20.831,64.853,64.853,0,0,1-7.421,30.088,7.1,7.1,0,1,0,12.62,6.526,79.336,79.336,0,0,0,4.109-64.161,24.97,24.97,0,0,0-.571-3.155c-2.631-8.277-2.37-18.351-2.165-26.172a39.817,39.817,0,0,1-7.352.751Z" fill="#e68800"/>
    <path id="Trazado_5750" data-name="Trazado 5750" d="M1881.28,5191.883a.852.852,0,0,0,.772.49.837.837,0,0,0,.363-.082l6.808-3.206a.851.851,0,0,0-.083-1.575l-6.174-2.14,5.977-9.135a.852.852,0,0,0-.992-1.271l-8.122,2.807.9-9.572a.852.852,0,0,0-1.447-.687l-6.394,6.32-4.123-9.128a.853.853,0,0,0-1.611.176l-2.106,10-6.246-4.535a.852.852,0,0,0-1.331.879l1.778,7.823a.852.852,0,1,0,1.662-.376h0l-1.275-5.614,5.477,3.975a.852.852,0,0,0,1.334-.514l1.839-8.733,3.554,7.869a.853.853,0,0,0,1.377.255l5.6-5.533-.8,8.557a.853.853,0,0,0,1.127.885l7.015-2.426-5.209,7.962a.853.853,0,0,0,.435,1.273l5.228,1.811-4.917,2.315a.852.852,0,0,0-.408,1.133Z" fill="#e68800"/>
    <path id="Trazado_5751" data-name="Trazado 5751" d="M1861.655,5273.807a48.373,48.373,0,0,1-14.25-2.126,5.679,5.679,0,0,0,2.522,10.769h35.42a5.683,5.683,0,0,0,4.43-9.24l-4.033-5.023a57.078,57.078,0,0,1-24.082,5.62Z" fill="#e68800"/>
    <path id="Trazado_5752" data-name="Trazado 5752" d="M1868.478,5215.445a5.078,5.078,0,0,1,2.037.425l.052.021c.08.032.214.082.4.147.369.13.971.327,1.754.527a26.3,26.3,0,0,0,4.2.7,6.452,6.452,0,0,0-2.585-4.355,8.471,8.471,0,0,0-4.453-1.116c-.13,0-.264-.006-.4-.006-4.252,0-8.019,1.8-11.413,4.811a43.531,43.531,0,0,0-8.888,11.972c-5.072,9.462-8.406,20.9-10.247,28.52-.947,3.915-1.5,6.809-1.705,7.935l0,0c.281.2.7.483,1.263.828a38.375,38.375,0,0,0,4.921,2.538,46.04,46.04,0,0,0,18.248,3.706c7.643,0,16.767-1.806,26.993-7.256-9.863-14.419-10.713-27.667-10.995-37.287a33.567,33.567,0,0,1-11.183-2.3,5.114,5.114,0,0,1,2.008-9.817Z" fill="#e68800"/>
    <path id="Trazado_5753" data-name="Trazado 5753" d="M1859.682,5185.285a12.781,12.781,0,1,0,14.873,10.275,12.782,12.782,0,0,0-14.873-10.275Z" fill="#e68800"/>
    <path id="Trazado_5754" data-name="Trazado 5754" d="M1907.784,5211.618a3.977,3.977,0,1,0-6.237-4.936,31.6,31.6,0,0,1-11.769,9.559,25.734,25.734,0,0,1-10.618,2.262,27.427,27.427,0,0,1-6.723-.837c-.812-.207-1.443-.412-1.852-.556-.2-.072-.351-.129-.439-.164l-.076-.031c-.008,0-.008,0-.008,0a3.977,3.977,0,0,0-3.182,7.29h0a32.753,32.753,0,0,0,12.28,2.257h.01a33.7,33.7,0,0,0,13.872-2.963,39.541,39.541,0,0,0,14.742-11.878Z" fill="#e68800"/>
    <path id="Trazado_5755" data-name="Trazado 5755" d="M1950.389,5127.392c-2.822.2-11.571,10.364-13.186,13.789a10.233,10.233,0,0,0-.84,1.968c-1.212,3.747-2.06,10.562-2.067,18.286,0,1.781.051,3.609.151,5.453a27.708,27.708,0,0,0,2.155-2.682c-.024-.932-.036-1.859-.033-2.771a84.628,84.628,0,0,1,.964-13.229c.194-1.181.412-2.234.64-3.131a73.9,73.9,0,0,0,5.337,7.89,5.679,5.679,0,0,1,7.953,6.973c-.171.477-.348.943-.527,1.4a1.73,1.73,0,0,0,.276.154c.911.379,3.914-.645,7.273-2.236,2.885,7.55,4.978,16.359,4.972,23.558.006,4.287-.748,7.972-2.354,10.463s-3.945,3.908-7.76,3.936a11.152,11.152,0,0,1-7.88-3.145c-3.492-3.2-5.8-8.816-7.194-15.22q-1.007.792-2,1.474a48.129,48.129,0,0,0,1.854,6.158,24.46,24.46,0,0,0,5.792,9.25,13.448,13.448,0,0,0,9.43,3.756h.1a10.8,10.8,0,0,0,9.578-4.983c1.959-3.073,2.708-7.154,2.714-11.69-.006-7.692-2.2-16.769-5.2-24.574,4.837-2.517,9.694-5.832,9.719-7.621.047-3.311-16.847-23.448-19.859-23.23Z" fill="#e68800"/>
    <path id="Trazado_5756" data-name="Trazado 5756" d="M1950.393,5159.552a4.546,4.546,0,1,0-8.552-3.086c-3.666,10.039-9.566,14.884-15.188,17.617a30.965,30.965,0,0,1-12.785,2.981c-.225,0-.39,0-.488-.007l-.095,0h0a4.546,4.546,0,0,0-.584,9.073c.09,0,.5.029,1.167.03a39.947,39.947,0,0,0,16.7-3.87c7.391-3.483,15.424-10.439,19.82-22.735Z" fill="#e68800"/>
    <path id="Trazado_5757" data-name="Trazado 5757" d="M1918.217,5124.27a3.643,3.643,0,0,0-.369,3.512,3.806,3.806,0,0,0,2.673,2.157,11.142,11.142,0,0,0,5.249-.281l1.894,4.247a4.7,4.7,0,0,1-1.908-.169,3.257,3.257,0,0,1-1.56-.982l-3.943,2.1a5.339,5.339,0,0,0,3.531,2.133,10.183,10.183,0,0,0,4.965-.646l.823,1.845,2.261-1.009-.846-1.9a10.285,10.285,0,0,0,4.062-3.658,4.085,4.085,0,0,0,.328-3.853,3.562,3.562,0,0,0-2.557-2.086q-1.824-.446-5.86.565l-1.768-3.964a2.683,2.683,0,0,1,2.595.788l3.8-2.094a4.405,4.405,0,0,0-2.955-1.593,9.616,9.616,0,0,0-4.435.659l-.447-1-2.261,1.009.447,1a9.11,9.11,0,0,0-3.715,3.218Zm12.365,4.671a1.6,1.6,0,0,1,1.138.9,1.8,1.8,0,0,1-.143,1.649,4.194,4.194,0,0,1-1.588,1.553l-1.763-3.954a5.149,5.149,0,0,1,2.356-.144Zm-8.823-4.336a3.478,3.478,0,0,1,1.159-1.343l1.564,3.507a4.039,4.039,0,0,1-1.845-.071,1.473,1.473,0,0,1-.944-.776,1.55,1.55,0,0,1,.066-1.317Z" fill="#e68800"/>
    <path id="Trazado_5758" data-name="Trazado 5758" d="M1900.487,5124.79a2.721,2.721,0,0,0-.24,2.593A2.853,2.853,0,0,0,1902.2,5129a7.935,7.935,0,0,0,3.8-.167l1.406,3.153a3.37,3.37,0,0,1-1.385-.14,2.413,2.413,0,0,1-1.138-.738l-2.844,1.521a3.968,3.968,0,0,0,2.577,1.6,7.207,7.207,0,0,0,3.6-.439l.611,1.369,1.632-.728-.627-1.408a7.3,7.3,0,0,0,2.917-2.671,3.057,3.057,0,0,0,.208-2.845,2.675,2.675,0,0,0-1.87-1.562,9.675,9.675,0,0,0-4.246.373l-1.312-2.942a1.955,1.955,0,0,1,1.888.6l2.736-1.518a3.258,3.258,0,0,0-2.154-1.2,6.8,6.8,0,0,0-3.211.454l-.333-.745-1.632.727.333.746a6.444,6.444,0,0,0-2.67,2.349Zm9,3.547a1.2,1.2,0,0,1,.832.67,1.344,1.344,0,0,1-.091,1.218,2.973,2.973,0,0,1-1.14,1.136l-1.309-2.935a3.645,3.645,0,0,1,1.708-.089Zm-5.6-4.256,1.161,2.6a2.877,2.877,0,0,1-1.338-.066,1.107,1.107,0,0,1-.69-.581,1.171,1.171,0,0,1,.037-.974,2.5,2.5,0,0,1,.83-.983Z" fill="#e68800"/>
    <path id="Trazado_5759" data-name="Trazado 5759" d="M1948.372,5188.125c1.49,0,2.7-1.653,2.7-3.693s-1.209-3.694-2.7-3.694-2.7,1.654-2.7,3.694,1.208,3.693,2.7,3.693Z" fill="#e68800"/>
    <path id="Trazado_5760" data-name="Trazado 5760" d="M1942.69,5208.3a2.571,2.571,0,1,0-2.557,2.841,2.71,2.71,0,0,0,2.557-2.841Z" fill="#e68800"/>
    <path id="Trazado_5761" data-name="Trazado 5761" d="M1954.007,5210.286a2.571,2.571,0,1,0-2.557,2.841,2.71,2.71,0,0,0,2.557-2.841Z" fill="#e68800"/>
    <path id="Trazado_5762" data-name="Trazado 5762" d="M1948.848,5227.475l10.931-4.787-2.507-5.726-10.931,4.787,2.507,5.726Z" fill="#e68800"/>
    <path id="Trazado_5763" data-name="Trazado 5763" d="M1935.866,5190.1l-5.615-.348-.705,11.379,5.615.348.705-11.379Z" fill="#e68800"/>
  </g>
</svg>
