<svg xmlns="http://www.w3.org/2000/svg" width="135.392" height="125.143" viewBox="0 0 135.392 125.143">
  <g id="Grupo_8981" data-name="Grupo 8981" transform="translate(-3636.961 -3639.114)">
    <rect id="Rectángulo_3169" data-name="Rectángulo 3169" width="135.392" height="125.143" rx="12" transform="translate(3636.961 3639.114)" fill="#73cddc"/>
    <g id="Grupo_8980" data-name="Grupo 8980">
      <path id="Trazado_6177" data-name="Trazado 6177" d="M3749.891,3673.381l-15.267,10.687v-6.107h-15.268v-9.16h15.268v-6.107Zm0,0" fill="#b4dd7f"/>
      <path id="Trazado_6178" data-name="Trazado 6178" d="M3731.57,3693.229v9.16H3716.3v6.107l-15.267-10.687,15.267-10.687v6.107Zm0,0" fill="#fcd770"/>
      <rect id="Rectángulo_3170" data-name="Rectángulo 3170" width="15.267" height="18.321" transform="translate(3734.624 3723.763)" fill="#aab2bd"/>
      <rect id="Rectángulo_3171" data-name="Rectángulo 3171" width="9.16" height="18.321" transform="translate(3725.463 3723.763)" fill="#b4dd7f"/>
      <path id="Trazado_6179" data-name="Trazado 6179" d="M3719.356,3726.816a3.062,3.062,0,0,1,3.054-3.053h3.053v18.321h-6.107Zm0,0" fill="#e6e9ed"/>
      <path id="Trazado_6180" data-name="Trazado 6180" d="M3693.4,3729.87a4.565,4.565,0,0,1-3.236-1.344,4.475,4.475,0,0,1-1.3-2.687,3.283,3.283,0,0,1-.046-.549,4.573,4.573,0,0,1,4.58-4.58h11.268a15.248,15.248,0,0,1,9.77,3.542l4.916,4.091v13.741h-31.8a12.244,12.244,0,0,1-10.015-5.222l-9.65-13.817a3.638,3.638,0,0,1-.442-1.725,3.649,3.649,0,0,1,3.664-3.664,4.9,4.9,0,0,1,3.909,1.954l1.618,2.153,3.786,5.053a7.627,7.627,0,0,0,6.107,3.054Zm0,0" fill="#f0d0b4"/>
      <path id="Trazado_6181" data-name="Trazado 6181" d="M3688.853,3725.839h.015a4.475,4.475,0,0,0,1.3,2.687,4.565,4.565,0,0,0,3.236,1.344h-6.87a7.627,7.627,0,0,1-6.107-3.054l-3.786-5.053a4.153,4.153,0,0,1-.031-.443,3.65,3.65,0,0,1,3.664-3.664,4.9,4.9,0,0,1,3.909,1.954Zm0,0" fill="#f0d0b4"/>
      <path id="Trazado_6182" data-name="Trazado 6182" d="M3701.036,3678.236v.046a13.945,13.945,0,0,1-4.091,9.877l-17.283,17.283-17.283-17.283a13.945,13.945,0,0,1-4.091-9.877v-.046a13.763,13.763,0,0,1,3.038-8.641,10.228,10.228,0,0,1,15.222-.855l3.114,3.114,3.114-3.114a10.215,10.215,0,0,1,15.221.855,13.764,13.764,0,0,1,3.039,8.641Zm0,0" fill="#ff826e"/>
      <path id="Trazado_6183" data-name="Trazado 6183" d="M3733.1,3687l19.457-13.62-19.457-13.62v7.513H3717.83v12.214H3733.1Zm-12.214-10.566v-6.107h15.267v-4.7l11.078,7.756-11.078,7.756v-4.7Zm0,0"/>
      <path id="Trazado_6184" data-name="Trazado 6184" d="M3698.373,3697.809l19.457,13.62v-7.513H3733.1V3691.7H3717.83v-7.513Zm31.671-3.054v6.107h-15.268v4.7l-11.077-7.755,11.077-7.756v4.7Zm0,0"/>
      <path id="Trazado_6185" data-name="Trazado 6185" d="M3698.023,3689.239a15.494,15.494,0,0,0,1.172-20.6,11.764,11.764,0,0,0-17.505-.969l-2.028,2.029-2.029-2.029a11.764,11.764,0,0,0-17.505.969,15.5,15.5,0,0,0,1.172,20.6l18.362,18.362Zm-38.209-11a12.362,12.362,0,0,1,2.7-7.694,8.708,8.708,0,0,1,12.96-.718l4.188,4.187,4.187-4.187a8.709,8.709,0,0,1,12.961.718,12.444,12.444,0,0,1-.945,16.537l-16.2,16.2-16.2-16.2a12.394,12.394,0,0,1-3.644-8.843Zm0,0"/>
      <path id="Trazado_6186" data-name="Trazado 6186" d="M3718.1,3725.313l-2.684-2.237a16.818,16.818,0,0,0-10.752-3.893H3693.4a6.082,6.082,0,0,0-5.293,3.121l-2.7-3.6a6.458,6.458,0,0,0-5.141-2.57,5.181,5.181,0,0,0-4.279,2.266,6.451,6.451,0,0,0-4.881-2.266,5.183,5.183,0,0,0-4.564,7.643l9.749,13.968a13.753,13.753,0,0,0,11.263,5.87h63.864v-21.374H3722.41a4.572,4.572,0,0,0-4.306,3.077Zm-37.838-6.13a3.392,3.392,0,0,1,2.7,1.348l4.451,5.935a5.99,5.99,0,0,0,.731,1.877h-1.614a6.135,6.135,0,0,1-4.885-2.443l-3.5-4.67a2.128,2.128,0,0,1,2.122-2.047Zm7.288,21.374a10.692,10.692,0,0,1-8.759-4.565l-9.6-13.736a2.156,2.156,0,0,1-.219-.942,2.133,2.133,0,0,1,2.131-2.131,3.388,3.388,0,0,1,2.7,1.348l5.4,7.2a9.205,9.205,0,0,0,7.329,3.664h12.617a12.993,12.993,0,0,1,5.784,1.366l1.367-2.731a16.076,16.076,0,0,0-7.151-1.689H3693.4a3.053,3.053,0,0,1,0-6.107h11.266a13.768,13.768,0,0,1,8.8,3.185l4.365,3.637v11.5Zm33.329-13.741a1.529,1.529,0,0,1,1.527-1.526h1.527v15.267h-3.054Zm6.107-1.526h6.107v15.267h-6.107Zm21.374,15.267H3736.15V3725.29h12.214Zm0,0"/>
    </g>
  </g>
</svg>
