<svg xmlns="http://www.w3.org/2000/svg" width="117" height="105.117" viewBox="0 0 117 105.117">
  <g id="Grupo_9469" data-name="Grupo 9469" transform="translate(-229.316 -5427.661)">
    <path id="Trazado_7117" data-name="Trazado 7117" d="M287.816,5439.087a4.569,4.569,0,0,0,3.238-7.794l-.007-.008a4.567,4.567,0,0,0-6.462,0l-.008.008a4.57,4.57,0,0,0,3.239,7.794Zm0,0" fill="#a7bdcd" fill-rule="evenodd"/>
    <path id="Trazado_7118" data-name="Trazado 7118" d="M333.519,5448.228H242.113a4.584,4.584,0,0,0-4.571,4.57v68.555h9.141v-63.985h82.266v63.985h9.14V5452.8a4.583,4.583,0,0,0-4.57-4.57Zm0,0" fill="#d1a184" fill-rule="evenodd"/>
    <path id="Trazado_7119" data-name="Trazado 7119" d="M328.949,5457.368H246.683v63.985h54.844V5514.5a2.292,2.292,0,0,1,2.285-2.285h13.711a2.292,2.292,0,0,1,2.285,2.285v6.856h9.141Zm0,0" fill="#5a798c" fill-rule="evenodd"/>
    <path id="Trazado_7120" data-name="Trazado 7120" d="M301.527,5521.353H233.886a2.291,2.291,0,0,0-2.285,2.285v4.57a2.292,2.292,0,0,0,2.285,2.285h107.86a2.292,2.292,0,0,0,2.285-2.285v-4.57a2.292,2.292,0,0,0-2.285-2.285Zm0,0" fill="#c68a65" fill-rule="evenodd"/>
    <path id="Trazado_7121" data-name="Trazado 7121" d="M301.527,5514.5v6.856h18.281V5514.5a2.292,2.292,0,0,0-2.285-2.285H303.811a2.291,2.291,0,0,0-2.284,2.285Zm0,0" fill="#d1a184" fill-rule="evenodd"/>
    <path id="Trazado_7122" data-name="Trazado 7122" d="M341.746,5519.067h-1.372V5452.8a6.864,6.864,0,0,0-6.855-6.856H308.937l-16.274-16.273c-.027-.027-.058-.052-.086-.078a6.839,6.839,0,0,0-9.521,0c-.028.027-.059.051-.088.08L266.7,5445.942H242.113a6.864,6.864,0,0,0-6.856,6.856v66.269h-1.371a4.576,4.576,0,0,0-4.57,4.571v4.57a4.575,4.575,0,0,0,4.57,4.57h107.86a4.575,4.575,0,0,0,4.57-4.57v-4.57a4.576,4.576,0,0,0-4.57-4.571Zm-51.645-84.55a2.285,2.285,0,1,1-2.285-2.285,2.287,2.287,0,0,1,2.285,2.285Zm-8.471,2.954a6.855,6.855,0,0,0,12.371,0l8.473,8.471H273.159Zm-41.8,81.6V5452.8a2.286,2.286,0,0,1,2.285-2.285h91.406a2.287,2.287,0,0,1,2.285,2.285v66.269h-4.57v-61.7a2.286,2.286,0,0,0-2.285-2.285H298.1a2.285,2.285,0,1,0,0,4.57h28.565v59.414h-4.571v-4.57a4.575,4.575,0,0,0-4.57-4.57H303.812a4.575,4.575,0,0,0-4.57,4.57v4.57H248.968v-59.414h28.565a2.285,2.285,0,1,0,0-4.57h-30.85a2.286,2.286,0,0,0-2.285,2.285v61.7Zm63.984-4.57h13.711v4.57H303.812Zm-69.926,13.711v-4.57h107.86v4.57Zm0,0"/>
    <path id="Trazado_7123" data-name="Trazado 7123" d="M269.535,5477.935a6.863,6.863,0,0,0-6.856,6.855V5498.5a2.285,2.285,0,1,0,4.57,0v-4.57h4.571v4.57a2.285,2.285,0,1,0,4.57,0V5484.79a6.862,6.862,0,0,0-6.855-6.855Zm2.285,11.425h-4.571v-4.57a2.286,2.286,0,0,1,4.571,0Zm0,0" fill="#fff"/>
    <path id="Trazado_7124" data-name="Trazado 7124" d="M306.1,5500.786a6.864,6.864,0,0,0,6.856-6.855,2.286,2.286,0,0,0-4.571,0,2.285,2.285,0,0,1-4.57,0v-9.141a2.285,2.285,0,1,1,4.57,0,2.286,2.286,0,0,0,4.571,0,6.855,6.855,0,0,0-13.711,0v9.141a6.863,6.863,0,0,0,6.855,6.855Zm0,0" fill="#fff"/>
    <path id="Trazado_7125" data-name="Trazado 7125" d="M283.246,5500.786h4.57a12.306,12.306,0,0,0,0-22.851h-4.57a2.285,2.285,0,0,0-2.286,2.285V5498.5a2.286,2.286,0,0,0,2.286,2.285Zm4.57-4.57h-2.285v-4.57h2.285a2.285,2.285,0,1,1,0,4.57Zm0-13.711a2.285,2.285,0,0,1,0,4.57h-2.285v-4.57Zm0,0" fill="#fff"/>
    <path id="Trazado_7126" data-name="Trazado 7126" d="M287.816,5459.653a2.285,2.285,0,1,0,0-4.57h0a2.285,2.285,0,0,0,0,4.57Zm0,0"/>
  </g>
</svg>
