<svg xmlns="http://www.w3.org/2000/svg" width="103.879" height="117" viewBox="0 0 103.879 117">
  <g id="Grupo_9511" data-name="Grupo 9511" transform="translate(-235.877 -7791.791)">
    <path id="Trazado_7193" data-name="Trazado 7193" d="M255.715,7879.411l24.346,27.67c15.288,0,30.59-.033,45.886,0,2.947,0,3.122.019,4.1-2.657,2.338-6.427,4.709-12.86,7.119-19.253.836-2.217,1.082-2.249-.323-4.3-5.048-7.347-9.964-15.366-14.68-22.941-1.057-1.7-2.1-1.522-3.914-1.871-9.717-1.879-19.622-3.635-29.308-5.676-1.983-.414-2.585.344-4.224,1.283l-21.436,12.381c-1.479.854-2.942,1.716-4.438,2.532-1.737.947-1.477,1.821-1.743,3.6q-.69,4.617-1.38,9.238Zm0,0" fill="#4a80aa" fill-rule="evenodd"/>
    <path id="Trazado_7194" data-name="Trazado 7194" d="M320.55,7907.068c1.8.007,3.6.007,5.4.013,2.947,0,3.122.019,4.1-2.657,2.337-6.426,4.709-12.859,7.119-19.253.836-2.215,1.082-2.249-.324-4.3-5.047-7.347-9.963-15.366-14.68-22.94-1.056-1.7-2.1-1.523-3.913-1.872l-3.433-.661a4.335,4.335,0,0,1,.693.9c4.716,7.825,9.633,16.111,14.673,23.7,1.413,2.125,1.16,2.158.331,4.444-2.41,6.609-4.782,13.262-7.121,19.9-.815,2.312-1.067,2.681-2.837,2.734Zm0,0" fill="#407093" fill-rule="evenodd"/>
    <path id="Trazado_7195" data-name="Trazado 7195" d="M280.061,7907.081c-.052-.947-.1-1.886-.156-2.832q-.271-4.869-.518-9.75c-.091-1.671-.707-2.339-1.5-3.725-2.171-3.763-4.348-7.528-6.491-11.3-.914-1.607-.894-2.313-2.961-2.164-5.714.408-11.985.512-17.679.679-2.209.066-2.5-.154-3.686,1.879-2.482,4.244-5.385,8.526-8.034,12.686-1.167,1.833-1.678,1.975-.713,4.12,1.251,2.766,2.476,5.869,3.544,8.726.674,1.788,1.607,1.7,3.259,1.685,3.758-.04,7.553,0,11.317,0Zm0,0" fill="#365e7d" fill-rule="evenodd"/>
    <path id="Trazado_7196" data-name="Trazado 7196" d="M280.061,7907.081c-.052-.947-.1-1.886-.156-2.832q-.271-4.869-.518-9.75c-.091-1.671-.707-2.339-1.5-3.725-2.171-3.763-4.348-7.528-6.491-11.3-.914-1.607-.894-2.313-2.961-2.164-1.607.109-3.252.2-4.917.278.48.337.693.965,1.218,1.886,2.15,3.776,4.327,7.541,6.5,11.3.8,1.386,1.412,2.054,1.5,3.725q.254,4.878.519,9.75c.051.946.1,1.885.155,2.832Zm0,0" fill="#2b4d66" fill-rule="evenodd"/>
    <path id="Trazado_7197" data-name="Trazado 7197" d="M303.539,7812.917l3.283,5.689-40.074,23.606a3.284,3.284,0,1,1-3.285-5.688l16.669-9.62Zm0,0" fill="#e2a975" fill-rule="evenodd"/>
    <path id="Trazado_7198" data-name="Trazado 7198" d="M303.985,7809.671l4.127-1.5,3.692-3.018a36.4,36.4,0,0,0-18.346-11.267c-3.622-.848-.875,1.024.227,2.074a52.071,52.071,0,0,1,4.994,5.68,66.213,66.213,0,0,1,4.827,7.186c.161.278.324.557.479.841Zm6.284,10.877,2.941-2.9,4.873-1.612c2.241,7.061,2.759,14.8.459,21.922-.926,2.871-1.192-.1-1.438-1.159a61.879,61.879,0,0,0-6.421-15.536c-.136-.239-.278-.48-.414-.713Zm0,0" fill="#dcebf0" fill-rule="evenodd"/>
    <path id="Trazado_7199" data-name="Trazado 7199" d="M302.087,7810.766l11.623-6.7a1.327,1.327,0,0,1,1.814.485l4.949,8.571a1.335,1.335,0,0,1-.486,1.821l-11.622,6.7a1.332,1.332,0,0,1-1.82-.485l-4.944-8.571a1.335,1.335,0,0,1,.486-1.821Zm0,0" fill="#d0e2e7" fill-rule="evenodd"/>
    <path id="Trazado_7200" data-name="Trazado 7200" d="M309.868,7806.277l3.842-2.215a1.327,1.327,0,0,1,1.814.485l4.949,8.571a1.335,1.335,0,0,1-.486,1.821l-11.622,6.7a1.332,1.332,0,0,1-1.82-.485l-1-1.73,7.788-4.489a1.347,1.347,0,0,0,.486-1.821Zm0,0" fill="#b4d0d5" fill-rule="evenodd"/>
    <path id="Trazado_7201" data-name="Trazado 7201" d="M324.3,7845.043a1.715,1.715,0,0,1,2.922,1.795l-2.274,3.705a1.714,1.714,0,1,1-2.921-1.794Zm-15.917.661a1.714,1.714,0,0,1,2.922-1.794l2.274,3.7a1.714,1.714,0,0,1-2.922,1.794Zm7.7.24a1.717,1.717,0,0,1,3.434,0v3.7a1.717,1.717,0,0,1-3.434,0Zm-7.016-41.183a36.54,36.54,0,0,0-7.871-6.012,31.511,31.511,0,0,0-4.478-2.079c.824.9,1.639,1.845,2.431,2.818a66.643,66.643,0,0,1,5.454,7.85Zm-5.805,7.3q2.283,3.956,4.574,7.917,5.481-3.168,10.961-6.329l-4.567-7.923q-5.481,3.166-10.968,6.335Zm-1.613-3.019a62.739,62.739,0,0,0-5.157-7.4,56.267,56.267,0,0,0-6.568-6.86,1.708,1.708,0,0,1,1.341-2.98,32.306,32.306,0,0,1,11.6,3.958,40.184,40.184,0,0,1,9.264,7.231l1.866-1.076a1.7,1.7,0,0,1,2.338.622l6.278,10.878a1.706,1.706,0,0,1-.719,2.384l-1.781,1.03a39.985,39.985,0,0,1,1.631,11.634,32.288,32.288,0,0,1-2.363,12.025,1.711,1.711,0,0,1-3.259-.324,56.307,56.307,0,0,0-2.657-9.122,63.52,63.52,0,0,0-3.828-8.163l-1.581.907a1.7,1.7,0,0,1-2.325-.629l-.648-1.114L267.6,7843.7a4.992,4.992,0,1,1-4.9-8.7l15.29-8.824a1.7,1.7,0,1,1,1.7,2.954l-15.282,8.824a1.608,1.608,0,0,0-.817,1.016,1.575,1.575,0,0,0,2.3,1.77l37.491-21.644-1.575-2.729-15.385,8.883a1.712,1.712,0,0,1-1.718-2.961L300.1,7813.4l-.648-1.122a1.705,1.705,0,0,1,.629-2.325Zm15.412,9.556-4.463,2.572a66.687,66.687,0,0,1,4.068,8.655q.67,1.758,1.225,3.511a31.317,31.317,0,0,0,.44-4.911,36.512,36.512,0,0,0-1.27-9.827Zm-74.488,90.192a1.717,1.717,0,0,1-1.588-1.069l-4.968-12.212a1.7,1.7,0,0,1,.122-1.6l3.234-5.1a1.712,1.712,0,1,1,2.888,1.84L239.513,7895l4.218,10.365h34.522l-.641-11.641L269.15,7879q-9.987.378-19.972.752l-2.753,4.334a1.711,1.711,0,1,1-2.89-1.833l3.227-5.093a1.714,1.714,0,0,1,1.387-.79l6.322-.234,1.347-9.018a1.711,1.711,0,0,1,.837-1.23l11.589-6.686a1.707,1.707,0,0,1,1.71,2.954l-10.871,6.278L257.956,7876l12.1-.454a1.722,1.722,0,0,1,1.542.862l9.127,15.878a1.71,1.71,0,0,1,.279.849l.674,12.225h46.191l8.273-22.383-15.886-24.793-32.547-6.277-11.033,6.368a1.71,1.71,0,0,1-1.71-2.961l11.538-6.66a1.692,1.692,0,0,1,1.225-.226l33.894,6.529a1.708,1.708,0,0,1,1.115.758l16.714,26.089a1.7,1.7,0,0,1,.194,1.562l-8.947,24.209a1.716,1.716,0,0,1-1.639,1.212Zm64.55-35.282"/>
  </g>
</svg>
