<svg xmlns="http://www.w3.org/2000/svg" width="172.236" height="172.236" viewBox="0 0 172.236 172.236">
  <g id="Grupo_8133" data-name="Grupo 8133" transform="translate(-353.76 -3027.137)">
    <path id="Trazado_1275" data-name="Trazado 1275" d="M526,3113.255a86.118,86.118,0,1,1-86.118-86.118A86.118,86.118,0,0,1,526,3113.255Zm0,0" fill="#5fc6ff"/>
    <g id="Grupo_8132" data-name="Grupo 8132">
      <path id="Trazado_1276" data-name="Trazado 1276" d="M447.781,3052.211h-8.42a46.309,46.309,0,0,0-46.309,46.309l2.105,16.84-8.793,13.19a4.21,4.21,0,0,0,3.038,6.525l12.07,1.335,1.263,16.36a10.525,10.525,0,0,0,11.3,9.687c.166-.013.333-.03.5-.051l8-.737v12.63h54.729v-11.112a42.093,42.093,0,0,1,4.446-18.827l10.174-20.346c1.46-2.922,2.22-10.759,2.22-9.414v-16.08a46.309,46.309,0,0,0-46.309-46.309Z" fill="#f9cabe"/>
      <path id="Trazado_1277" data-name="Trazado 1277" d="M422.522,3100.625h36.837v12.63H430.941a8.419,8.419,0,0,1-8.419-8.42v-4.21Z" fill="#e7393c"/>
      <path id="Trazado_1278" data-name="Trazado 1278" d="M439.361,3113.255l13.415,18.781a4.21,4.21,0,0,0,7.635-2.448v-16.333Z" fill="#d93534"/>
      <path id="Trazado_1279" data-name="Trazado 1279" d="M464.621,3119.57h-6.315a6.315,6.315,0,0,1-6.315-6.315v-12.63h29.47v2.1a16.841,16.841,0,0,1-16.84,16.84Z" fill="#e7393c"/>
      <path id="Trazado_1280" data-name="Trazado 1280" d="M430.941,3069.051H456.2a25.259,25.259,0,0,1,25.26,25.259v8.42H409.892a4.21,4.21,0,0,1-4.21-4.21v-4.21a25.259,25.259,0,0,1,25.259-25.259Z" fill="#ea565d"/>
      <path id="Trazado_1281" data-name="Trazado 1281" d="M416.207,3092.205v2.1a2.1,2.1,0,0,0,4.21,0v-2.1a10.538,10.538,0,0,0-10.525-10.525,2.068,2.068,0,0,0-.962.261c-.394.7-.752,1.419-1.08,2.158a2.08,2.08,0,0,0,2.042,1.791,6.316,6.316,0,0,1,6.315,6.315Z" fill="#e7393c"/>
      <path id="Trazado_1282" data-name="Trazado 1282" d="M430.941,3098.52a2.105,2.105,0,0,1-2.105-2.1,8.42,8.42,0,0,1,8.42-8.42,2.1,2.1,0,0,1,0,4.21,4.21,4.21,0,0,0-4.21,4.21,2.1,2.1,0,0,1-2.1,2.1Z" fill="#e7393c"/>
      <path id="Trazado_1283" data-name="Trazado 1283" d="M435.151,3073.261a2.1,2.1,0,0,1-2.105,2.1h-2.1a2.1,2.1,0,1,0,0,4.21h2.1a6.277,6.277,0,0,0,3.547-1.095,10.491,10.491,0,0,0,9.083,5.3h2.105a2.1,2.1,0,1,0,0-4.209h-2.105a6.316,6.316,0,0,1-6.315-6.315v-4.21h-4.21v4.21Z" fill="#e7393c"/>
      <path id="Trazado_1284" data-name="Trazado 1284" d="M435.151,3092.205h-2.105a8.419,8.419,0,0,1-8.419-8.42,2.1,2.1,0,1,1,4.209,0,4.21,4.21,0,0,0,4.21,4.21h2.105a2.1,2.1,0,1,1,0,4.21Z" fill="#e7393c"/>
      <path id="Trazado_1285" data-name="Trazado 1285" d="M451.913,3096.655a8.737,8.737,0,0,1-5.424-1.684,8.337,8.337,0,0,1-2.918-6.976,2.1,2.1,0,1,1,4.21,0,4.431,4.431,0,0,0,1.3,3.663,6.311,6.311,0,0,0,4.505.61,2.105,2.105,0,0,1,1.023,4.084,11.822,11.822,0,0,1-2.7.3Z" fill="#e7393c"/>
      <path id="Trazado_1286" data-name="Trazado 1286" d="M466.726,3092.205a2.1,2.1,0,1,0,0,4.21,4.21,4.21,0,0,1,4.21,4.21v2.1l.057.878h4.153v-2.983a8.42,8.42,0,0,0-8.42-8.42Z" fill="#e7393c"/>
      <path id="Trazado_1287" data-name="Trazado 1287" d="M462.516,3090.1a2.105,2.105,0,0,1-2.1-2.1v-2.105a4.21,4.21,0,0,0-4.21-4.21,2.1,2.1,0,1,1,0-4.209,8.419,8.419,0,0,1,8.42,8.419V3088a2.1,2.1,0,0,1-2.105,2.1Z" fill="#e7393c"/>
      <path id="Trazado_1288" data-name="Trazado 1288" d="M466.726,3090.1a2.105,2.105,0,0,0,0-4.21,16.86,16.86,0,0,0-16.84,16.84v.615h4.21v-.615a12.645,12.645,0,0,1,12.63-12.63Z" fill="#e7393c"/>
    </g>
  </g>
</svg>
