<svg xmlns="http://www.w3.org/2000/svg" width="172.236" height="172.236" viewBox="0 0 172.236 172.236">
  <g id="Grupo_8135" data-name="Grupo 8135" transform="translate(-916.074 -3027.137)">
    <path id="Trazado_1289" data-name="Trazado 1289" d="M1088.31,3113.255a86.118,86.118,0,1,1-86.118-86.118,86.118,86.118,0,0,1,86.118,86.118Zm0,0" fill="#5fc6ff"/>
    <g id="Grupo_8134" data-name="Grupo 8134">
      <path id="Trazado_1290" data-name="Trazado 1290" d="M1044.234,3072.174h0a5.539,5.539,0,0,0-7.1,3.314l-8.817,23.306a2.132,2.132,0,0,1-1.994,1.377h-1.147a2.132,2.132,0,0,1-2.116-2.388l3.833-31.647a5.894,5.894,0,0,0-11.712-1.332l-3.5,28.9a2.132,2.132,0,0,1-2.116,1.875h0a2.131,2.131,0,0,1-2.132-2.131v-35.2a5.985,5.985,0,0,0-5.678-6.031,5.893,5.893,0,0,0-6.109,5.889v35.343a2.131,2.131,0,0,1-2.131,2.131h-.711a2.131,2.131,0,0,1-2.121-1.915l-2.961-29.106a5.893,5.893,0,1,0-11.733,1.121l4.127,38.8v6.283l-14.192-14.192a7.347,7.347,0,0,0-10.39,0h0a7.349,7.349,0,0,0,0,10.39l14.386,14.385,10.2,15.516V3174.3h47.624v-22.042a18.294,18.294,0,0,1,3.839-11.214h0a18.3,18.3,0,0,0,3.839-11.215v-18.5l12.128-32.055a5.539,5.539,0,0,0-3.315-7.1Z" fill="#f9cabe"/>
      <path id="Trazado_1291" data-name="Trazado 1291" d="M1044.234,3072.174h0a5.539,5.539,0,0,0-7.1,3.314l-8.817,23.306a2.132,2.132,0,0,1-1.994,1.377h-1.147a2.132,2.132,0,0,1-2.116-2.388l3.833-31.647a5.894,5.894,0,0,0-11.712-1.332l-3.5,28.9a2.132,2.132,0,0,1-2.116,1.875h0a2.131,2.131,0,0,1-2.132-2.131v-35.2a5.985,5.985,0,0,0-5.678-6.031,5.893,5.893,0,0,0-6.109,5.889v35.343a2.131,2.131,0,0,1-2.131,2.131h-.711a2.131,2.131,0,0,1-2.121-1.915l-2.961-29.106a5.893,5.893,0,1,0-11.733,1.121l4.127,38.8v6.283l-14.192-14.192a7.347,7.347,0,0,0-10.39,0h0a7.349,7.349,0,0,0,0,10.39l14.386,14.385,10.2,15.516V3174.3h47.624v-22.042a18.294,18.294,0,0,1,3.839-11.214h0a18.3,18.3,0,0,0,3.839-11.215v-18.5l12.128-32.055a5.539,5.539,0,0,0-3.315-7.1Z" fill="#f9cabe"/>
      <path id="Trazado_1292" data-name="Trazado 1292" d="M1034.051,3136.765c-.064.153-.127.305-.2.458-.032.075-.067.15-.1.225-.046.107-.095.211-.147.314s-.1.2-.148.3a18.01,18.01,0,0,1-1.877,2.982,18.3,18.3,0,0,0-3.84,11.214v5.98l-47.624-47.474v-3c34.339.524,53.933,29,53.933,29Z" fill="#e6e6e6"/>
      <path id="Trazado_1293" data-name="Trazado 1293" d="M980.119,3136.766v14.61h47.647a18.292,18.292,0,0,1,3.816-10.333h0a18.277,18.277,0,0,0,2.469-4.277Z" fill="#fff"/>
      <path id="Trazado_1294" data-name="Trazado 1294" d="M1035.42,3111.774v18.053a18.3,18.3,0,0,1-1.369,6.938s-19.594-28.475-53.933-29v-3.284l-.335-3.146c12.607-.268,35.7-.928,55.637,10.439Z" fill="#fff"/>
      <path id="Trazado_1295" data-name="Trazado 1295" d="M980.119,3151.375v14.61h68.767a2.113,2.113,0,0,0,2.113-2.113v-10.383a2.114,2.114,0,0,0-2.113-2.114Z" fill="#fff"/>
      <path id="Trazado_1296" data-name="Trazado 1296" d="M980.119,3151.375v14.61h47.623v-13.728c0-.294.01-.588.024-.882Z" fill="#e6e6e6"/>
    </g>
  </g>
</svg>
