<svg xmlns="http://www.w3.org/2000/svg" width="171.303" height="171.303" viewBox="0 0 171.303 171.303">
  <g id="Grupo_8161" data-name="Grupo 8161" transform="translate(-354.227 -4697.054)">
    <path id="Trazado_1475" data-name="Trazado 1475" d="M525.53,4782.706a85.652,85.652,0,1,1-85.652-85.652,85.65,85.65,0,0,1,85.652,85.652Zm0,0" fill="#5fc6ff"/>
    <path id="Trazado_1476" data-name="Trazado 1476" d="M482.073,4847.472v9.785a85.568,85.568,0,0,1-84.393,0v-9.785a31.785,31.785,0,0,1,29.226-31.723q1.29-.1,2.6-.1h20.728a31.807,31.807,0,0,1,31.835,31.827Zm0,0" fill="#0c85a5"/>
    <path id="Trazado_1477" data-name="Trazado 1477" d="M482.075,4847.472v9.785a85.36,85.36,0,0,1-40.019,11.073c-.723.017-1.451.027-2.178.027a85.605,85.605,0,0,1-25.94-4v-16.886a31.824,31.824,0,0,1,31.834-31.827h4.469a31.829,31.829,0,0,1,31.834,31.827Zm0,0" fill="#1da2dd"/>
    <path id="Trazado_1478" data-name="Trazado 1478" d="M479.775,4835.582c-6.005,5.062-16.308,8.4-28.009,8.4-18.536,0-33.562-8.372-33.562-18.7a12.712,12.712,0,0,1,3.909-8.767,31.736,31.736,0,0,1,4.793-.759q1.29-.1,2.6-.1h20.728a31.768,31.768,0,0,1,29.537,19.937Zm0,0" fill="#d39272"/>
    <path id="Trazado_1479" data-name="Trazado 1479" d="M429.51,4815.645h16.264a31.8,31.8,0,0,0-25.972,13.417c-.192.273-.385.548-.567.828a11.024,11.024,0,0,1-1.031-4.615,12.712,12.712,0,0,1,3.909-8.767,31.736,31.736,0,0,1,4.793-.759q1.29-.1,2.6-.1Zm0,0" fill="#bf7c5e"/>
    <path id="Trazado_1480" data-name="Trazado 1480" d="M451.233,4803.383v13.937a11.357,11.357,0,0,1-22.713,0v-13.937Zm0,0" fill="#bf7c5e"/>
    <path id="Trazado_1481" data-name="Trazado 1481" d="M451.233,4816.438v.882a11.357,11.357,0,0,1-8,10.848,11.353,11.353,0,0,1-7.9-9.368q1.137.068,2.287.069a39.262,39.262,0,0,0,13.616-2.431Zm0,0" fill="#d39272"/>
    <path id="Trazado_1482" data-name="Trazado 1482" d="M408.725,4780.543a10.554,10.554,0,1,1-8.87-10.426,10.562,10.562,0,0,1,8.87,10.426Zm0,0" fill="#d39272"/>
    <path id="Trazado_1483" data-name="Trazado 1483" d="M408.725,4780.543a10.562,10.562,0,0,1-8.87,10.425,39.489,39.489,0,0,1,0-20.851,10.562,10.562,0,0,1,8.87,10.426Zm0,0" fill="#bf7c5e"/>
    <path id="Trazado_1484" data-name="Trazado 1484" d="M401.938,4780.543a3.774,3.774,0,1,1-3.775-3.774,3.774,3.774,0,0,1,3.775,3.774Zm0,0" fill="#bf7c5e"/>
    <path id="Trazado_1485" data-name="Trazado 1485" d="M471.028,4780.543a10.553,10.553,0,1,0,8.869-10.426,10.562,10.562,0,0,0-8.869,10.426Zm0,0" fill="#d39272"/>
    <path id="Trazado_1486" data-name="Trazado 1486" d="M471.028,4780.543a10.562,10.562,0,0,0,8.869,10.425,39.462,39.462,0,0,0,0-20.851,10.561,10.561,0,0,0-8.869,10.426Zm0,0" fill="#bf7c5e"/>
    <path id="Trazado_1487" data-name="Trazado 1487" d="M479.17,4759.968v14.963a39.291,39.291,0,0,1-32.987,38.783c-.063.011-.129.021-.192.033a38.737,38.737,0,0,1-6.115.474,39.292,39.292,0,0,1-39.292-39.29v-14.963a39.27,39.27,0,0,1,39.292-39.295h0a39.263,39.263,0,0,1,39.29,39.295Zm0,0" fill="#bf7c5e"/>
    <path id="Trazado_1488" data-name="Trazado 1488" d="M485.364,4780.543a3.775,3.775,0,1,1-3.775-3.774,3.774,3.774,0,0,1,3.775,3.774Zm0,0" fill="#bf7c5e"/>
    <path id="Trazado_1489" data-name="Trazado 1489" d="M479.17,4759.968v14.963a39.294,39.294,0,0,1-32.988,38.785c-.063.01-.13.02-.192.031a39.3,39.3,0,0,1-33.171-38.816v-14.963A39.3,39.3,0,0,1,446,4721.149a39.3,39.3,0,0,1,33.174,38.819Zm0,0" fill="#d39272"/>
    <path id="Trazado_1490" data-name="Trazado 1490" d="M479.17,4759.968v9.82l-6.078-2.72-3.227-17.518a8.875,8.875,0,0,0-10.653-7.055l-12.351,2.744a32.1,32.1,0,0,1-13.963,0l-12.352-2.744a8.874,8.874,0,0,0-10.651,7.055l-3.227,17.518-6.084,2.724v-9.824a39.27,39.27,0,0,1,39.292-39.295h0a39.263,39.263,0,0,1,39.29,39.295Zm0,0" fill="#bf7c5e"/>
    <path id="Trazado_1491" data-name="Trazado 1491" d="M439.876,4796.031a19.855,19.855,0,0,1-9.58-2.473,1.748,1.748,0,1,1,1.685-3.064,16.309,16.309,0,0,0,15.79,0,1.748,1.748,0,0,1,1.683,3.064,19.851,19.851,0,0,1-9.578,2.473Zm0,0" fill="#bf7c5e"/>
    <path id="Trazado_1492" data-name="Trazado 1492" d="M444.332,4783.867h-8.914a1.924,1.924,0,0,1,0-3.847h8.914a1.924,1.924,0,1,1,0,3.847Zm0,0" fill="#bf7c5e"/>
    <path id="Trazado_1493" data-name="Trazado 1493" d="M431.508,4772.643a4.457,4.457,0,1,1-4.457-4.457,4.456,4.456,0,0,1,4.457,4.457Zm0,0" fill="#2f373b"/>
    <path id="Trazado_1494" data-name="Trazado 1494" d="M457.16,4772.643a4.458,4.458,0,1,1-4.458-4.457,4.457,4.457,0,0,1,4.458,4.457Zm0,0" fill="#2f373b"/>
    <path id="Trazado_1495" data-name="Trazado 1495" d="M430.6,4771.856a1.91,1.91,0,1,1-1.909-1.91,1.91,1.91,0,0,1,1.909,1.91Zm0,0" fill="#fff"/>
    <path id="Trazado_1496" data-name="Trazado 1496" d="M456.47,4771.856a1.91,1.91,0,1,1-1.911-1.91,1.911,1.911,0,0,1,1.911,1.91Zm0,0" fill="#fff"/>
    <path id="Trazado_1497" data-name="Trazado 1497" d="M441.84,4716.376h-3.927a4.447,4.447,0,0,0-4.447,4.446v16.514a4.446,4.446,0,0,0,4.447,4.445h3.927a4.446,4.446,0,0,0,4.446-4.445v-16.514a4.446,4.446,0,0,0-4.446-4.446Zm0,0" fill="#2f373b"/>
    <path id="Trazado_1498" data-name="Trazado 1498" d="M469.531,4725.818l-3.866-1.879a4.263,4.263,0,0,0-5.694,1.971l-6.448,13.275a4.258,4.258,0,0,0,1.971,5.694l3.866,1.878a4.257,4.257,0,0,0,5.692-1.971l6.45-13.274a4.26,4.26,0,0,0-1.971-5.694Zm0,0" fill="#2f373b"/>
    <path id="Trazado_1499" data-name="Trazado 1499" d="M484.987,4751.773l-3.216-4.275a3.734,3.734,0,0,0-5.229-.738l-7.2,5.414a3.735,3.735,0,0,0-.737,5.23l3.216,4.274a3.732,3.732,0,0,0,5.229.738l7.2-5.414a3.735,3.735,0,0,0,.737-5.229Zm0,0" fill="#2f373b"/>
    <path id="Trazado_1500" data-name="Trazado 1500" d="M410.221,4725.818l3.866-1.879a4.264,4.264,0,0,1,5.7,1.971l6.448,13.275a4.26,4.26,0,0,1-1.971,5.694l-3.866,1.878a4.258,4.258,0,0,1-5.693-1.971l-6.45-13.274a4.263,4.263,0,0,1,1.971-5.694Zm0,0" fill="#151a1c"/>
    <path id="Trazado_1501" data-name="Trazado 1501" d="M394.765,4751.773l3.218-4.275a3.733,3.733,0,0,1,5.229-.738l7.193,5.414a3.734,3.734,0,0,1,.739,5.23l-3.218,4.274a3.732,3.732,0,0,1-5.229.738L395.5,4757a3.734,3.734,0,0,1-.739-5.229Zm0,0" fill="#151a1c"/>
    <path id="Trazado_1502" data-name="Trazado 1502" d="M413.51,4847.472v16.749a85.088,85.088,0,0,1-15.827-6.964v-9.785Zm0,0" fill="#bf7c5e"/>
    <path id="Trazado_1503" data-name="Trazado 1503" d="M439.877,4803.693l3.359-5.819h-6.719Zm0,0" fill="#2f373b"/>
  </g>
</svg>
