<svg xmlns="http://www.w3.org/2000/svg" width="171.303" height="171.303" viewBox="0 0 171.303 171.303">
  <g id="Grupo_8162" data-name="Grupo 8162" transform="translate(-916.541 -4697.054)">
    <path id="Trazado_1504" data-name="Trazado 1504" d="M1087.844,4782.706a85.651,85.651,0,1,1-85.652-85.652,85.651,85.651,0,0,1,85.652,85.652Zm0,0" fill="#5fc6ff"/>
    <path id="Trazado_1505" data-name="Trazado 1505" d="M1058,4752.863a55.751,55.751,0,1,1-40.576-53.7,55.829,55.829,0,0,1,40.576,53.7Zm0,0" fill="#151a1c"/>
    <path id="Trazado_1506" data-name="Trazado 1506" d="M1058,4752.863a55.829,55.829,0,0,1-40.576,53.7,55.826,55.826,0,0,1,0-107.406,55.833,55.833,0,0,1,40.576,53.7Zm0,0" fill="#2f373b"/>
    <path id="Trazado_1507" data-name="Trazado 1507" d="M1044.389,4847.472v9.785a85.141,85.141,0,0,1-39.4,11.055c-.93.031-1.859.045-2.8.045s-1.871-.014-2.8-.045a85.182,85.182,0,0,1-39.4-11.055v-9.785a31.829,31.829,0,0,1,29.227-31.723c.861-.069,1.727-.1,2.6-.1h20.727a31.78,31.78,0,0,1,31.834,31.827Zm0,0" fill="#dd104f"/>
    <path id="Trazado_1508" data-name="Trazado 1508" d="M1044.389,4847.472v9.785a85,85,0,0,1-34.309,10.737q-3.9.361-7.886.363T994.3,4868a85.367,85.367,0,0,1-18.048-3.639v-16.886a31.829,31.829,0,0,1,31.834-31.827h4.467a31.828,31.828,0,0,1,31.834,31.827Zm0,0" fill="#f73b6c"/>
    <path id="Trazado_1509" data-name="Trazado 1509" d="M1004.99,4823.864v44.448c-.93.031-1.859.045-2.8.045s-1.871-.014-2.8-.045v-44.448Zm0,0" fill="#dd104f"/>
    <path id="Trazado_1510" data-name="Trazado 1510" d="M1002.19,4828.675l-14.331,7.963-4.359-20.275,8.9-5.245" fill="#f2efea"/>
    <path id="Trazado_1511" data-name="Trazado 1511" d="M1002.19,4828.675l14.329,7.963,4.36-20.275-8.9-5.245" fill="#f2efea"/>
    <path id="Trazado_1512" data-name="Trazado 1512" d="M971.038,4780.543a10.553,10.553,0,1,1-8.869-10.426,10.56,10.56,0,0,1,8.869,10.426Zm0,0" fill="#d39272"/>
    <path id="Trazado_1513" data-name="Trazado 1513" d="M971.038,4780.543a10.56,10.56,0,0,1-8.869,10.425,39.489,39.489,0,0,1,0-20.851,10.562,10.562,0,0,1,8.869,10.426Zm0,0" fill="#bf7c5e"/>
    <path id="Trazado_1514" data-name="Trazado 1514" d="M964.252,4780.543a3.775,3.775,0,1,1-3.775-3.774,3.774,3.774,0,0,1,3.775,3.774Zm0,0" fill="#bf7c5e"/>
    <path id="Trazado_1515" data-name="Trazado 1515" d="M1033.342,4780.543a10.553,10.553,0,1,0,8.869-10.426,10.56,10.56,0,0,0-8.869,10.426Zm0,0" fill="#d39272"/>
    <path id="Trazado_1516" data-name="Trazado 1516" d="M1033.342,4780.543a10.56,10.56,0,0,0,8.869,10.425,39.463,39.463,0,0,0,0-20.851,10.562,10.562,0,0,0-8.869,10.426Zm0,0" fill="#bf7c5e"/>
    <path id="Trazado_1517" data-name="Trazado 1517" d="M1047.677,4780.543a3.774,3.774,0,1,1-3.774-3.774,3.773,3.773,0,0,1,3.774,3.774Zm0,0" fill="#bf7c5e"/>
    <path id="Trazado_1518" data-name="Trazado 1518" d="M1013.547,4803.384v13.936a11.357,11.357,0,0,1-22.713,0v-13.936Zm0,0" fill="#bf7c5e"/>
    <path id="Trazado_1519" data-name="Trazado 1519" d="M1013.547,4816.438v.882a8.211,8.211,0,1,1-15.9,1.48q1.137.068,2.287.069a39.242,39.242,0,0,0,13.616-2.431Zm0,0" fill="#d39272"/>
    <path id="Trazado_1520" data-name="Trazado 1520" d="M1041.485,4774.931a39.3,39.3,0,0,1-32.988,38.785,38.728,38.728,0,0,1-6.307.505,39.3,39.3,0,0,1-33.732-59.452h67.465a39.08,39.08,0,0,1,5.562,20.162Zm0,0" fill="#bf7c5e"/>
    <path id="Trazado_1521" data-name="Trazado 1521" d="M1041.485,4774.931a39.3,39.3,0,0,1-32.988,38.785,39.3,39.3,0,0,1-27.426-58.947h54.852a39.008,39.008,0,0,1,5.369,16.242q.19,1.934.193,3.92Zm0,0" fill="#d39272"/>
    <rect id="Rect치ngulo_2959" data-name="Rect치ngulo 2959" width="10.857" height="29.128" transform="translate(957.652 4741.136)" fill="#151a1c"/>
    <rect id="Rect치ngulo_2960" data-name="Rect치ngulo 2960" width="10.857" height="29.128" transform="translate(1035.679 4741.136)" fill="#2f373b"/>
    <path id="Trazado_1522" data-name="Trazado 1522" d="M1028.936,4785.248a4.895,4.895,0,1,1-4.894-4.9,4.894,4.894,0,0,1,4.894,4.9Zm0,0" fill="#bf7c5e"/>
    <path id="Trazado_1523" data-name="Trazado 1523" d="M985.236,4785.248a4.895,4.895,0,1,1-4.9-4.9,4.893,4.893,0,0,1,4.9,4.9Zm0,0" fill="#bf7c5e"/>
    <path id="Trazado_1524" data-name="Trazado 1524" d="M1023.293,4771.613a6.527,6.527,0,1,0-13.053,0" fill="#bf7c5e"/>
    <path id="Trazado_1525" data-name="Trazado 1525" d="M994.145,4771.613a6.526,6.526,0,1,0-13.052,0" fill="#bf7c5e"/>
    <path id="Trazado_1526" data-name="Trazado 1526" d="M992.077,4774.391a4.458,4.458,0,1,1-4.457-4.458,4.458,4.458,0,0,1,4.457,4.458Zm0,0" fill="#2f373b"/>
    <path id="Trazado_1527" data-name="Trazado 1527" d="M1021.224,4774.391a4.457,4.457,0,1,1-4.457-4.458,4.458,4.458,0,0,1,4.457,4.458Zm0,0" fill="#2f373b"/>
    <path id="Trazado_1528" data-name="Trazado 1528" d="M1006.65,4785.614h-8.914a1.923,1.923,0,0,1,0-3.847h8.914a1.923,1.923,0,0,1,0,3.847Zm0,0" fill="#bf7c5e"/>
    <path id="Trazado_1529" data-name="Trazado 1529" d="M1002.194,4797.779a19.856,19.856,0,0,1-9.58-2.474,1.748,1.748,0,0,1,1.683-3.064,16.308,16.308,0,0,0,15.792,0,1.748,1.748,0,0,1,1.683,3.064,19.852,19.852,0,0,1-9.578,2.474Zm0,0" fill="#bf7c5e"/>
    <path id="Trazado_1530" data-name="Trazado 1530" d="M991.168,4773.6a1.91,1.91,0,1,1-1.91-1.91,1.911,1.911,0,0,1,1.91,1.91Zm0,0" fill="#fff"/>
    <path id="Trazado_1531" data-name="Trazado 1531" d="M1020.534,4773.6a1.909,1.909,0,1,1-1.91-1.91,1.91,1.91,0,0,1,1.91,1.91Zm0,0" fill="#fff"/>
    <path id="Trazado_1532" data-name="Trazado 1532" d="M1043.212,4746.749a38.13,38.13,0,0,1-.4,5.492c-2.773-19.115-19.9-33.83-40.627-33.83a42.483,42.483,0,0,0-21.119,5.6,39.3,39.3,0,0,0-19.511,28.219,38.247,38.247,0,0,1-.391-5.479,38.965,38.965,0,0,1,19.9-33.69,42.427,42.427,0,0,1,21.119-5.6c22.658,0,41.022,17.591,41.022,39.29Zm0,0" fill="#ffe05c"/>
    <path id="Trazado_1533" data-name="Trazado 1533" d="M981.071,4713.059v10.95a39.3,39.3,0,0,0-19.511,28.219,38.247,38.247,0,0,1-.391-5.479,38.965,38.965,0,0,1,19.9-33.69Zm0,0" fill="#e89f18"/>
  </g>
</svg>
