<svg xmlns="http://www.w3.org/2000/svg" width="260.579" height="259.404" viewBox="0 0 260.579 259.404">
  <g id="Grupo_8701" data-name="Grupo 8701" transform="translate(-850.671 -3177.849)">
    <path id="Trazado_3516" data-name="Trazado 3516" d="M1084.165,3238.612a125.7,125.7,0,0,0-210.44-4.273l-1.364-.931a127.347,127.347,0,0,1,213.205,4.329l-1.4.875" fill="#6bc4ed"/>
    <path id="Trazado_3517" data-name="Trazado 3517" d="M1062.848,3399.677l-1.107-1.227a125.764,125.764,0,0,0,40.369-109.778c-.37-2.8-.838-5.612-1.391-8.365l1.621-.325c.559,2.79,1.032,5.639,1.407,8.473a127.422,127.422,0,0,1-40.9,111.222" fill="#6bc4ed"/>
    <path id="Trazado_3518" data-name="Trazado 3518" d="M994.714,3436.143a127.384,127.384,0,0,1-139.023-161.655l1.587.46A125.733,125.733,0,0,0,994.5,3434.5a126.158,126.158,0,0,0,30.1-7.838l.61,1.537a127.877,127.877,0,0,1-30.5,7.94" fill="#6bc4ed"/>
    <path id="Trazado_3519" data-name="Trazado 3519" d="M971.946,3229.113a76,76,0,1,0,85.311,65.368,76.083,76.083,0,0,0-85.311-65.368m23.582,178.172a103.729,103.729,0,1,1,89.222-116.443,103.847,103.847,0,0,1-89.222,116.443" fill="#6bc4ed"/>
    <path id="Trazado_3520" data-name="Trazado 3520" d="M1080.449,3259.4a15.4,15.4,0,1,0,15.4-15.4,15.4,15.4,0,0,0-15.4,15.4" fill="#6bc4ed"/>
    <path id="Trazado_3521" data-name="Trazado 3521" d="M1029.947,3414.945a15.4,15.4,0,1,0,15.4-15.4,15.4,15.4,0,0,0-15.4,15.4Z" fill="#6bc4ed"/>
    <path id="Trazado_3522" data-name="Trazado 3522" d="M851.268,3256.116a15.4,15.4,0,1,0,15.4-15.4,15.4,15.4,0,0,0-15.4,15.4Z" fill="#6bc4ed"/>
    <path id="Trazado_3523" data-name="Trazado 3523" d="M869.931,3264.765h4.57v-14.309h-4.57v14.309Z" fill="#fff"/>
    <path id="Trazado_3524" data-name="Trazado 3524" d="M864.063,3264.765h4.568v-10.732h-4.568v10.732Z" fill="#fff"/>
    <path id="Trazado_3525" data-name="Trazado 3525" d="M858.194,3264.765h4.569v-7.154h-4.569v7.154Z" fill="#fff"/>
    <path id="Trazado_3526" data-name="Trazado 3526" d="M859.685,3253.687l-.368-.667,11.842-6.538.368.665-11.842,6.54Z" fill="#fff"/>
    <path id="Trazado_3527" data-name="Trazado 3527" d="M869.886,3246.482l1.275,1.575.743-1.812-2.019.237Z" fill="#fff"/>
    <path id="Trazado_3528" data-name="Trazado 3528" d="M1099.332,3262.063a1.661,1.661,0,0,0-.473-1.236,5.021,5.021,0,0,0-1.829-.94v4.128c1.532-.213,2.3-.862,2.3-1.952Zm-5.806-6.591a1.77,1.77,0,0,0,.478,1.294,4.589,4.589,0,0,0,1.655.923v-4.107a3.042,3.042,0,0,0-1.593.664,1.585,1.585,0,0,0-.54,1.226Zm7.612,6.453a3.02,3.02,0,0,1-1.084,2.383,5.571,5.571,0,0,1-3.024,1.182v2.463h-1.371v-2.367a14.056,14.056,0,0,1-2.3-.185,7.269,7.269,0,0,1-1.826-.515v-1.656a10.391,10.391,0,0,0,2.032.642,9.935,9.935,0,0,0,2.1.25v-4.671a7.323,7.323,0,0,1-3.052-1.6,3.266,3.266,0,0,1-.876-2.356,2.835,2.835,0,0,1,1.079-2.282,5.237,5.237,0,0,1,2.849-1.081V3250.2h1.371v1.91a10.829,10.829,0,0,1,3.768.784l-.553,1.392a10.769,10.769,0,0,0-3.215-.743v4.607a12.058,12.058,0,0,1,2.494,1.034,3.5,3.5,0,0,1,1.219,1.157,3.024,3.024,0,0,1,.395,1.587Z" fill="#fff"/>
    <path id="Trazado_3529" data-name="Trazado 3529" d="M1045.065,3417.177a2.391,2.391,0,0,1,0-4.783v.943a1.451,1.451,0,1,0,1.453,1.45h.94a2.392,2.392,0,0,1-2.393,2.39Z" fill="#fff"/>
    <path id="Trazado_3530" data-name="Trazado 3530" d="M1045.065,3420.16a5.372,5.372,0,0,1,0-10.745,5.316,5.316,0,0,1,2.419.573l-.424.838a4.383,4.383,0,0,0-2-.469,4.425,4.425,0,1,0,4.017,2.554l.853-.4a5.376,5.376,0,0,1-4.87,7.648Z" fill="#fff"/>
    <path id="Trazado_3531" data-name="Trazado 3531" d="M1045.065,3423.141a8.354,8.354,0,1,1,4.226-15.564l-.478.813a7.407,7.407,0,1,0,2.571,2.518l.8-.492a8.354,8.354,0,0,1-7.12,12.725Z" fill="#fff"/>
    <path id="Trazado_3532" data-name="Trazado 3532" d="M1045.4,3415.12l-.664-.665,7.922-7.923.664.664-7.922,7.924Z" fill="#fff"/>
    <path id="Trazado_3533" data-name="Trazado 3533" d="M1051.86,3407.543l-.107-2.4.939-.043.109,2.4-.942.042Z" fill="#fff"/>
    <path id="Trazado_3534" data-name="Trazado 3534" d="M1050.661,3408.732l-.088-1.965.941-.04.087,1.961-.94.043Z" fill="#fff"/>
    <path id="Trazado_3535" data-name="Trazado 3535" d="M1052.142,3407.886l-.137-.934,2.378-.346.135.929-2.376.35Z" fill="#fff"/>
    <path id="Trazado_3536" data-name="Trazado 3536" d="M1051.2,3409.286l-.136-.933,1.944-.283.136.931-1.944.284Z" fill="#fff"/>
    <path id="Trazado_3537" data-name="Trazado 3537" d="M886.814,3396.315h-2.268q-1.214-1.308-2.391-2.653h2.21q1.207,1.347,2.449,2.653" fill="#329e8d"/>
    <path id="Trazado_3538" data-name="Trazado 3538" d="M1080.819,3262.768a15.528,15.528,0,0,1,0-6.739v6.739" fill="#329e8d"/>
    <path id="Trazado_3539" data-name="Trazado 3539" d="M1069.292,3343.984a3.759,3.759,0,0,1-3.76,3.76H897.778a3.759,3.759,0,0,1-3.76-3.76V3237.766a3.761,3.761,0,0,1,3.76-3.762h167.754a3.761,3.761,0,0,1,3.76,3.762v106.218" fill="#fff"/>
    <path id="Trazado_3540" data-name="Trazado 3540" d="M1069.292,3237.766a3.761,3.761,0,0,0-3.76-3.762H897.778a3.761,3.761,0,0,0-3.76,3.762v51.1l175.274-51.1" fill="#fff"/>
    <path id="Trazado_3541" data-name="Trazado 3541" d="M1062.153,3340.4h-161v-99.721h161V3340.4" fill="#32b9ff"/>
    <path id="Trazado_3542" data-name="Trazado 3542" d="M1062.153,3286.037v-4.08l.147,4.045-.147.035" fill="azure"/>
    <path id="Trazado_3543" data-name="Trazado 3543" d="M901.175,3324.539l.02-36.313,6.618-.7v35.425l-6.638,1.588m158.694-37.956v-15.125l1.894-.2.39,10.7v4.08l-2.284.546" fill="#8adcff"/>
    <path id="Trazado_3544" data-name="Trazado 3544" d="M1059.869,3234h-1.862l-.023-.024h1.885V3234" fill="#28a7b2"/>
    <path id="Trazado_3545" data-name="Trazado 3545" d="M1058.007,3234h-1.8v-.024h1.776l.023.024" fill="#33bcc9"/>
    <path id="Trazado_3546" data-name="Trazado 3546" d="M1059.869,3240.681h-.577l.577-.168v.168" fill="#aacaf9"/>
    <path id="Trazado_3547" data-name="Trazado 3547" d="M1059.292,3240.681h-3.084V3234h3.66v6.509l-.577.168" fill="#aacaf9"/>
    <path id="Trazado_3548" data-name="Trazado 3548" d="M1052.7,3337.176H918.992a7.163,7.163,0,0,1-7.164-7.162v-.391a7.147,7.147,0,0,0,3.165.734H1049.03a7.178,7.178,0,0,0,7.178-7.178v-35.721l3.661-.875v43.431a7.162,7.162,0,0,1-7.164,7.162m3.5-65.331v-31.164h3.661v30.777l-3.661.387" fill="#2193f9"/>
    <path id="Trazado_3549" data-name="Trazado 3549" d="M1056.208,3287.458v-15.613l3.66-.387v15.125l-3.66.875" fill="#5caef9"/>
    <path id="Trazado_3550" data-name="Trazado 3550" d="M1085.429,3387.909c1.513,4.217-.489,5.753-2.365,5.753H880.245c-1.874,0-2.362-1.28-2.362-3.173l.05-2.785c.7-1.737,17.619-36.549,19.493-36.549h168.46a5.47,5.47,0,0,1,4.684,3.161l14.859,33.593" fill="#283042"/>
    <path id="Trazado_3551" data-name="Trazado 3551" d="M1083.064,3393.662H880.245c-1.874,0-2.362-1.28-2.362-3.173l.034-1.9a2.143,2.143,0,0,0,2.328,1.667h202.819a2.094,2.094,0,0,0,2.34-2.405l.025.057a7.972,7.972,0,0,1,.533,2.643,2.81,2.81,0,0,1-2.9,3.11" fill="#1e2535"/>
    <path id="Trazado_3552" data-name="Trazado 3552" d="M1085.2,3387.094a2.142,2.142,0,0,1-2.132,3.163H880.245a2.144,2.144,0,0,1-2.133-3.163l14.627-36.188a5.477,5.477,0,0,1,4.687-3.162h168.46a5.471,5.471,0,0,1,4.684,3.162l14.626,36.188" fill="#fff"/>
    <path id="Trazado_3553" data-name="Trazado 3553" d="M1000.757,3386.77H962.552l1.176-8.711h35.991l1.038,8.711" fill="#fff"/>
    <path id="Trazado_3554" data-name="Trazado 3554" d="M1002.107,3387.867H961.2l1.4-9.362h1.06l-1.116,8.265h38.205l-.985-8.265h.929l1.406,9.362" fill="#8e95a6"/>
    <path id="Trazado_3555" data-name="Trazado 3555" d="M1000.757,3386.77H962.552l1.116-8.265h36.1l.985,8.265" fill="#bec3ce"/>
    <path id="Trazado_3556" data-name="Trazado 3556" d="M950.683,3356.679H937.4l.072-.684h13.214l.171-3.475h.034l-.2,4.159" fill="#4f576c"/>
    <path id="Trazado_3557" data-name="Trazado 3557" d="M964.319,3356.679H951.367l.033-.684h12.919l.168-3.475h.033l-.2,4.159" fill="#4f576c"/>
    <path id="Trazado_3558" data-name="Trazado 3558" d="M977.458,3356.679H965l.033-.684h12.424l.062-3.475h.012l-.074,4.159" fill="#4f576c"/>
    <path id="Trazado_3559" data-name="Trazado 3559" d="M905.837,3361.451H895.424l.252-.684h10.161l.908-3.407h.182l-1.09,4.091" fill="#4f576c"/>
    <path id="Trazado_3560" data-name="Trazado 3560" d="M991.794,3356.679H978.139l.012-.684h13.643l.052-3.475h.01l-.063,4.159" fill="#4f576c"/>
    <path id="Trazado_3561" data-name="Trazado 3561" d="M907.107,3356.679h-9.924l.253-.684h9.671l.926-3.475h.183l-1.109,4.159" fill="#4f576c"/>
    <path id="Trazado_3562" data-name="Trazado 3562" d="M936.712,3356.679H921.991l.119-.684h14.6l.365-3.475h.072l-.437,4.159" fill="#4f576c"/>
    <path id="Trazado_3563" data-name="Trazado 3563" d="M921.3,3356.679H907.813L908,3356h13.3l.605-3.475h.12l-.725,4.159" fill="#4f576c"/>
    <path id="Trazado_3564" data-name="Trazado 3564" d="M1031.259,3356.679h-12.573l-.153-4.159h.025l.128,3.475H1031.2l.06.684" fill="#4f576c"/>
    <path id="Trazado_3565" data-name="Trazado 3565" d="M1067.531,3361.451h-10.066l-1.087-4.091h.181l.906,3.407h9.789l.276.684" fill="#4f576c"/>
    <path id="Trazado_3566" data-name="Trazado 3566" d="M1070.022,3367.585h-10.928l-1.447-5.454h.181l1.266,4.77h10.65l.278.684" fill="#4f576c"/>
    <path id="Trazado_3567" data-name="Trazado 3567" d="M904.205,3367.585H893.162l.252-.684h10.791l1.27-4.77h.181l-1.451,5.454" fill="#4f576c"/>
    <path id="Trazado_3568" data-name="Trazado 3568" d="M1055.493,3356.679h-10.136l-.681-4.159h.113l.569,3.475h9.955l.182.684" fill="#4f576c"/>
    <path id="Trazado_3569" data-name="Trazado 3569" d="M1044.666,3356.679h-12.722l-.361-4.159h.06l.3,3.475h12.61l.112.684" fill="#4f576c"/>
    <path id="Trazado_3570" data-name="Trazado 3570" d="M1065.6,3356.679h-9.4l-1.105-4.159h.182l.923,3.475h9.121l.278.684" fill="#4f576c"/>
    <path id="Trazado_3571" data-name="Trazado 3571" d="M1004.9,3356.679H992.475l.01-.684h12.4l.008.684" fill="#4f576c"/>
    <path id="Trazado_3572" data-name="Trazado 3572" d="M1018,3356.679h-12.425l-.043-4.159h.007l.036,3.475h12.4l.025.684" fill="#4f576c"/>
    <path id="Trazado_3573" data-name="Trazado 3573" d="M991.723,3361.451H978.053l.012-.684h13.657l.05-3.407h.01l-.06,4.091" fill="#4f576c"/>
    <path id="Trazado_3574" data-name="Trazado 3574" d="M977.371,3361.451h-12.6l.033-.684h12.57l.061-3.407h.012l-.074,4.091" fill="#4f576c"/>
    <path id="Trazado_3575" data-name="Trazado 3575" d="M1018.175,3361.451h-12.544l-.043-4.091h.007l.036,3.407h12.52l.024.684" fill="#4f576c"/>
    <path id="Trazado_3576" data-name="Trazado 3576" d="M902.936,3372.358H891.4l.252-.683h11.284l.906-3.408h.181l-1.087,4.091" fill="#4f576c"/>
    <path id="Trazado_3577" data-name="Trazado 3577" d="M950.451,3361.451H936.9l.072-.684h13.483l.167-3.407h.033l-.2,4.091" fill="#4f576c"/>
    <path id="Trazado_3578" data-name="Trazado 3578" d="M964.085,3361.451H951.133l.033-.684h12.919l.167-3.407h.033l-.2,4.091" fill="#4f576c"/>
    <path id="Trazado_3579" data-name="Trazado 3579" d="M1004.95,3361.451H992.4l.01-.684h12.528l.007.684" fill="#4f576c"/>
    <path id="Trazado_3580" data-name="Trazado 3580" d="M1032.212,3367.585h-13.131l-.2-5.454h.025l.175,4.77h13.071l.06.684" fill="#4f576c"/>
    <path id="Trazado_3581" data-name="Trazado 3581" d="M1018.4,3367.585h-12.7l-.059-5.454h.008l.051,4.77h12.675l.025.684" fill="#4f576c"/>
    <path id="Trazado_3582" data-name="Trazado 3582" d="M1031.676,3361.451h-12.816l-.15-4.091h.025l.124,3.407h12.757l.06.684" fill="#4f576c"/>
    <path id="Trazado_3583" data-name="Trazado 3583" d="M1046.45,3367.585h-13.556l-.475-5.454h.059l.416,4.77h13.445l.112.684" fill="#4f576c"/>
    <path id="Trazado_3584" data-name="Trazado 3584" d="M1056.759,3361.451h-10.622l-.67-4.091h.112l.559,3.407h10.441l.181.684" fill="#4f576c"/>
    <path id="Trazado_3585" data-name="Trazado 3585" d="M1005.016,3367.585h-12.7l.01-.684h12.684l.008.684" fill="#4f576c"/>
    <path id="Trazado_3586" data-name="Trazado 3586" d="M1045.446,3361.451h-13.085l-.358-4.091h.06l.3,3.407h12.974l.112.684" fill="#4f576c"/>
    <path id="Trazado_3587" data-name="Trazado 3587" d="M936.209,3361.451H921.16l.119-.684h14.93l.358-3.407h.072l-.43,4.091" fill="#4f576c"/>
    <path id="Trazado_3588" data-name="Trazado 3588" d="M991.561,3372.358h-13.7l.012-.683h13.69l.053-3.408h.01l-.064,4.091" fill="#4f576c"/>
    <path id="Trazado_3589" data-name="Trazado 3589" d="M949.916,3372.358h-14.17l.072-.683h14.1l.168-3.408h.033l-.2,4.091" fill="#4f576c"/>
    <path id="Trazado_3590" data-name="Trazado 3590" d="M1059.657,3372.358h-11.736l-.666-4.091h.111l.555,3.408h11.554l.182.683" fill="#4f576c"/>
    <path id="Trazado_3591" data-name="Trazado 3591" d="M1005.067,3372.358H992.244l.01-.683h12.806l.007.683" fill="#4f576c"/>
    <path id="Trazado_3592" data-name="Trazado 3592" d="M1032.626,3372.358h-13.371l-.15-4.091h.025l.124,3.408h13.312l.06.683" fill="#4f576c"/>
    <path id="Trazado_3593" data-name="Trazado 3593" d="M1047.231,3372.358H1033.31l-.357-4.091h.06l.3,3.408h13.809l.111.683" fill="#4f576c"/>
    <path id="Trazado_3594" data-name="Trazado 3594" d="M919.4,3367.585H904.91l.182-.684H919.4l.833-4.77h.119l-.951,5.454" fill="#4f576c"/>
    <path id="Trazado_3595" data-name="Trazado 3595" d="M920.467,3361.451H906.543l.182-.684h13.742l.593-3.407h.119l-.712,4.091" fill="#4f576c"/>
    <path id="Trazado_3596" data-name="Trazado 3596" d="M935.062,3372.358h-15.8l.119-.683h15.683l.356-3.408h.071l-.427,4.091" fill="#4f576c"/>
    <path id="Trazado_3597" data-name="Trazado 3597" d="M918.568,3372.358H903.64l.182-.683h14.746l.592-3.408h.119l-.711,4.091" fill="#4f576c"/>
    <path id="Trazado_3598" data-name="Trazado 3598" d="M1071.96,3372.358h-11.6l-1.088-4.091h.181l.906,3.408h11.32l.277.683" fill="#4f576c"/>
    <path id="Trazado_3599" data-name="Trazado 3599" d="M901.649,3377.187H889.619l.253-.684h11.778l.923-3.463h.182l-1.1,4.147" fill="#4f576c"/>
    <path id="Trazado_3600" data-name="Trazado 3600" d="M1048.021,3377.187h-14.289l-.36-4.147h.06l.3,3.463h14.177l.112.684" fill="#4f576c"/>
    <path id="Trazado_3601" data-name="Trazado 3601" d="M950.149,3367.585h-13.9l.072-.684h13.829l.234-4.77h.034l-.268,5.454" fill="#4f576c"/>
    <path id="Trazado_3602" data-name="Trazado 3602" d="M1058.388,3367.585h-11.247l-.892-5.454h.111l.781,4.77h11.066l.181.684" fill="#4f576c"/>
    <path id="Trazado_3603" data-name="Trazado 3603" d="M1060.937,3377.187h-12.224l-.68-4.147h.112l.568,3.463h12.042l.182.684" fill="#4f576c"/>
    <path id="Trazado_3604" data-name="Trazado 3604" d="M1073.918,3377.187h-12.275l-1.1-4.147h.181l.918,3.463h12l.277.684" fill="#4f576c"/>
    <path id="Trazado_3605" data-name="Trazado 3605" d="M977.176,3372.358H964.235l.033-.683h12.908l.061-3.408h.012l-.073,4.091" fill="#4f576c"/>
    <path id="Trazado_3606" data-name="Trazado 3606" d="M963.552,3372.358H950.6l.033-.683h12.919l.166-3.408h.033l-.2,4.091" fill="#4f576c"/>
    <path id="Trazado_3607" data-name="Trazado 3607" d="M935.564,3367.585H920.09l.119-.684h15.355l.5-4.77h.071l-.573,5.454" fill="#4f576c"/>
    <path id="Trazado_3608" data-name="Trazado 3608" d="M934.554,3377.187H918.416l.12-.684h16.018l.365-3.463h.072l-.437,4.147" fill="#4f576c"/>
    <path id="Trazado_3609" data-name="Trazado 3609" d="M917.725,3377.187h-15.37l.182-.684h15.188l.6-3.463h.119l-.724,4.147" fill="#4f576c"/>
    <path id="Trazado_3610" data-name="Trazado 3610" d="M977.263,3367.585h-12.8l.033-.684h12.762l.084-4.77h.012l-.1,5.454" fill="#4f576c"/>
    <path id="Trazado_3611" data-name="Trazado 3611" d="M1018.571,3372.358h-12.823l-.043-4.091h.007l.036,3.408h12.8l.024.683" fill="#4f576c"/>
    <path id="Trazado_3612" data-name="Trazado 3612" d="M1005.12,3377.187H992.174l.01-.684h12.929l.008.684" fill="#4f576c"/>
    <path id="Trazado_3613" data-name="Trazado 3613" d="M1018.746,3377.187H1005.8l-.047-4.147h.008l.04,3.463h12.92l.025.684" fill="#4f576c"/>
    <path id="Trazado_3614" data-name="Trazado 3614" d="M991.49,3377.187H935.239l.071-.684h56.18l.051-3.463h.01l-.061,4.147" fill="#4f576c"/>
    <path id="Trazado_3615" data-name="Trazado 3615" d="M1033.048,3377.187h-13.619l-.151-4.147h.025l.126,3.463h13.56l.06.684" fill="#4f576c"/>
    <path id="Trazado_3616" data-name="Trazado 3616" d="M963.784,3367.585h-12.95l.033-.684h12.917l.234-4.77h.033l-.267,5.454" fill="#4f576c"/>
    <path id="Trazado_3617" data-name="Trazado 3617" d="M991.633,3367.585h-13.69l.012-.684h13.677l.07-4.77h.01l-.08,5.454" fill="#4f576c"/>
    <path id="Trazado_3618" data-name="Trazado 3618" d="M937.469,3356H937.4l.44-4.162h13.052l-.034.687H937.836l-.367,3.475" fill="#d3d4d7"/>
    <path id="Trazado_3619" data-name="Trazado 3619" d="M950.683,3356H937.469l.367-3.475h13.018l-.171,3.475" fill="#7b818e"/>
    <path id="Trazado_3620" data-name="Trazado 3620" d="M951.4,3356h-.033l.2-4.162h12.95l-.033.687H951.57L951.4,3356" fill="#d3d4d7"/>
    <path id="Trazado_3621" data-name="Trazado 3621" d="M964.319,3356H951.4l.17-3.475h12.917l-.168,3.475" fill="#7b818e"/>
    <path id="Trazado_3622" data-name="Trazado 3622" d="M965.034,3356H965l.2-4.162h12.327l-.012.687H965.2l-.171,3.475" fill="#d3d4d7"/>
    <path id="Trazado_3623" data-name="Trazado 3623" d="M977.458,3356H965.034l.171-3.475H977.52l-.062,3.475" fill="#7b818e"/>
    <path id="Trazado_3624" data-name="Trazado 3624" d="M895.676,3360.767h-.252l1.509-4.088h9.993l-.182.681h-9.811l-1.257,3.407" fill="#d3d4d7"/>
    <path id="Trazado_3625" data-name="Trazado 3625" d="M905.837,3360.767H895.676l1.257-3.407h9.811l-.908,3.407" fill="#7b818e"/>
    <path id="Trazado_3626" data-name="Trazado 3626" d="M978.151,3356h-.012l.074-4.162h13.643l-.01.687H978.213l-.062,3.475" fill="#d3d4d7"/>
    <path id="Trazado_3627" data-name="Trazado 3627" d="M991.794,3356H978.151l.062-3.475h13.633l-.052,3.475" fill="#7b818e"/>
    <path id="Trazado_3628" data-name="Trazado 3628" d="M897.436,3356h-.253l1.537-4.162h9.5l-.183.687h-9.313L897.436,3356" fill="#d3d4d7"/>
    <path id="Trazado_3629" data-name="Trazado 3629" d="M907.107,3356h-9.671l1.284-3.475h9.313l-.926,3.475" fill="#7b818e"/>
    <path id="Trazado_3630" data-name="Trazado 3630" d="M922.11,3356h-.119l.724-4.162h14.433l-.072.687H922.716L922.11,3356" fill="#d3d4d7"/>
    <path id="Trazado_3631" data-name="Trazado 3631" d="M936.712,3356h-14.6l.605-3.475h14.361l-.365,3.475" fill="#7b818e"/>
    <path id="Trazado_3632" data-name="Trazado 3632" d="M908,3356h-.183l1.109-4.162h13.1l-.12.687H908.922L908,3356" fill="#d3d4d7"/>
    <path id="Trazado_3633" data-name="Trazado 3633" d="M921.3,3356H908l.926-3.475H921.9L921.3,3356" fill="#7b818e"/>
    <path id="Trazado_3634" data-name="Trazado 3634" d="M1031.259,3356h-.06l-.3-3.475h-12.338l-.025-.687H1030.9l.362,4.162" fill="#d3d4d7"/>
    <path id="Trazado_3635" data-name="Trazado 3635" d="M1031.2,3356h-12.513l-.128-3.475H1030.9l.3,3.475" fill="#7b818e"/>
    <path id="Trazado_3636" data-name="Trazado 3636" d="M1067.531,3360.767h-.276l-1.38-3.407h-9.315l-.181-.681h9.5l1.656,4.088" fill="#d3d4d7"/>
    <path id="Trazado_3637" data-name="Trazado 3637" d="M1067.255,3360.767h-9.789l-.906-3.407h9.315l1.38,3.407" fill="#7b818e"/>
    <path id="Trazado_3638" data-name="Trazado 3638" d="M1070.022,3366.9h-.278l-1.935-4.77h-9.982l-.181-.681h10.163l2.213,5.45" fill="#d3d4d7"/>
    <path id="Trazado_3639" data-name="Trazado 3639" d="M1069.744,3366.9h-10.65l-1.266-4.77h9.982l1.935,4.77" fill="#7b818e"/>
    <path id="Trazado_3640" data-name="Trazado 3640" d="M893.414,3366.9h-.252l2.01-5.45h10.484l-.181.681h-10.3l-1.758,4.77" fill="#d3d4d7"/>
    <path id="Trazado_3641" data-name="Trazado 3641" d="M904.205,3366.9H893.414l1.758-4.77h10.3l-1.27,4.77" fill="#7b818e"/>
    <path id="Trazado_3642" data-name="Trazado 3642" d="M1055.493,3356h-.182l-.924-3.475h-9.6l-.113-.687h9.712l1.106,4.162" fill="#d3d4d7"/>
    <path id="Trazado_3643" data-name="Trazado 3643" d="M1055.311,3356h-9.955l-.569-3.475h9.6l.924,3.475" fill="#7b818e"/>
    <path id="Trazado_3644" data-name="Trazado 3644" d="M1044.666,3356h-.112l-.567-3.475h-12.345l-.06-.687h12.4l.678,4.162" fill="#d3d4d7"/>
    <path id="Trazado_3645" data-name="Trazado 3645" d="M1044.554,3356h-12.61l-.3-3.475h12.345l.567,3.475" fill="#7b818e"/>
    <path id="Trazado_3646" data-name="Trazado 3646" d="M1065.6,3356h-.278l-1.412-3.475h-8.632l-.182-.687h8.814l1.69,4.162" fill="#d3d4d7"/>
    <path id="Trazado_3647" data-name="Trazado 3647" d="M1065.318,3356H1056.2l-.923-3.475h8.632l1.412,3.475" fill="#7b818e"/>
    <path id="Trazado_3648" data-name="Trazado 3648" d="M1004.9,3356h-.008l-.038-3.475H992.535l-.051,3.475h-.01l.061-4.162h12.317l.045,4.162" fill="#d3d4d7"/>
    <path id="Trazado_3649" data-name="Trazado 3649" d="M1004.889,3356h-12.4l.051-3.475h12.317l.038,3.475" fill="#7b818e"/>
    <path id="Trazado_3650" data-name="Trazado 3650" d="M1018,3356h-.025l-.126-3.475h-12.31l-.007-.687h12.317L1018,3356" fill="#d3d4d7"/>
    <path id="Trazado_3651" data-name="Trazado 3651" d="M1017.979,3356h-12.4l-.036-3.475h12.31l.126,3.475" fill="#7b818e"/>
    <path id="Trazado_3652" data-name="Trazado 3652" d="M978.065,3360.767h-.012l.074-4.088h13.655l-.01.681H978.127l-.062,3.407" fill="#d3d4d7"/>
    <path id="Trazado_3653" data-name="Trazado 3653" d="M991.723,3360.767H978.065l.062-3.407h13.645l-.05,3.407" fill="#7b818e"/>
    <path id="Trazado_3654" data-name="Trazado 3654" d="M964.8,3360.767h-.033l.2-4.088h12.476l-.012.681H964.969l-.168,3.407" fill="#d3d4d7"/>
    <path id="Trazado_3655" data-name="Trazado 3655" d="M977.371,3360.767H964.8l.168-3.407h12.464l-.061,3.407" fill="#7b818e"/>
    <path id="Trazado_3656" data-name="Trazado 3656" d="M1018.175,3360.767h-.024l-.122-3.407h-12.435l-.007-.681h12.442l.146,4.088" fill="#d3d4d7"/>
    <path id="Trazado_3657" data-name="Trazado 3657" d="M1018.151,3360.767h-12.52l-.036-3.407h12.435l.122,3.407" fill="#7b818e"/>
    <path id="Trazado_3658" data-name="Trazado 3658" d="M891.652,3371.675H891.4l1.508-4.09h11.114l-.181.682H892.908l-1.256,3.408" fill="#d3d4d7"/>
    <path id="Trazado_3659" data-name="Trazado 3659" d="M902.936,3371.675H891.652l1.256-3.408h10.933l-.906,3.408" fill="#7b818e"/>
    <path id="Trazado_3660" data-name="Trazado 3660" d="M936.968,3360.767H936.9l.431-4.088h13.324l-.033.681H937.327l-.359,3.407" fill="#d3d4d7"/>
    <path id="Trazado_3661" data-name="Trazado 3661" d="M950.451,3360.767H936.968l.359-3.407h13.291l-.167,3.407" fill="#7b818e"/>
    <path id="Trazado_3662" data-name="Trazado 3662" d="M951.166,3360.767h-.033l.2-4.088h12.953l-.033.681h-12.92l-.166,3.407" fill="#d3d4d7"/>
    <path id="Trazado_3663" data-name="Trazado 3663" d="M964.085,3360.767H951.166l.166-3.407h12.92l-.167,3.407" fill="#7b818e"/>
    <path id="Trazado_3664" data-name="Trazado 3664" d="M1004.95,3360.767h-.007l-.037-3.407h-12.44l-.05,3.407h-.01l.06-4.088h12.44l.044,4.088" fill="#d3d4d7"/>
    <path id="Trazado_3665" data-name="Trazado 3665" d="M1004.942,3360.767H992.414l.05-3.407h12.44l.037,3.407" fill="#7b818e"/>
    <path id="Trazado_3666" data-name="Trazado 3666" d="M1032.212,3366.9h-.06l-.417-4.77h-12.829l-.025-.681h12.854l.477,5.45" fill="#d3d4d7"/>
    <path id="Trazado_3667" data-name="Trazado 3667" d="M1032.152,3366.9h-13.071l-.175-4.77h12.829l.417,4.77" fill="#7b818e"/>
    <path id="Trazado_3668" data-name="Trazado 3668" d="M1018.4,3366.9h-.025l-.173-4.77h-12.554l-.008-.681H1018.2l.2,5.45" fill="#d3d4d7"/>
    <path id="Trazado_3669" data-name="Trazado 3669" d="M1018.373,3366.9H1005.7l-.051-4.77H1018.2l.173,4.77" fill="#7b818e"/>
    <path id="Trazado_3670" data-name="Trazado 3670" d="M1031.676,3360.767h-.06l-.3-3.407h-12.584l-.025-.681h12.609l.357,4.088" fill="#d3d4d7"/>
    <path id="Trazado_3671" data-name="Trazado 3671" d="M1031.616,3360.767h-12.757l-.124-3.407h12.584l.3,3.407" fill="#7b818e"/>
    <path id="Trazado_3672" data-name="Trazado 3672" d="M1046.45,3366.9h-.112l-.78-4.77h-13.08l-.059-.681h13.139l.892,5.45" fill="#d3d4d7"/>
    <path id="Trazado_3673" data-name="Trazado 3673" d="M1046.339,3366.9h-13.445l-.416-4.77h13.08l.78,4.77" fill="#7b818e"/>
    <path id="Trazado_3674" data-name="Trazado 3674" d="M1056.759,3360.767h-.181l-.905-3.407h-10.094l-.112-.681h10.206l1.086,4.088" fill="#d3d4d7"/>
    <path id="Trazado_3675" data-name="Trazado 3675" d="M1056.578,3360.767h-10.441l-.559-3.407h10.094l.905,3.407" fill="#7b818e"/>
    <path id="Trazado_3676" data-name="Trazado 3676" d="M1005.016,3366.9h-.008l-.051-4.77H992.394l-.07,4.77h-.01l.08-5.45h12.563l.059,5.45" fill="#d3d4d7"/>
    <path id="Trazado_3677" data-name="Trazado 3677" d="M1005.008,3366.9H992.324l.07-4.77h12.563l.051,4.77" fill="#7b818e"/>
    <path id="Trazado_3678" data-name="Trazado 3678" d="M1045.446,3360.767h-.112l-.558-3.407h-12.715l-.06-.681h12.775l.669,4.088" fill="#d3d4d7"/>
    <path id="Trazado_3679" data-name="Trazado 3679" d="M1045.335,3360.767h-12.974l-.3-3.407h12.715l.558,3.407" fill="#7b818e"/>
    <path id="Trazado_3680" data-name="Trazado 3680" d="M921.279,3360.767h-.119l.713-4.088H936.64l-.072.681h-14.7l-.593,3.407" fill="#d3d4d7"/>
    <path id="Trazado_3681" data-name="Trazado 3681" d="M936.209,3360.767h-14.93l.593-3.407h14.7l-.358,3.407" fill="#7b818e"/>
    <path id="Trazado_3682" data-name="Trazado 3682" d="M977.871,3371.675h-.012l.074-4.09h13.692l-.01.682H977.933l-.062,3.408" fill="#d3d4d7"/>
    <path id="Trazado_3683" data-name="Trazado 3683" d="M991.561,3371.675h-13.69l.062-3.408h13.681l-.053,3.408" fill="#7b818e"/>
    <path id="Trazado_3684" data-name="Trazado 3684" d="M935.818,3371.675h-.072l.431-4.09h13.94l-.033.682H936.177l-.359,3.408" fill="#d3d4d7"/>
    <path id="Trazado_3685" data-name="Trazado 3685" d="M949.916,3371.675h-14.1l.359-3.408h13.907l-.168,3.408" fill="#7b818e"/>
    <path id="Trazado_3686" data-name="Trazado 3686" d="M1059.657,3371.675h-.182l-.9-3.408h-11.2l-.111-.682h11.316l1.086,4.09" fill="#d3d4d7"/>
    <path id="Trazado_3687" data-name="Trazado 3687" d="M1059.475,3371.675h-11.554l-.555-3.408h11.2l.9,3.408" fill="#7b818e"/>
    <path id="Trazado_3688" data-name="Trazado 3688" d="M1005.067,3371.675h-.007l-.037-3.408H992.306l-.052,3.408h-.01l.062-4.09h12.717l.044,4.09" fill="#d3d4d7"/>
    <path id="Trazado_3689" data-name="Trazado 3689" d="M1005.06,3371.675H992.254l.052-3.408h12.717l.037,3.408" fill="#7b818e"/>
    <path id="Trazado_3690" data-name="Trazado 3690" d="M1032.626,3371.675h-.06l-.3-3.408H1019.13l-.025-.682h13.164l.357,4.09" fill="#d3d4d7"/>
    <path id="Trazado_3691" data-name="Trazado 3691" d="M1032.566,3371.675h-13.312l-.124-3.408h13.139l.3,3.408" fill="#7b818e"/>
    <path id="Trazado_3692" data-name="Trazado 3692" d="M1047.231,3371.675h-.111l-.557-3.408h-13.55l-.06-.682h13.609l.668,4.09" fill="#d3d4d7"/>
    <path id="Trazado_3693" data-name="Trazado 3693" d="M1047.12,3371.675H1033.31l-.3-3.408h13.55l.557,3.408" fill="#7b818e"/>
    <path id="Trazado_3694" data-name="Trazado 3694" d="M905.092,3366.9h-.182l1.453-5.45h13.986l-.119.681H906.363l-1.271,4.77" fill="#d3d4d7"/>
    <path id="Trazado_3695" data-name="Trazado 3695" d="M919.4,3366.9H905.092l1.271-4.77H920.23l-.833,4.77" fill="#7b818e"/>
    <path id="Trazado_3696" data-name="Trazado 3696" d="M906.725,3360.767h-.182l1.089-4.088h13.548l-.119.681H907.632l-.906,3.407" fill="#d3d4d7"/>
    <path id="Trazado_3697" data-name="Trazado 3697" d="M920.467,3360.767H906.725l.906-3.407h13.429l-.593,3.407" fill="#7b818e"/>
    <path id="Trazado_3698" data-name="Trazado 3698" d="M919.379,3371.675h-.119l.71-4.09h15.518l-.071.682H919.971l-.592,3.408" fill="#d3d4d7"/>
    <path id="Trazado_3699" data-name="Trazado 3699" d="M935.062,3371.675H919.379l.592-3.408h15.447l-.356,3.408" fill="#7b818e"/>
    <path id="Trazado_3700" data-name="Trazado 3700" d="M903.822,3371.675h-.182l1.089-4.09h14.55l-.119.682H904.729l-.907,3.408" fill="#d3d4d7"/>
    <path id="Trazado_3701" data-name="Trazado 3701" d="M918.568,3371.675H903.822l.907-3.408H919.16l-.592,3.408" fill="#7b818e"/>
    <path id="Trazado_3702" data-name="Trazado 3702" d="M1071.96,3371.675h-.277l-1.384-3.408h-10.843l-.181-.682H1070.3l1.661,4.09" fill="#d3d4d7"/>
    <path id="Trazado_3703" data-name="Trazado 3703" d="M1071.682,3371.675h-11.32l-.906-3.408H1070.3l1.384,3.408" fill="#7b818e"/>
    <path id="Trazado_3704" data-name="Trazado 3704" d="M889.871,3376.5h-.253l1.531-4.145h11.6l-.182.683H891.149l-1.278,3.463" fill="#d3d4d7"/>
    <path id="Trazado_3705" data-name="Trazado 3705" d="M901.649,3376.5H889.871l1.278-3.463h11.422l-.923,3.463" fill="#7b818e"/>
    <path id="Trazado_3706" data-name="Trazado 3706" d="M1048.021,3376.5h-.112l-.569-3.463h-13.909l-.06-.683h13.969l.681,4.145" fill="#d3d4d7"/>
    <path id="Trazado_3707" data-name="Trazado 3707" d="M1047.909,3376.5h-14.177l-.3-3.463h13.909l.569,3.463" fill="#7b818e"/>
    <path id="Trazado_3708" data-name="Trazado 3708" d="M936.32,3366.9h-.072l.574-5.45h13.6l-.034.681H936.822l-.5,4.77" fill="#d3d4d7"/>
    <path id="Trazado_3709" data-name="Trazado 3709" d="M950.149,3366.9H936.32l.5-4.77h13.561l-.234,4.77" fill="#7b818e"/>
    <path id="Trazado_3710" data-name="Trazado 3710" d="M1058.388,3366.9h-.181l-1.265-4.77H1046.36l-.111-.681h10.693l1.446,5.45" fill="#d3d4d7"/>
    <path id="Trazado_3711" data-name="Trazado 3711" d="M1058.206,3366.9h-11.066l-.781-4.77h10.582l1.265,4.77" fill="#7b818e"/>
    <path id="Trazado_3712" data-name="Trazado 3712" d="M1060.937,3376.5h-.182l-.918-3.463h-11.692l-.112-.683h11.8l1.1,4.145" fill="#d3d4d7"/>
    <path id="Trazado_3713" data-name="Trazado 3713" d="M1060.755,3376.5h-12.042l-.568-3.463h11.692l.918,3.463" fill="#7b818e"/>
    <path id="Trazado_3714" data-name="Trazado 3714" d="M1073.918,3376.5h-.277l-1.405-3.463h-11.511l-.181-.683h11.692l1.682,4.145" fill="#d3d4d7"/>
    <path id="Trazado_3715" data-name="Trazado 3715" d="M1073.641,3376.5h-12l-.918-3.463h11.511l1.405,3.463" fill="#7b818e"/>
    <path id="Trazado_3716" data-name="Trazado 3716" d="M964.268,3371.675h-.033l.2-4.09h12.816l-.012.682h-12.8l-.165,3.408" fill="#d3d4d7"/>
    <path id="Trazado_3717" data-name="Trazado 3717" d="M977.176,3371.675H964.268l.165-3.408h12.8l-.061,3.408" fill="#7b818e"/>
    <path id="Trazado_3718" data-name="Trazado 3718" d="M950.633,3371.675H950.6l.2-4.09h12.952l-.033.682H950.8l-.166,3.408" fill="#d3d4d7"/>
    <path id="Trazado_3719" data-name="Trazado 3719" d="M963.552,3371.675H950.633l.166-3.408h12.919l-.166,3.408" fill="#7b818e"/>
    <path id="Trazado_3720" data-name="Trazado 3720" d="M920.209,3366.9h-.119l.951-5.45h15.1l-.071.681H921.041l-.832,4.77" fill="#d3d4d7"/>
    <path id="Trazado_3721" data-name="Trazado 3721" d="M935.564,3366.9H920.209l.832-4.77h15.025l-.5,4.77" fill="#7b818e"/>
    <path id="Trazado_3722" data-name="Trazado 3722" d="M918.536,3376.5h-.12l.724-4.145h15.85l-.072.683H919.14l-.6,3.463" fill="#d3d4d7"/>
    <path id="Trazado_3723" data-name="Trazado 3723" d="M934.554,3376.5H918.536l.6-3.463h15.778l-.365,3.463" fill="#7b818e"/>
    <path id="Trazado_3724" data-name="Trazado 3724" d="M902.537,3376.5h-.182l1.105-4.145h14.988l-.119.683H903.46l-.923,3.463" fill="#d3d4d7"/>
    <path id="Trazado_3725" data-name="Trazado 3725" d="M917.725,3376.5H902.537l.923-3.463h14.869l-.6,3.463" fill="#7b818e"/>
    <path id="Trazado_3726" data-name="Trazado 3726" d="M964.5,3366.9h-.033l.267-5.45h12.624l-.012.681H964.735l-.234,4.77" fill="#d3d4d7"/>
    <path id="Trazado_3727" data-name="Trazado 3727" d="M977.263,3366.9H964.5l.234-4.77h12.612l-.084,4.77" fill="#7b818e"/>
    <path id="Trazado_3728" data-name="Trazado 3728" d="M1018.571,3371.675h-.024l-.122-3.408h-12.713l-.007-.682h12.72l.146,4.09" fill="#d3d4d7"/>
    <path id="Trazado_3729" data-name="Trazado 3729" d="M1018.546,3371.675h-12.8l-.036-3.408h12.713l.122,3.408" fill="#7b818e"/>
    <path id="Trazado_3730" data-name="Trazado 3730" d="M1005.12,3376.5h-.008l-.038-3.463h-12.84l-.051,3.463h-.01l.06-4.145h12.84l.045,4.145" fill="#d3d4d7"/>
    <path id="Trazado_3731" data-name="Trazado 3731" d="M1005.112,3376.5H992.184l.051-3.463h12.84l.038,3.463" fill="#7b818e"/>
    <path id="Trazado_3732" data-name="Trazado 3732" d="M1018.746,3376.5h-.025l-.126-3.463h-12.834l-.008-.683H1018.6l.151,4.145" fill="#d3d4d7"/>
    <path id="Trazado_3733" data-name="Trazado 3733" d="M1018.721,3376.5H1005.8l-.04-3.463H1018.6l.126,3.463" fill="#7b818e"/>
    <path id="Trazado_3734" data-name="Trazado 3734" d="M935.31,3376.5h-.071l.436-4.145h55.877l-.01.683H935.675l-.364,3.463" fill="#d3d4d7"/>
    <path id="Trazado_3735" data-name="Trazado 3735" d="M991.49,3376.5H935.31l.364-3.463h55.867l-.051,3.463" fill="#7b818e"/>
    <path id="Trazado_3736" data-name="Trazado 3736" d="M1033.048,3376.5h-.06l-.3-3.463H1019.3l-.025-.683h13.409l.361,4.145" fill="#d3d4d7"/>
    <path id="Trazado_3737" data-name="Trazado 3737" d="M1032.988,3376.5h-13.56l-.126-3.463h13.384l.3,3.463" fill="#7b818e"/>
    <path id="Trazado_3738" data-name="Trazado 3738" d="M950.867,3366.9h-.033l.266-5.45h12.951l-.033.681H951.1l-.233,4.77" fill="#d3d4d7"/>
    <path id="Trazado_3739" data-name="Trazado 3739" d="M963.784,3366.9H950.867l.233-4.77h12.918l-.234,4.77" fill="#7b818e"/>
    <path id="Trazado_3740" data-name="Trazado 3740" d="M977.956,3366.9h-.012l.1-5.45h13.672l-.01.681H978.041l-.085,4.77" fill="#d3d4d7"/>
    <path id="Trazado_3741" data-name="Trazado 3741" d="M991.633,3366.9H977.956l.085-4.77H991.7l-.07,4.77" fill="#7b818e"/>
    <path id="Trazado_3742" data-name="Trazado 3742" d="M1056.208,3323.179a7.178,7.178,0,0,1-7.178,7.178H914.993a7.179,7.179,0,0,1-7.18-7.178v-93.64a7.178,7.178,0,0,1,7.18-7.178H1049.03a7.176,7.176,0,0,1,7.178,7.178v93.64" fill="#fff"/>
    <path id="Trazado_3743" data-name="Trazado 3743" d="M1056.208,3235.6v-6.06a7.176,7.176,0,0,0-7.178-7.178H914.993a7.178,7.178,0,0,0-7.18,7.178v6.06h148.4" fill="#354f66"/>
    <path id="Trazado_3744" data-name="Trazado 3744" d="M1033.09,3231.675a2.693,2.693,0,1,1,2.693-2.7,2.695,2.695,0,0,1-2.693,2.7" fill="#0b111c"/>
    <path id="Trazado_3745" data-name="Trazado 3745" d="M1043.26,3231.675a2.693,2.693,0,1,1,2.693-2.7,2.694,2.694,0,0,1-2.693,2.7" fill="#0b111c"/>
    <path id="Trazado_3746" data-name="Trazado 3746" d="M1022.751,3231.675a2.693,2.693,0,1,1,2.693-2.7,2.7,2.7,0,0,1-2.693,2.7" fill="#0b111c"/>
    <path id="Trazado_3747" data-name="Trazado 3747" d="M1053.825,3267.978H910.2v-29.743h143.628v29.743Z" fill="#8aed8a"/>
    <path id="Trazado_3748" data-name="Trazado 3748" d="M961.606,3228.98a2.8,2.8,0,0,1-2.8,2.8H923.873a2.8,2.8,0,0,1,0-5.6h34.933a2.8,2.8,0,0,1,2.8,2.8Z" fill="#fff"/>
    <path id="Trazado_3749" data-name="Trazado 3749" d="M926.366,3229.639a.757.757,0,0,1-.285.625,1.243,1.243,0,0,1-.795.229,1.874,1.874,0,0,1-.83-.177v-.576a3.479,3.479,0,0,0,.5.185,1.479,1.479,0,0,0,.375.054.537.537,0,0,0,.314-.078.268.268,0,0,0,.109-.232.246.246,0,0,0-.048-.153.557.557,0,0,0-.141-.13,3.879,3.879,0,0,0-.381-.2,1.751,1.751,0,0,1-.4-.241.907.907,0,0,1-.214-.272.845.845,0,0,1,.183-.971,1.1,1.1,0,0,1,.728-.223,1.749,1.749,0,0,1,.437.054,2.87,2.87,0,0,1,.432.153l-.2.484a2.824,2.824,0,0,0-.388-.136,1.26,1.26,0,0,0-.3-.038.409.409,0,0,0-.271.082.277.277,0,0,0-.093.215.27.27,0,0,0,.037.144.416.416,0,0,0,.122.118,3.848,3.848,0,0,0,.394.205,1.587,1.587,0,0,1,.563.393.777.777,0,0,1,.152.485Z" fill="#283042"/>
    <path id="Trazado_3750" data-name="Trazado 3750" d="M927.778,3228.6a.388.388,0,0,0-.3.123.563.563,0,0,0-.126.349h.856a.5.5,0,0,0-.117-.349.4.4,0,0,0-.308-.123Zm.085,1.888a1.161,1.161,0,0,1-.846-.3,1.14,1.14,0,0,1-.3-.847,1.24,1.24,0,0,1,.282-.869,1.145,1.145,0,0,1,1.518-.038,1.019,1.019,0,0,1,.264.747v.3h-1.445a.581.581,0,0,0,.155.406.538.538,0,0,0,.405.147,1.8,1.8,0,0,0,.382-.041,2.044,2.044,0,0,0,.376-.136v.474a1.478,1.478,0,0,1-.342.119,2.172,2.172,0,0,1-.445.039Z" fill="#283042"/>
    <path id="Trazado_3751" data-name="Trazado 3751" d="M930.517,3229.414l-.237.009a.739.739,0,0,0-.4.095.3.3,0,0,0-.131.269c0,.172.1.259.3.259a.472.472,0,0,0,.341-.123.432.432,0,0,0,.127-.324v-.185Zm.18,1.038-.118-.3h-.016a.889.889,0,0,1-.318.27,1.021,1.021,0,0,1-.426.076.693.693,0,0,1-.509-.185.714.714,0,0,1-.184-.525.591.591,0,0,1,.25-.527,1.452,1.452,0,0,1,.752-.186l.389-.012v-.1a.3.3,0,0,0-.349-.34,1.576,1.576,0,0,0-.631.163l-.2-.414a1.823,1.823,0,0,1,.859-.2,1.068,1.068,0,0,1,.691.2.724.724,0,0,1,.241.6v1.493Z" fill="#283042"/>
    <path id="Trazado_3752" data-name="Trazado 3752" d="M933,3228.171a1,1,0,0,1,.206.016l-.046.574a.67.67,0,0,0-.18-.02.651.651,0,0,0-.457.15.547.547,0,0,0-.163.421v1.14h-.611v-2.241h.464l.089.377h.031a.836.836,0,0,1,.281-.3.685.685,0,0,1,.386-.114Z" fill="#283042"/>
    <path id="Trazado_3753" data-name="Trazado 3753" d="M934.527,3230.493q-1.045,0-1.046-1.149a1.23,1.23,0,0,1,.284-.873,1.077,1.077,0,0,1,.816-.3,1.562,1.562,0,0,1,.7.151l-.18.473a2.717,2.717,0,0,0-.269-.095.832.832,0,0,0-.249-.038c-.317,0-.476.227-.476.678s.159.657.476.657a1.1,1.1,0,0,0,.327-.046,1.254,1.254,0,0,0,.3-.148v.523a.982.982,0,0,1-.3.131,1.7,1.7,0,0,1-.382.036Z" fill="#283042"/>
    <path id="Trazado_3754" data-name="Trazado 3754" d="M937.8,3230.452h-.611v-1.308c0-.323-.121-.486-.361-.486a.413.413,0,0,0-.371.175,1.067,1.067,0,0,0-.114.565v1.054h-.612v-3.118h.612v.635c0,.05,0,.166-.014.349l-.015.18h.032a.713.713,0,0,1,.65-.327.793.793,0,0,1,.6.211.849.849,0,0,1,.2.61v1.46Z" fill="#283042"/>
    <path id="Trazado_3755" data-name="Trazado 3755" d="M980.2,3244.746a2.351,2.351,0,0,1-2.351,2.35h-28.6a2.349,2.349,0,0,1,0-4.7h28.6a2.35,2.35,0,0,1,2.351,2.349Z" fill="#4baa4d"/>
    <path id="Trazado_3756" data-name="Trazado 3756" d="M1043.593,3251.794a1.317,1.317,0,0,1-1.315,1.316H948.214a1.316,1.316,0,0,1,0-2.631h94.064a1.316,1.316,0,0,1,1.315,1.315Z" fill="#60c967"/>
    <path id="Trazado_3757" data-name="Trazado 3757" d="M1043.593,3257.432a1.317,1.317,0,0,1-1.315,1.316H948.214a1.316,1.316,0,0,1,0-2.631h94.064a1.316,1.316,0,0,1,1.315,1.315Z" fill="#60c967"/>
    <path id="Trazado_3758" data-name="Trazado 3758" d="M1013.943,3263.071a1.317,1.317,0,0,1-1.315,1.315H948.214a1.316,1.316,0,0,1,0-2.632h64.414a1.317,1.317,0,0,1,1.315,1.317Z" fill="#60c967"/>
    <path id="Trazado_3759" data-name="Trazado 3759" d="M920.046,3253.551a11.348,11.348,0,1,0,11.25-11.444,11.35,11.35,0,0,0-11.25,11.444Z" fill="#fff"/>
    <path id="Trazado_3760" data-name="Trazado 3760" d="M980.2,3272.985a2.351,2.351,0,0,1-2.351,2.35h-28.6a2.35,2.35,0,0,1,0-4.7h28.6a2.351,2.351,0,0,1,2.351,2.35Z" fill="#a3c4c1"/>
    <path id="Trazado_3761" data-name="Trazado 3761" d="M1043.593,3280.033a1.316,1.316,0,0,1-1.315,1.314H948.214a1.315,1.315,0,0,1,0-2.63h94.064a1.317,1.317,0,0,1,1.315,1.316Z" fill="#daedec"/>
    <path id="Trazado_3762" data-name="Trazado 3762" d="M1043.593,3285.672a1.317,1.317,0,0,1-1.315,1.314H948.214a1.316,1.316,0,0,1,0-2.631h94.064a1.318,1.318,0,0,1,1.315,1.317Z" fill="#daedec"/>
    <path id="Trazado_3763" data-name="Trazado 3763" d="M1013.943,3291.309a1.315,1.315,0,0,1-1.315,1.316H948.214a1.316,1.316,0,0,1,0-2.631h64.414a1.316,1.316,0,0,1,1.315,1.315Z" fill="#daedec"/>
    <path id="Trazado_3764" data-name="Trazado 3764" d="M920.046,3281.789a11.348,11.348,0,1,0,11.25-11.443,11.349,11.349,0,0,0-11.25,11.443Z" fill="#daedec"/>
    <path id="Trazado_3765" data-name="Trazado 3765" d="M980.2,3300.429a2.35,2.35,0,0,1-2.351,2.348h-28.6a2.349,2.349,0,0,1,0-4.7h28.6a2.351,2.351,0,0,1,2.351,2.35Z" fill="#a3c4c1"/>
    <path id="Trazado_3766" data-name="Trazado 3766" d="M1043.593,3307.479a1.315,1.315,0,0,1-1.315,1.312H948.214a1.315,1.315,0,0,1,0-2.63h94.064a1.317,1.317,0,0,1,1.315,1.318Z" fill="#daedec"/>
    <path id="Trazado_3767" data-name="Trazado 3767" d="M1043.593,3313.115a1.318,1.318,0,0,1-1.315,1.317H948.214a1.316,1.316,0,0,1,0-2.632h94.064a1.317,1.317,0,0,1,1.315,1.315Z" fill="#daedec"/>
    <path id="Trazado_3768" data-name="Trazado 3768" d="M1013.943,3318.755a1.316,1.316,0,0,1-1.315,1.314H948.214a1.316,1.316,0,0,1,0-2.631h64.414a1.316,1.316,0,0,1,1.315,1.317Z" fill="#daedec"/>
    <path id="Trazado_3769" data-name="Trazado 3769" d="M920.046,3309.234a11.348,11.348,0,1,0,11.25-11.444,11.35,11.35,0,0,0-11.25,11.444Z" fill="#daedec"/>
    <path id="Trazado_3770" data-name="Trazado 3770" d="M931.054,3258.745a2.074,2.074,0,0,1-.367.034,1.7,1.7,0,0,1-1.252-.367l-4.552-3.932a1.094,1.094,0,0,1-.375-.812,1.891,1.891,0,0,1,.57-1.343,1.443,1.443,0,0,1,.745-.421,1.4,1.4,0,0,1,1.184.384l3.48,2.962,3.791-5.3c.011-.02,2.387-3.357,3.446-3.557a.559.559,0,0,1,.306.021.515.515,0,0,1,.315.334c.3.9-1.465,3.824-1.484,3.852l-4.634,7.4a1.77,1.77,0,0,1-1.173.752Z" fill="#60c967"/>
  </g>
</svg>
