<svg xmlns="http://www.w3.org/2000/svg" width="172.236" height="172.236" viewBox="0 0 172.236 172.236">
  <g id="Grupo_8739" data-name="Grupo 8739" transform="translate(-2537.761 -954.751)">
    <path id="Trazado_4306" data-name="Trazado 4306" d="M2710,1040.869a86.118,86.118,0,1,1-86.118-86.118A86.119,86.119,0,0,1,2710,1040.869Zm0,0" fill="#b7da59"/>
    <g id="Grupo_8738" data-name="Grupo 8738">
      <path id="Trazado_4307" data-name="Trazado 4307" d="M2661.375,1031.819a30.618,30.618,0,0,0-52.1-21.829L2598.2,998.926h2.536a3.463,3.463,0,0,0,0-6.925h-10.9a3.461,3.461,0,0,0-3.461,3.462v10.895a3.461,3.461,0,0,0,6.923,0v-2.536l11.58,11.579a30.62,30.62,0,0,0,22.392,46.855v13.97h-2.629a3.462,3.462,0,0,0,0,6.924h2.629v3.124a3.461,3.461,0,1,0,6.923,0v-3.124h2.628a3.461,3.461,0,1,0,0-6.923H2634.2v-13.971a30.679,30.679,0,0,0,27.173-30.437Zm-54.344,0a23.71,23.71,0,1,1,23.709,23.709,23.736,23.736,0,0,1-23.709-23.709Zm0,0" fill="#21c1f8"/>
      <path id="Trazado_4308" data-name="Trazado 4308" d="M2634.2,1062.256v13.971h2.627a3.461,3.461,0,1,1,0,6.923H2634.2v3.123a3.462,3.462,0,0,1-6.218,2.1,3.447,3.447,0,0,0,.706-2.1v-3.123h2.627a3.461,3.461,0,1,0,0-6.923h-2.627v-13.971a30.634,30.634,0,0,0-.7-60.948q1.36-.123,2.753-.124a30.634,30.634,0,0,1,3.463,61.072Zm0,0" fill="#1faaee"/>
      <path id="Trazado_4309" data-name="Trazado 4309" d="M2600.106,1031.819a30.678,30.678,0,0,0,27.173,30.437v13.97h-2.629a3.462,3.462,0,0,0,0,6.924h2.629v3.124a3.461,3.461,0,1,0,6.923,0v-3.124h2.628a3.461,3.461,0,1,0,0-6.923H2634.2v-13.971a30.679,30.679,0,0,0,27.173-30.437h-6.924a23.71,23.71,0,0,1-47.42,0Zm61.269,0h-6.924" fill="#fb3a82"/>
      <path id="Trazado_4310" data-name="Trazado 4310" d="M2661.375,1031.819a30.679,30.679,0,0,1-27.172,30.437v13.971h2.539a3.533,3.533,0,0,1,3.551,3.53,3.462,3.462,0,0,1-3.463,3.393H2634.2v3.123a3.462,3.462,0,0,1-6.218,2.1,3.447,3.447,0,0,0,.706-2.1v-1.156a1.967,1.967,0,0,1,1.966-1.967h.571a3.537,3.537,0,0,0,3.553-3.528,3.461,3.461,0,0,0-3.463-3.395h-.661a1.967,1.967,0,0,1-1.966-1.967v-10.3a1.967,1.967,0,0,1,1.645-1.938,30.685,30.685,0,0,0,25.528-30.206Zm0,0" fill="#fb1466"/>
      <path id="Trazado_4311" data-name="Trazado 4311" d="M2624.388,1029.154h12.705a3.462,3.462,0,0,0,0-6.924h-12.705a3.462,3.462,0,0,0,0,6.924Zm0,0" fill="#fca62f"/>
      <path id="Trazado_4312" data-name="Trazado 4312" d="M2640.556,1025.691a3.463,3.463,0,0,1-3.464,3.464h-4.845a3.463,3.463,0,0,0,0-6.925h4.845a3.461,3.461,0,0,1,3.464,3.461Zm0,0" fill="#f98824"/>
      <path id="Trazado_4313" data-name="Trazado 4313" d="M2640.554,1037.945a3.461,3.461,0,0,0-3.461-3.462h-12.705a3.461,3.461,0,1,0,0,6.923h12.705a3.46,3.46,0,0,0,3.461-3.461Zm0,0" fill="#fca62f"/>
      <path id="Trazado_4314" data-name="Trazado 4314" d="M2640.556,1037.945a3.463,3.463,0,0,1-3.464,3.462h-4.845a3.461,3.461,0,0,0,0-6.923h4.845a3.461,3.461,0,0,1,3.464,3.461Zm0,0" fill="#f98824"/>
      <path id="Trazado_4315" data-name="Trazado 4315" d="M2630.74,999.709a31.887,31.887,0,0,0-21.44,8.228l-7.625-7.625a4.938,4.938,0,0,0-.935-9.786h-10.9a4.942,4.942,0,0,0-4.936,4.937v10.895a4.937,4.937,0,0,0,9.784.935l8.33,8.33a32.124,32.124,0,0,0,22.781,47.923v1.538a1.474,1.474,0,1,0,2.949,0v-2.829a1.475,1.475,0,0,0-1.31-1.465,29.122,29.122,0,0,1-25.824-27.5h3.981a25.184,25.184,0,0,0,50.281,0h3.978a28.905,28.905,0,0,1-5.428,15.507,1.475,1.475,0,1,0,2.394,1.722,32.092,32.092,0,0,0-26.085-50.812Zm-24.809,14.649-11.58-11.58a1.476,1.476,0,0,0-2.519,1.044v2.536a1.987,1.987,0,0,1-3.974,0V995.463a1.989,1.989,0,0,1,1.987-1.987h10.9a1.987,1.987,0,1,1,0,3.974H2598.2a1.476,1.476,0,0,0-1.044,2.518l11.066,11.065a1.473,1.473,0,0,0,2.077.009,29.143,29.143,0,0,1,49.56,19.3h-3.982a25.184,25.184,0,0,0-50.281,0h-3.977a29,29,0,0,1,4.508-14.15,1.477,1.477,0,0,0-.2-1.836Zm24.809,39.7a22.235,22.235,0,1,1,22.236-22.234,22.259,22.259,0,0,1-22.236,22.234Zm0,0"/>
      <path id="Trazado_4316" data-name="Trazado 4316" d="M2649.972,1053.714a28.959,28.959,0,0,1-15.935,7.077,1.476,1.476,0,0,0-1.31,1.465v13.97a1.475,1.475,0,0,0,1.475,1.475h2.628a1.987,1.987,0,0,1,0,3.974H2634.2a1.475,1.475,0,0,0-1.475,1.475v3.124a1.987,1.987,0,0,1-3.974,0v-3.124a1.474,1.474,0,0,0-1.474-1.475h-2.629a1.987,1.987,0,0,1,0-3.974h2.629a1.474,1.474,0,0,0,1.474-1.475v-4.181a1.474,1.474,0,1,0-2.949,0v2.706h-1.154a4.937,4.937,0,0,0,0,9.874h1.154v1.649a4.937,4.937,0,1,0,9.873,0v-1.649h1.153a4.937,4.937,0,1,0,0-9.874h-1.153v-11.2a31.888,31.888,0,0,0,16.243-7.616,1.475,1.475,0,0,0-1.948-2.216Zm0,0"/>
      <path id="Trazado_4317" data-name="Trazado 4317" d="M2637.093,1020.755h-12.705a4.937,4.937,0,1,0,0,9.873h12.705a4.937,4.937,0,0,0,0-9.873Zm0,6.924h-12.705a1.987,1.987,0,1,1,0-3.974h12.705a1.987,1.987,0,1,1,0,3.974Zm0,0"/>
      <path id="Trazado_4318" data-name="Trazado 4318" d="M2637.093,1033.008h-3.058a1.475,1.475,0,0,0,0,2.95h3.058a1.987,1.987,0,1,1,0,3.973h-12.705a1.987,1.987,0,1,1,0-3.973h2.687a1.475,1.475,0,0,0,0-2.95h-2.687a4.936,4.936,0,1,0,0,9.873h12.705a4.936,4.936,0,0,0,0-9.873Zm0,0"/>
    </g>
  </g>
</svg>
