<svg xmlns="http://www.w3.org/2000/svg" width="172.236" height="172.236" viewBox="0 0 172.236 172.236">
  <g id="Grupo_8737" data-name="Grupo 8737" transform="translate(-1978.903 -954.751)">
    <path id="Trazado_4297" data-name="Trazado 4297" d="M2151.139,1040.869a86.118,86.118,0,1,1-86.118-86.118,86.119,86.119,0,0,1,86.118,86.118Zm0,0" fill="#b7da59"/>
    <g id="Grupo_8736" data-name="Grupo 8736">
      <path id="Trazado_4298" data-name="Trazado 4298" d="M2043.181,997.782l-6.8,19.892h11.024l-3.331,15.919,19.082-23.867h-11.118l4.589-11.944Zm0,0" fill="#ffcb7c"/>
      <path id="Trazado_4299" data-name="Trazado 4299" d="M2112.193,1045.375c-3.217-11.9-10.677-36.011-14.131-47.084a8.256,8.256,0,0,0-7.883-5.8h-10.487a7.819,7.819,0,0,0-7.82,7.82v2.633a8.719,8.719,0,0,0,12.651,7.783l2.792-1.41a24.393,24.393,0,0,1-.092,17.069,37.781,37.781,0,0,0-2.459,13.409v7.974h0v-.012a20.821,20.821,0,0,0-29.46,0,16.515,16.515,0,0,0-19.541,2.558v8.315l.1,0,.311,24.822,37.256,5.426a34.883,34.883,0,0,0,38.76-43.5Zm0,0" fill="#ffbf9e"/>
      <path id="Trazado_4300" data-name="Trazado 4300" d="M2032.027,1089.242h-15.382v-47.195h15.382a3.737,3.737,0,0,1,3.736,3.737v39.722a3.735,3.735,0,0,1-3.736,3.736Zm0,0" fill="#9593e6"/>
      <path id="Trazado_4301" data-name="Trazado 4301" d="M2077.172,1061.938a8.806,8.806,0,1,1-8.806-8.806,8.806,8.806,0,0,1,8.806,8.806Zm0,0" fill="#fd89b4"/>
      <path id="Trazado_4302" data-name="Trazado 4302" d="M2076.5,1077.547a1.968,1.968,0,0,0,2.78,0l.955-.955,1.61,1.61a1.966,1.966,0,0,0,2.781-2.781l-1.61-1.609.954-.955a1.966,1.966,0,0,0-2.78-2.781l-.955.954-3-2.995a10.753,10.753,0,1,0-2.781,2.782l3,2.995-.954.953a1.967,1.967,0,0,0,0,2.782Zm-12.974-10.773a6.84,6.84,0,1,1,9.673,0,6.847,6.847,0,0,1-9.673,0Zm0,0"/>
      <path id="Trazado_4303" data-name="Trazado 4303" d="M2036.384,1019.641h8.6l-2.835,13.548a1.966,1.966,0,0,0,3.46,1.632l19.082-23.867a1.966,1.966,0,0,0-1.536-3.194H2054.9l3.562-9.274a1.967,1.967,0,0,0-1.835-2.671h-13.449a1.966,1.966,0,0,0-1.861,1.331l-6.8,19.892a1.968,1.968,0,0,0,1.861,2.6Zm8.2-19.893h9.181l-3.562,9.273a1.967,1.967,0,0,0,1.835,2.672h7.027l-11.378,14.23,1.642-7.846a1.965,1.965,0,0,0-1.924-2.369h-8.274Zm0,0"/>
      <path id="Trazado_4304" data-name="Trazado 4304" d="M2114.091,1044.862c-3.267-12.085-10.984-37-14.151-47.156a10.18,10.18,0,0,0-9.761-7.179h-10.487a9.8,9.8,0,0,0-9.786,9.787v2.633a10.687,10.687,0,0,0,15.5,9.539l.722-.365a22.429,22.429,0,0,1-.747,13.571,39.6,39.6,0,0,0-2.588,14.106v3.81a22.844,22.844,0,0,0-27.834,1.774,18.291,18.291,0,0,0-10.236-1.51,18.624,18.624,0,0,0-7,2.477v-.565a5.71,5.71,0,0,0-5.7-5.7h-15.382a1.967,1.967,0,0,0-1.966,1.966v47.195a1.967,1.967,0,0,0,1.966,1.967h15.382a5.709,5.709,0,0,0,5.7-5.544l35.423,5.158a36.865,36.865,0,0,0,25.789-5.813,1.966,1.966,0,0,0-2.182-3.272,32.924,32.924,0,0,1-23.04,5.194l-35.986-5.241v-30.509a14.449,14.449,0,0,1,16.614-1.7,1.966,1.966,0,0,0,2.348-.327,18.888,18.888,0,0,1,26.68.013,1.966,1.966,0,0,0,3.356-1.391V1039.8a35.68,35.68,0,0,1,2.332-12.71,26.363,26.363,0,0,0,.1-18.445,1.967,1.967,0,0,0-2.733-1.078l-2.792,1.41a6.751,6.751,0,0,1-9.8-6.028v-2.633a5.86,5.86,0,0,1,5.852-5.854h10.488a6.264,6.264,0,0,1,6.006,4.417c3.16,10.131,10.861,34.992,14.11,47.011a32.617,32.617,0,0,1-2.5,23.493,1.967,1.967,0,1,0,3.5,1.8,36.534,36.534,0,0,0,2.8-26.319Zm-82.064,42.414h-13.415v-43.262h13.415a1.772,1.772,0,0,1,1.77,1.77v39.722a1.772,1.772,0,0,1-1.77,1.77Zm0,0"/>
      <path id="Trazado_4305" data-name="Trazado 4305" d="M2104.529,1075.607a1.967,1.967,0,1,0,1.39.575,1.981,1.981,0,0,0-1.39-.575Zm0,0"/>
    </g>
  </g>
</svg>
