<svg xmlns="http://www.w3.org/2000/svg" width="135.392" height="125.143" viewBox="0 0 135.392 125.143">
  <g id="Grupo_9254" data-name="Grupo 9254" transform="translate(-3910.637 -4613.885)">
    <rect id="Rectángulo_3179" data-name="Rectángulo 3179" width="135.392" height="125.143" rx="12" transform="translate(3910.637 4613.885)" fill="#f14884"/>
    <g id="Grupo_9017" data-name="Grupo 9017">
      <path id="Trazado_6232" data-name="Trazado 6232" d="M3985.033,4693.84a21.037,21.037,0,0,1-1.079,4.037l4.382,3.97a26.537,26.537,0,0,1-2.122,3.7l-5.627-1.814a20.983,20.983,0,0,1-2.964,2.964l1.813,5.626a26.691,26.691,0,0,1-3.7,2.122l-3.971-4.381a20.87,20.87,0,0,1-4.035,1.078l-1.25,5.789c-.707.055-1.416.107-2.139.107s-1.431-.052-2.14-.107l-1.249-5.789a20.893,20.893,0,0,1-4.036-1.078l-3.971,4.381a26.59,26.59,0,0,1-3.7-2.122l1.814-5.626a21.087,21.087,0,0,1-2.964-2.964l-5.626,1.814a26.635,26.635,0,0,1-2.122-3.7l4.382-3.97a20.91,20.91,0,0,1-1.079-4.037l-5.789-1.249c-.055-.709-.107-1.418-.107-2.14s.052-1.432.107-2.14l5.789-1.249a20.929,20.929,0,0,1,1.079-4.037l-4.382-3.97a26.542,26.542,0,0,1,2.122-3.7l5.626,1.814a20.961,20.961,0,0,1,2.965-2.964l-1.813-5.626a26.486,26.486,0,0,1,3.7-2.123l3.971,4.382a20.977,20.977,0,0,1,4.035-1.079l1.25-5.788c.707-.056,1.416-.108,2.138-.108s1.432.052,2.141.108l1.249,5.788a21,21,0,0,1,4.036,1.079l3.971-4.382a26.554,26.554,0,0,1,3.7,2.123l-1.814,5.626a20.852,20.852,0,0,1,2.963,2.965l5.627-1.814a26.7,26.7,0,0,1,2.122,3.7l-4.382,3.971a21,21,0,0,1,1.079,4.035l5.788,1.25c.056.707.108,1.416.108,2.139s-.052,1.431-.108,2.14Zm-20.7-17.384a13.995,13.995,0,1,0,14,14,14,14,0,0,0-14-14Zm0,0" fill="#454a6d"/>
      <path id="Trazado_6233" data-name="Trazado 6233" d="M4004.446,4654.49a11.2,11.2,0,0,1-.854,2.072l2.209,4.235a15.524,15.524,0,0,1-2.54,2.541l-4.235-2.211a10.964,10.964,0,0,1-2.071.856l-1.433,4.562a15.145,15.145,0,0,1-1.794.114,15.51,15.51,0,0,1-1.793-.112l-1.433-4.564a11.1,11.1,0,0,1-2.072-.854l-4.234,2.209a15.476,15.476,0,0,1-2.541-2.54l2.211-4.235a10.987,10.987,0,0,1-.856-2.071l-4.562-1.433a15.167,15.167,0,0,1-.115-1.794,15.564,15.564,0,0,1,.113-1.793l4.563-1.432a11.128,11.128,0,0,1,.855-2.072l-2.21-4.235a15.578,15.578,0,0,1,2.541-2.541l4.235,2.211a11.006,11.006,0,0,1,2.071-.856l1.433-4.562a15.22,15.22,0,0,1,1.794-.114,15.651,15.651,0,0,1,1.793.112l1.432,4.563a11.129,11.129,0,0,1,2.072.855l4.235-2.209a15.508,15.508,0,0,1,2.54,2.54l-2.21,4.235a11,11,0,0,1,.855,2.071l4.562,1.433a15.013,15.013,0,0,1,.115,1.794,15.4,15.4,0,0,1-.113,1.793Zm-10.718-8.823a5.6,5.6,0,1,0,5.6,5.6,5.6,5.6,0,0,0-5.6-5.6Zm0,0" fill="#e89d43"/>
      <path id="Trazado_6234" data-name="Trazado 6234" d="M4015.754,4686.072a9.7,9.7,0,0,1-.908,2.2l1.393,2.932a12.757,12.757,0,0,1-2.167,2.166l-2.931-1.393a9.672,9.672,0,0,1-2.2.909l-1.089,3.062a11.521,11.521,0,0,1-3.06,0l-1.088-3.062a9.7,9.7,0,0,1-2.2-.909l-2.931,1.393a12.829,12.829,0,0,1-2.167-2.166l1.394-2.932a9.64,9.64,0,0,1-.909-2.2l-3.062-1.089a11.521,11.521,0,0,1,0-3.06l3.062-1.089a9.62,9.62,0,0,1,.909-2.2l-1.394-2.93a12.763,12.763,0,0,1,2.167-2.167l2.931,1.393a9.707,9.707,0,0,1,2.2-.909l1.088-3.061a12.273,12.273,0,0,1,1.53-.1,12.646,12.646,0,0,1,1.53.1l1.089,3.062a9.71,9.71,0,0,1,2.2.909l2.931-1.394a12.763,12.763,0,0,1,2.167,2.167l-1.393,2.931a9.664,9.664,0,0,1,.908,2.2l3.063,1.089a11.513,11.513,0,0,1,0,3.059Zm-9.431-6.817a4.2,4.2,0,1,0,4.2,4.2,4.2,4.2,0,0,0-4.2-4.2Zm0,0" fill="#4ac3ed"/>
      <path id="Trazado_6235" data-name="Trazado 6235" d="M3936.46,4692.7a1.4,1.4,0,0,0,1.1,1.257l4.877,1.052a22.105,22.105,0,0,0,.656,2.452l-3.692,3.345a1.4,1.4,0,0,0-.324,1.639,28.082,28.082,0,0,0,2.234,3.9,1.4,1.4,0,0,0,1.58.536l4.74-1.528a22.391,22.391,0,0,0,1.806,1.806l-1.527,4.74a1.4,1.4,0,0,0,.535,1.58,28.009,28.009,0,0,0,3.9,2.234,1.4,1.4,0,0,0,1.64-.324l3.344-3.691a22.694,22.694,0,0,0,2.453.655l1.052,4.877a1.4,1.4,0,0,0,1.256,1.1c.744.059,1.49.112,2.25.112s1.506-.053,2.251-.112a1.4,1.4,0,0,0,1.256-1.1l1.053-4.877a22.412,22.412,0,0,0,2.453-.655l3.345,3.691a1.4,1.4,0,0,0,1.639.324,28.137,28.137,0,0,0,3.9-2.234,1.4,1.4,0,0,0,.537-1.58l-1.527-4.74a22.886,22.886,0,0,0,1.805-1.8l4.74,1.527a1.4,1.4,0,0,0,1.58-.536,28.019,28.019,0,0,0,2.233-3.9,1.4,1.4,0,0,0-.322-1.639l-3.692-3.345a22.688,22.688,0,0,0,.654-2.454l4.877-1.052a1.4,1.4,0,0,0,1.1-1.256c.057-.745.11-1.491.11-2.251s-.053-1.506-.112-2.251a1.4,1.4,0,0,0-1.1-1.256l-4.878-1.052a22.246,22.246,0,0,0-.655-2.454l3.692-3.345a1.4,1.4,0,0,0,.323-1.639,28.063,28.063,0,0,0-2.234-3.9,1.4,1.4,0,0,0-1.58-.536l-4.739,1.526a22.441,22.441,0,0,0-1.806-1.8l1.527-4.741a1.4,1.4,0,0,0-.536-1.58,27.942,27.942,0,0,0-3.9-2.233,1.4,1.4,0,0,0-1.639.322l-3.344,3.692a22.8,22.8,0,0,0-2.453-.654l-1.053-4.877a1.4,1.4,0,0,0-1.255-1.1,28.634,28.634,0,0,0-4.5,0,1.4,1.4,0,0,0-1.257,1.1l-1.053,4.877a22.207,22.207,0,0,0-2.451.654l-3.345-3.692a1.4,1.4,0,0,0-1.64-.322,28.03,28.03,0,0,0-3.9,2.233,1.4,1.4,0,0,0-.537,1.58l1.527,4.741a22.633,22.633,0,0,0-1.805,1.8l-4.739-1.526a1.4,1.4,0,0,0-1.58.536,28.063,28.063,0,0,0-2.234,3.9,1.4,1.4,0,0,0,.324,1.639l3.692,3.345a22.557,22.557,0,0,0-.656,2.454l-4.877,1.052a1.4,1.4,0,0,0-1.1,1.256c-.059.745-.112,1.491-.112,2.251s.053,1.506.112,2.25Zm2.717-3.242,4.761-1.029a1.4,1.4,0,0,0,1.086-1.143,19.54,19.54,0,0,1,1.006-3.766,1.4,1.4,0,0,0-.369-1.533l-3.595-3.258q.469-.9.979-1.72l4.612,1.486a1.407,1.407,0,0,0,1.514-.445,19.68,19.68,0,0,1,2.768-2.768,1.4,1.4,0,0,0,.444-1.513l-1.486-4.612q.817-.51,1.721-.98l3.258,3.6a1.4,1.4,0,0,0,1.533.37,19.336,19.336,0,0,1,3.765-1.007,1.4,1.4,0,0,0,1.144-1.086l1.026-4.761a18.226,18.226,0,0,1,1.987,0l1.028,4.761a1.4,1.4,0,0,0,1.144,1.086,19.411,19.411,0,0,1,3.765,1.007,1.4,1.4,0,0,0,1.533-.37l3.258-3.6q.9.471,1.72.98l-1.486,4.613a1.4,1.4,0,0,0,.445,1.512,19.769,19.769,0,0,1,2.768,2.769,1.4,1.4,0,0,0,1.513.445l4.612-1.486q.51.816.98,1.718l-3.6,3.258a1.4,1.4,0,0,0-.37,1.534,19.475,19.475,0,0,1,1.007,3.765,1.4,1.4,0,0,0,1.086,1.143l4.76,1.027c.018.329.031.66.031.994s-.011.665-.029.992l-4.761,1.029a1.4,1.4,0,0,0-1.086,1.143,19.564,19.564,0,0,1-1.006,3.766,1.4,1.4,0,0,0,.369,1.532l3.595,3.259c-.313.6-.641,1.175-.98,1.72l-4.612-1.486a1.392,1.392,0,0,0-1.513.444,19.814,19.814,0,0,1-2.768,2.768,1.4,1.4,0,0,0-.445,1.512l1.486,4.613q-.818.51-1.718.979l-3.258-3.6a1.409,1.409,0,0,0-1.535-.369,19.307,19.307,0,0,1-3.764,1.006,1.4,1.4,0,0,0-1.143,1.086l-1.028,4.762a18.439,18.439,0,0,1-1.985,0l-1.029-4.762a1.4,1.4,0,0,0-1.143-1.086,19.41,19.41,0,0,1-3.767-1.006,1.4,1.4,0,0,0-1.532.369l-3.258,3.6c-.6-.314-1.176-.641-1.72-.98l1.486-4.612a1.4,1.4,0,0,0-.444-1.513,19.7,19.7,0,0,1-2.769-2.768,1.4,1.4,0,0,0-1.513-.446l-4.613,1.487q-.51-.817-.979-1.72l3.6-3.258a1.4,1.4,0,0,0,.369-1.534,19.376,19.376,0,0,1-1.006-3.764,1.4,1.4,0,0,0-1.086-1.144l-4.764-1.024c-.017-.329-.03-.661-.03-.994s.011-.665.03-.992Zm0,0"/>
      <path id="Trazado_6236" data-name="Trazado 6236" d="M4009.428,4654.393a1.4,1.4,0,0,0,.971-1.175,16.416,16.416,0,0,0,.123-1.953,16.626,16.626,0,0,0-.122-1.953,1.4,1.4,0,0,0-.97-1.175l-3.88-1.219c-.117-.317-.245-.63-.387-.935l1.881-3.6a1.405,1.405,0,0,0-.143-1.517,16.938,16.938,0,0,0-2.769-2.768,1.4,1.4,0,0,0-1.516-.145l-3.606,1.881q-.459-.21-.935-.385l-1.219-3.881a1.4,1.4,0,0,0-1.175-.969,15.4,15.4,0,0,0-3.909,0,1.4,1.4,0,0,0-1.173.969l-1.219,3.881c-.318.116-.631.245-.935.386l-3.6-1.88a1.4,1.4,0,0,0-1.516.143,17.012,17.012,0,0,0-2.77,2.768,1.4,1.4,0,0,0-.143,1.517l1.879,3.6c-.14.305-.269.618-.385.935l-3.881,1.219a1.4,1.4,0,0,0-.969,1.175,15.713,15.713,0,0,0,0,3.906,1.4,1.4,0,0,0,.969,1.175l3.881,1.219c.116.317.245.63.386.935l-1.88,3.6a1.4,1.4,0,0,0,.143,1.517,16.952,16.952,0,0,0,2.769,2.768,1.4,1.4,0,0,0,1.516.145l3.6-1.879c.3.139.617.268.935.384l1.219,3.88a1.4,1.4,0,0,0,1.175.971,15.645,15.645,0,0,0,3.909,0,1.4,1.4,0,0,0,1.175-.97l1.219-3.88q.476-.175.935-.386l3.6,1.88a1.4,1.4,0,0,0,1.516-.143,16.948,16.948,0,0,0,2.769-2.769,1.4,1.4,0,0,0,.145-1.516l-1.881-3.6q.211-.457.386-.934Zm-5.4-1.238a1.406,1.406,0,0,0-.92.934,9.85,9.85,0,0,1-.747,1.811,1.4,1.4,0,0,0-.009,1.31l1.776,3.4a14.206,14.206,0,0,1-1.05,1.05l-3.4-1.776a1.4,1.4,0,0,0-1.31.009,9.824,9.824,0,0,1-1.811.747,1.409,1.409,0,0,0-.934.92l-1.153,3.673a11.6,11.6,0,0,1-1.474,0l-1.154-3.673a1.4,1.4,0,0,0-.934-.92,9.688,9.688,0,0,1-1.809-.747,1.4,1.4,0,0,0-1.311-.009l-3.4,1.776a14.2,14.2,0,0,1-1.05-1.05l1.776-3.4a1.4,1.4,0,0,0-.009-1.31,9.8,9.8,0,0,1-.747-1.811,1.409,1.409,0,0,0-.921-.934l-3.672-1.153c-.017-.256-.024-.5-.024-.737s.007-.481.024-.737l3.672-1.153a1.406,1.406,0,0,0,.921-.934,9.734,9.734,0,0,1,.747-1.81,1.4,1.4,0,0,0,.009-1.311l-1.776-3.4a13.964,13.964,0,0,1,1.05-1.05l3.4,1.776a1.4,1.4,0,0,0,1.31-.009,9.847,9.847,0,0,1,1.81-.747,1.405,1.405,0,0,0,.934-.92l1.154-3.673a11.785,11.785,0,0,1,1.474,0l1.153,3.673a1.408,1.408,0,0,0,.934.92,9.763,9.763,0,0,1,1.81.747,1.4,1.4,0,0,0,1.311.009l3.4-1.776a14.2,14.2,0,0,1,1.05,1.05l-1.776,3.4a1.4,1.4,0,0,0,.009,1.31,9.878,9.878,0,0,1,.747,1.811,1.408,1.408,0,0,0,.92.934l3.673,1.153c.016.256.024.5.024.737s-.008.481-.024.737Zm0,0"/>
      <path id="Trazado_6237" data-name="Trazado 6237" d="M4019.285,4680.6l-2.4-.853a11.274,11.274,0,0,0-.472-1.144l1.094-2.3a1.393,1.393,0,0,0-.163-1.461,14.031,14.031,0,0,0-2.406-2.407,1.4,1.4,0,0,0-1.462-.163l-2.3,1.093a11.3,11.3,0,0,0-1.143-.47l-.855-2.4a1.4,1.4,0,0,0-1.15-.922,12.97,12.97,0,0,0-3.4,0,1.4,1.4,0,0,0-1.15.922l-.854,2.4a11.178,11.178,0,0,0-1.143.472l-2.3-1.093a1.4,1.4,0,0,0-1.461.162,14.015,14.015,0,0,0-2.407,2.406,1.4,1.4,0,0,0-.163,1.462l1.093,2.3a11.285,11.285,0,0,0-.47,1.141l-2.4.856a1.405,1.405,0,0,0-.922,1.15,13.924,13.924,0,0,0-.113,1.7,14.158,14.158,0,0,0,.112,1.7,1.4,1.4,0,0,0,.922,1.151l2.4.853a11.551,11.551,0,0,0,.472,1.144l-1.093,2.3a1.4,1.4,0,0,0,.163,1.462,14.166,14.166,0,0,0,2.405,2.407,1.4,1.4,0,0,0,1.463.162l2.3-1.093a11.284,11.284,0,0,0,1.142.471l.855,2.4a1.4,1.4,0,0,0,1.151.922,13.547,13.547,0,0,0,1.7.114,13.929,13.929,0,0,0,1.7-.112,1.4,1.4,0,0,0,1.15-.921l.854-2.4a11.878,11.878,0,0,0,1.144-.472l2.3,1.093a1.393,1.393,0,0,0,1.462-.163,14.137,14.137,0,0,0,2.407-2.406,1.4,1.4,0,0,0,.162-1.462l-1.093-2.3a11.279,11.279,0,0,0,.471-1.143l2.4-.854a1.4,1.4,0,0,0,.921-1.151,13.388,13.388,0,0,0,.115-1.7,13.951,13.951,0,0,0-.112-1.7,1.4,1.4,0,0,0-.921-1.152Zm-1.78,3.36-2.218.788a1.4,1.4,0,0,0-.88.945,8.323,8.323,0,0,1-.777,1.885,1.4,1.4,0,0,0-.046,1.289l1.005,2.118c-.232.254-.476.5-.73.728l-2.117-1a1.406,1.406,0,0,0-1.289.047,8.336,8.336,0,0,1-1.884.776,1.405,1.405,0,0,0-.946.881l-.788,2.218a9.623,9.623,0,0,1-1.021,0l-.788-2.218a1.4,1.4,0,0,0-.945-.881,8.367,8.367,0,0,1-1.885-.776,1.412,1.412,0,0,0-1.289-.047l-2.117,1q-.383-.348-.73-.728l1-2.118a1.4,1.4,0,0,0-.045-1.289,8.338,8.338,0,0,1-.778-1.884,1.4,1.4,0,0,0-.88-.946l-2.218-.788c-.011-.169-.017-.338-.017-.511s.006-.342.014-.511l2.218-.789a1.393,1.393,0,0,0,.88-.945,8.333,8.333,0,0,1,.778-1.885,1.4,1.4,0,0,0,.045-1.288l-1.005-2.118q.35-.382.73-.729l2.118,1a1.392,1.392,0,0,0,1.288-.046,8.33,8.33,0,0,1,1.884-.777,1.407,1.407,0,0,0,.946-.88l.788-2.219a9.642,9.642,0,0,1,1.022,0l.788,2.219a1.4,1.4,0,0,0,.944.88,8.313,8.313,0,0,1,1.886.777,1.392,1.392,0,0,0,1.288.046l2.117-1c.256.232.5.476.73.729l-1,2.118a1.4,1.4,0,0,0,.046,1.288,8.326,8.326,0,0,1,.777,1.884,1.4,1.4,0,0,0,.88.946l2.219.788c.011.171.016.34.016.512s-.005.342-.014.511Zm0,0"/>
      <path id="Trazado_6238" data-name="Trazado 6238" d="M3964.338,4705.845a15.395,15.395,0,1,0-15.394-15.394,15.412,15.412,0,0,0,15.394,15.394Zm0-27.99a12.6,12.6,0,1,1-12.595,12.6,12.611,12.611,0,0,1,12.595-12.6Zm0,0"/>
      <path id="Trazado_6239" data-name="Trazado 6239" d="M3936.379,4667.161l2.15,1.794a33.518,33.518,0,0,1,25.809-12.092c.713,0,1.424.041,2.134.086l-1.724,1.724,1.979,1.978,4.2-4.2a1.4,1.4,0,0,0,0-1.979l-4.2-4.2-1.979,1.978,1.9,1.9c-.769-.048-1.541-.092-2.312-.092a36.314,36.314,0,0,0-27.959,13.1Zm0,0"/>
      <path id="Trazado_6240" data-name="Trazado 6240" d="M3993.728,4644.268a7,7,0,1,0,7,7,7,7,0,0,0-7-7Zm0,11.195a4.2,4.2,0,1,1,4.2-4.2,4.2,4.2,0,0,1-4.2,4.2Zm0,0"/>
      <path id="Trazado_6241" data-name="Trazado 6241" d="M4006.323,4677.855a5.6,5.6,0,1,0,5.6,5.6,5.6,5.6,0,0,0-5.6-5.6Zm0,8.4a2.8,2.8,0,1,1,2.8-2.8,2.8,2.8,0,0,1-2.8,2.8Zm0,0"/>
      <path id="Trazado_6242" data-name="Trazado 6242" d="M4019.193,4638.7l-7-1.4a1.4,1.4,0,0,0-1.648,1.1l-1.4,7,2.744.55.754-3.767a20.981,20.981,0,0,1,2.073,9.089,20.764,20.764,0,0,1-4.6,13.12l2.184,1.751a23.812,23.812,0,0,0,2.762-25.411l3.582.717Zm0,0"/>
    </g>
  </g>
</svg>
