<svg xmlns="http://www.w3.org/2000/svg" width="172.236" height="172.235" viewBox="0 0 172.236 172.235">
  <g id="Grupo_8129" data-name="Grupo 8129" transform="translate(-353.76 -2649.056)">
    <path id="Trazado_1262" data-name="Trazado 1262" d="M526,2735.173a86.118,86.118,0,1,1-86.118-86.117A86.117,86.117,0,0,1,526,2735.173Zm0,0" fill="#5fc6ff"/>
    <g id="Grupo_8128" data-name="Grupo 8128">
      <path id="Trazado_1263" data-name="Trazado 1263" d="M471.081,2742.762a29.644,29.644,0,0,0-9.3,17.821l-1.774,13.629a28.742,28.742,0,0,1-21.174,20.671c-19,4.49-38.995-10.376-38.995-31.6v-49.115a39.513,39.513,0,0,1,38.995-39.507c18.8-.261,34.176,12.91,38.992,30.5,3.7,13.516,3.073,28.928-6.747,37.6Zm0,0" fill="#f9cabe"/>
      <path id="Trazado_1264" data-name="Trazado 1264" d="M438.836,2693.139v0a21.8,21.8,0,0,0-24.329,21.649v5.872a10.319,10.319,0,0,0,10.308,10.306,4.79,4.79,0,0,1,0,9.574,10.32,10.32,0,0,0-10.308,10.306v9.556A14.738,14.738,0,0,0,429,2775.2h.11a14.557,14.557,0,0,0,9.722-3.678v0a14.534,14.534,0,0,0,4.87-10.336,3.559,3.559,0,0,0-4.87-3.45v0a3.545,3.545,0,0,0-2.239,3.162,7.459,7.459,0,0,1-7.485,7.185h-.055a7.6,7.6,0,0,1-7.433-7.676v-9.556a3.194,3.194,0,0,1,3.191-3.188,11.905,11.905,0,0,0,0-23.809,3.2,3.2,0,0,1-3.191-3.189v-5.872a14.687,14.687,0,0,1,17.212-14.462h0A14.714,14.714,0,0,1,451,2714.8v11.537a6.3,6.3,0,0,1-1.385,3.936,3.558,3.558,0,0,0,5.546,4.46,13.448,13.448,0,0,0,2.957-8.4V2714.8A21.834,21.834,0,0,0,438.836,2693.139Z" fill="#f9a089"/>
    </g>
  </g>
</svg>
