<svg xmlns="http://www.w3.org/2000/svg" width="135.392" height="125.143" viewBox="0 0 135.392 125.143">
  <g id="Grupo_9252" data-name="Grupo 9252" transform="translate(-3636.961 -4163.501)">
    <rect id="Rectángulo_3175" data-name="Rectángulo 3175" width="135.392" height="125.143" rx="12" transform="translate(3636.961 4163.501)" fill="#f15d62"/>
    <g id="Grupo_8983" data-name="Grupo 8983">
      <path id="Trazado_6195" data-name="Trazado 6195" d="M3718.055,4239c-3.912,3.912-3.423,11.806-3.423,11.806h-19.84s.419-7.894-3.423-11.806a20.19,20.19,0,1,1,26.686,0Z" fill="#fec800"/>
      <path id="Trazado_6196" data-name="Trazado 6196" d="M3715.191,4257.02a1.879,1.879,0,0,1-1.887,1.886h-17.255a1.878,1.878,0,0,1-1.886-1.886h0a1.878,1.878,0,0,1,1.886-1.886h17.186a1.939,1.939,0,0,1,1.956,1.886Z" fill="#e5e2e2"/>
      <path id="Trazado_6197" data-name="Trazado 6197" d="M3712.606,4264.844a1.878,1.878,0,0,1-1.886,1.886h-12.086a1.878,1.878,0,0,1-1.886-1.886h0a1.878,1.878,0,0,1,1.886-1.886h12.086a1.878,1.878,0,0,1,1.886,1.886Z" fill="#e5e2e2"/>
      <path id="Trazado_6198" data-name="Trazado 6198" d="M3717.147,4237.949a.693.693,0,0,0-.28.349c-3.074,3.283-3.563,8.662-3.632,11.177h-17.116c-.07-2.585-.629-8.173-3.912-11.457a18.924,18.924,0,1,1,31.367-14.251,18.79,18.79,0,0,1-6.427,14.182Zm1.956,1.746a21.573,21.573,0,1,0-28.712.21c3.423,3.423,3.074,10.688,3.074,10.758a1.669,1.669,0,0,0,.349.978,1.382,1.382,0,0,0,.978.419h19.77a1.383,1.383,0,0,0,.978-.419,1.31,1.31,0,0,0,.349-.978c0-.07-.349-7.335,3.074-10.758.07-.07.14-.14.14-.21Z"/>
      <path id="Trazado_6199" data-name="Trazado 6199" d="M3704.642,4207.7a1.327,1.327,0,1,0,0,2.654,14.192,14.192,0,0,1,14.181,14.182,1.328,1.328,0,0,0,2.655,0,16.845,16.845,0,0,0-16.836-16.836Z"/>
      <path id="Trazado_6200" data-name="Trazado 6200" d="M3713.235,4257.579h-17.186a.559.559,0,0,1,0-1.118h17.186a.55.55,0,0,1,.558.559c.07.349-.209.559-.558.559Zm3.283-.559a3.206,3.206,0,0,0-3.214-3.214h-17.255a3.213,3.213,0,0,0,0,6.427h17.186a3.22,3.22,0,0,0,3.283-3.213Z"/>
      <path id="Trazado_6201" data-name="Trazado 6201" d="M3710.72,4265.4h-12.086a.559.559,0,1,1,0-1.118h12.086a.551.551,0,0,1,.558.559.514.514,0,0,1-.558.559Zm0-3.773h-12.086a3.214,3.214,0,0,0,0,6.427h12.086a3.2,3.2,0,0,0,3.213-3.213,3.251,3.251,0,0,0-3.213-3.214Z"/>
      <path id="Trazado_6202" data-name="Trazado 6202" d="M3705.969,4194.357v-8.942a1.327,1.327,0,1,0-2.654,0v9.012a1.326,1.326,0,0,0,1.327,1.327,1.387,1.387,0,0,0,1.327-1.4Z"/>
      <path id="Trazado_6203" data-name="Trazado 6203" d="M3726.647,4190.724a1.328,1.328,0,0,0-1.816.35l-4.96,7.474a1.329,1.329,0,0,0,.349,1.817,1.358,1.358,0,0,0,.7.209,1.458,1.458,0,0,0,1.118-.559l4.96-7.474a1.341,1.341,0,0,0-.35-1.817Z"/>
      <path id="Trazado_6204" data-name="Trazado 6204" d="M3688.854,4200.295a1.332,1.332,0,0,0,1.118-2.026l-4.82-7.545a1.318,1.318,0,0,0-2.236,1.4l4.82,7.545a1.344,1.344,0,0,0,1.118.629Z"/>
      <path id="Trazado_6205" data-name="Trazado 6205" d="M3670.342,4206.582l7.894,4.261a1.033,1.033,0,0,0,.628.14,1.442,1.442,0,0,0,1.188-.7,1.315,1.315,0,0,0-.559-1.817l-7.894-4.261a1.313,1.313,0,0,0-1.816.559,1.42,1.42,0,0,0,.559,1.816Z"/>
      <path id="Trazado_6206" data-name="Trazado 6206" d="M3730.42,4211.053a2.038,2.038,0,0,0,.628-.14l7.894-4.261a1.344,1.344,0,0,0-1.257-2.375l-7.894,4.261a1.332,1.332,0,0,0,.629,2.515Z"/>
    </g>
  </g>
</svg>
