<svg xmlns="http://www.w3.org/2000/svg" width="135.392" height="125.143" viewBox="0 0 135.392 125.143">
  <g id="Grupo_9253" data-name="Grupo 9253" transform="translate(-4184.313 -4163.501)">
    <rect id="Rectángulo_3177" data-name="Rectángulo 3177" width="135.392" height="125.143" rx="12" transform="translate(4184.313 4163.501)" fill="#ffc82e"/>
    <g id="Grupo_9016" data-name="Grupo 9016">
      <g id="Grupo_8984" data-name="Grupo 8984">
        <rect id="Rectángulo_3180" data-name="Rectángulo 3180" width="72.774" height="33.588" transform="translate(4216.401 4233.149)" fill="#fbb540"/>
      </g>
      <g id="Grupo_8985" data-name="Grupo 8985">
        <rect id="Rectángulo_3181" data-name="Rectángulo 3181" width="72.774" height="11.196" transform="translate(4216.401 4244.345)" fill="#ea9d2d"/>
      </g>
      <g id="Grupo_8986" data-name="Grupo 8986">
        <rect id="Rectángulo_3182" data-name="Rectángulo 3182" width="6.997" height="13.995" transform="translate(4227.597 4219.154)" fill="#683b0d"/>
      </g>
      <g id="Grupo_8987" data-name="Grupo 8987">
        <path id="Trazado_6207" data-name="Trazado 6207" d="M4224.8,4190.814l.387.258a3.951,3.951,0,1,0,7.623,0l.387-.258-.387-.258a3.951,3.951,0,1,0-7.623,0Zm0,0" fill="#fbb540"/>
      </g>
      <g id="Grupo_8988" data-name="Grupo 8988">
        <path id="Trazado_6208" data-name="Trazado 6208" d="M4216.4,4199.911l.387.258a3.951,3.951,0,1,0,7.623,0l.387-.258-.387-.258a3.951,3.951,0,1,0-7.623,0Zm0,0" fill="#fbb540"/>
      </g>
      <g id="Grupo_8989" data-name="Grupo 8989">
        <path id="Trazado_6209" data-name="Trazado 6209" d="M4248.722,4191.93l-1.532-.766v5.267a2.8,2.8,0,1,1-5.6,0v-5.267l-1.533.766a7.356,7.356,0,0,0-2.594,10.992l2.727,3.636v26.591h8.4v-26.591l2.727-3.636a7.353,7.353,0,0,0-2.594-10.992Zm0,0" fill="#cbcbcb"/>
      </g>
      <g id="Grupo_8990" data-name="Grupo 8990">
        <rect id="Rectángulo_3183" data-name="Rectángulo 3183" width="8.397" height="8.397" transform="translate(4226.197 4210.757)" fill="#0bafea"/>
      </g>
      <g id="Grupo_8991" data-name="Grupo 8991">
        <rect id="Rectángulo_3184" data-name="Rectángulo 3184" width="5.598" height="8.397" transform="translate(4215.001 4210.757)" fill="#0bafea"/>
      </g>
      <g id="Grupo_8992" data-name="Grupo 8992">
        <path id="Trazado_6210" data-name="Trazado 6210" d="M4226.2,4212.156l-5.6-1.4v8.4l5.6-1.4Zm0,0" fill="#0a9acd"/>
      </g>
      <g id="Grupo_8993" data-name="Grupo 8993">
        <path id="Trazado_6211" data-name="Trazado 6211" d="M4234.594,4212.156h5.6l4.2,8.4h-2.468a5.064,5.064,0,0,1-4.53-2.8h-2.8Zm0,0" fill="#0a9acd"/>
      </g>
      <g id="Grupo_8994" data-name="Grupo 8994">
        <path id="Trazado_6212" data-name="Trazado 6212" d="M4223.4,4240.146H4222a1.4,1.4,0,1,1,0-2.8h1.4a1.4,1.4,0,1,1,0,2.8Zm0,0" fill="#c38325"/>
      </g>
      <g id="Grupo_8995" data-name="Grupo 8995">
        <path id="Trazado_6213" data-name="Trazado 6213" d="M4223.4,4251.342H4222a1.4,1.4,0,1,1,0-2.8h1.4a1.4,1.4,0,1,1,0,2.8Zm0,0" fill="#c38325"/>
      </g>
      <g id="Grupo_8996" data-name="Grupo 8996">
        <path id="Trazado_6214" data-name="Trazado 6214" d="M4223.4,4262.538H4222a1.4,1.4,0,1,1,0-2.8h1.4a1.4,1.4,0,1,1,0,2.8Zm0,0" fill="#c38325"/>
      </g>
      <g id="Grupo_8997" data-name="Grupo 8997">
        <path id="Trazado_6215" data-name="Trazado 6215" d="M4262.584,4203.759a8.4,8.4,0,0,0-4.2,15.668v13.722h8.4v-13.722a8.4,8.4,0,0,0-4.2-15.668Zm1.565,11.107h-3.129l-1.565-2.71,1.565-2.709h3.129l1.565,2.709Zm0,0" fill="#d32b39"/>
      </g>
      <g id="Grupo_8998" data-name="Grupo 8998">
        <path id="Trazado_6216" data-name="Trazado 6216" d="M4276.579,4191.164l-1.4,5.6,1.4,4.2v18.193h5.6v-18.193l1.4-4.2-1.4-5.6Zm0,0" fill="#cbcbcb"/>
      </g>
      <g id="Grupo_8999" data-name="Grupo 8999">
        <path id="Trazado_6217" data-name="Trazado 6217" d="M4283.577,4196.762h-8.4l1.4-5.6h5.6Zm0,0" fill="#eaeae8"/>
      </g>
      <g id="Grupo_9000" data-name="Grupo 9000">
        <path id="Trazado_6218" data-name="Trazado 6218" d="M4275.18,4219.154h8.4a2.8,2.8,0,0,1,0,5.6h-8.4a2.8,2.8,0,1,1,0-5.6Zm0,0" fill="#02a437"/>
      </g>
      <g id="Grupo_9001" data-name="Grupo 9001">
        <rect id="Rectángulo_3185" data-name="Rectángulo 3185" width="8.397" height="8.397" transform="translate(4275.18 4224.752)" fill="#02a437"/>
      </g>
      <g id="Grupo_9002" data-name="Grupo 9002">
        <rect id="Rectángulo_3186" data-name="Rectángulo 3186" width="8.397" height="2.799" transform="translate(4275.18 4224.752)" fill="#027e2a"/>
      </g>
      <g id="Grupo_9003" data-name="Grupo 9003">
        <rect id="Rectángulo_3187" data-name="Rectángulo 3187" width="6.997" height="2.799" transform="translate(4227.597 4219.154)" fill="#533222"/>
      </g>
      <g id="Grupo_9004" data-name="Grupo 9004">
        <path id="Trazado_6219" data-name="Trazado 6219" d="M4224.022,4191.979l.387.258a8.318,8.318,0,0,1,3.26,4.268,1.4,1.4,0,0,0,2.655,0,8.318,8.318,0,0,1,3.26-4.268l.387-.258a1.4,1.4,0,0,0,0-2.329l-.387-.258a8.319,8.319,0,0,1-3.26-4.269,1.4,1.4,0,0,0-2.655,0,8.319,8.319,0,0,1-3.26,4.269l-.387.258a1.4,1.4,0,0,0,0,2.329ZM4229,4188.7a2.134,2.134,0,0,1,0,4.233,2.135,2.135,0,0,1,0-4.233Zm0,0"/>
      </g>
      <g id="Grupo_9005" data-name="Grupo 9005">
        <path id="Trazado_6220" data-name="Trazado 6220" d="M4215.625,4201.075l.387.258a8.319,8.319,0,0,1,3.26,4.269,1.4,1.4,0,0,0,2.655,0,8.322,8.322,0,0,1,3.26-4.269l.387-.258a1.4,1.4,0,0,0,0-2.329l-.387-.257a8.327,8.327,0,0,1-3.26-4.269,1.4,1.4,0,0,0-2.655,0,8.324,8.324,0,0,1-3.26,4.269l-.387.257a1.4,1.4,0,0,0,0,2.329Zm4.974-3.281a2.134,2.134,0,0,1,0,4.233,2.135,2.135,0,0,1,0-4.233Zm0,0"/>
      </g>
      <g id="Grupo_9009" data-name="Grupo 9009">
        <g id="Grupo_9006" data-name="Grupo 9006">
          <path id="Trazado_6221" data-name="Trazado 6221" d="M4223.4,4237.347H4222a1.4,1.4,0,1,0,0,2.8h1.4a1.4,1.4,0,1,0,0-2.8Zm0,0"/>
        </g>
        <g id="Grupo_9007" data-name="Grupo 9007">
          <path id="Trazado_6222" data-name="Trazado 6222" d="M4223.4,4248.543H4222a1.4,1.4,0,1,0,0,2.8h1.4a1.4,1.4,0,1,0,0-2.8Zm0,0"/>
        </g>
        <g id="Grupo_9008" data-name="Grupo 9008">
          <path id="Trazado_6223" data-name="Trazado 6223" d="M4223.4,4259.739H4222a1.4,1.4,0,1,0,0,2.8h1.4a1.4,1.4,0,1,0,0-2.8Zm0,0"/>
        </g>
      </g>
      <g id="Grupo_9013" data-name="Grupo 9013">
        <g id="Grupo_9010" data-name="Grupo 9010">
          <path id="Trazado_6224" data-name="Trazado 6224" d="M4283.283,4237.347h-1.4a1.4,1.4,0,0,0,0,2.8h1.4a1.4,1.4,0,0,0,0-2.8Zm0,0"/>
        </g>
        <g id="Grupo_9011" data-name="Grupo 9011">
          <path id="Trazado_6225" data-name="Trazado 6225" d="M4283.283,4248.543h-1.4a1.4,1.4,0,0,0,0,2.8h1.4a1.4,1.4,0,0,0,0-2.8Zm0,0"/>
        </g>
        <g id="Grupo_9012" data-name="Grupo 9012">
          <path id="Trazado_6226" data-name="Trazado 6226" d="M4283.283,4259.739h-1.4a1.4,1.4,0,0,0,0,2.8h1.4a1.4,1.4,0,0,0,0-2.8Zm0,0"/>
        </g>
      </g>
      <g id="Grupo_9014" data-name="Grupo 9014">
        <path id="Trazado_6227" data-name="Trazado 6227" d="M4261.02,4216.266h3.129a1.4,1.4,0,0,0,1.212-.7l1.565-2.71a1.4,1.4,0,0,0,0-1.4l-1.565-2.71a1.4,1.4,0,0,0-1.212-.7h-3.129a1.4,1.4,0,0,0-1.213.7l-1.564,2.71a1.4,1.4,0,0,0,0,1.4l1.564,2.71a1.4,1.4,0,0,0,1.213.7Zm.807-5.42h1.514l.757,1.31-.757,1.311h-1.514l-.756-1.311Zm0,0"/>
      </g>
      <g id="Grupo_9015" data-name="Grupo 9015">
        <path id="Trazado_6228" data-name="Trazado 6228" d="M4256.635,4219.936c.114.089.232.175.351.258v11.555h2.8v-12.322a1.4,1.4,0,0,0-.7-1.211,7.116,7.116,0,0,1-.75-.5,7,7,0,1,1,7.746.5,1.4,1.4,0,0,0-.7,1.211v12.322h2.8v-11.555a9.8,9.8,0,1,0-11.547-.258Z"/>
        <path id="Trazado_6229" data-name="Trazado 6229" d="M4275.18,4201.188v16.566a4.2,4.2,0,0,0-1.4,8.157v5.838h2.8v-5.6h5.6v5.6h2.8v-5.838a4.2,4.2,0,0,0-1.4-8.157v-16.566l1.327-3.983a1.39,1.39,0,0,0,.03-.782l-1.4-5.6a1.4,1.4,0,0,0-1.358-1.06h-5.6a1.4,1.4,0,0,0-1.357,1.06l-1.4,5.6a1.39,1.39,0,0,0,.03.782Zm2.492-8.624h3.413l.7,2.8h-4.812Zm.235,7.954-.786-2.357h4.514l-.785,2.357a1.38,1.38,0,0,0-.072.443v16.793h-2.8v-16.793A1.421,1.421,0,0,0,4277.907,4200.518Zm5.67,20.035a1.4,1.4,0,0,1,0,2.8h-8.4a1.4,1.4,0,1,1,0-2.8Z"/>
        <path id="Trazado_6230" data-name="Trazado 6230" d="M4224.852,4219.533a1.4,1.4,0,0,0,1.345,1.02v11.2h2.8v-11.2h4.2v11.2h2.8v-12.6h.6a6.412,6.412,0,0,0,2.2,2v10.6h2.8v-9.806c.109.005.219.01.331.01h2.468a1.4,1.4,0,0,0,1.252-2.026l-4.051-8.1v-5.268a1.408,1.408,0,0,0-.28-.84l-2.728-3.636a5.993,5.993,0,0,1-1.191-3.573,5.923,5.923,0,0,1,2.8-5.052v2.974a4.2,4.2,0,1,0,8.4,0v-2.974a5.919,5.919,0,0,1,2.8,5.052,6,6,0,0,1-1.19,3.573l-2.728,3.636a1.4,1.4,0,0,0-.28.84v25.191h2.8v-24.724l2.447-3.264a8.8,8.8,0,0,0,1.751-5.252,8.708,8.708,0,0,0-4.839-7.831l-1.532-.766a1.4,1.4,0,0,0-2.026,1.252v5.267a1.4,1.4,0,1,1-2.8,0v-5.267a1.4,1.4,0,0,0-2.025-1.252l-1.533.766a8.708,8.708,0,0,0-4.839,7.831,8.8,8.8,0,0,0,1.752,5.252l2.447,3.264v3.732h-2.8a1.4,1.4,0,0,0-1.4-1.4h-8.4a1.4,1.4,0,0,0-1.345,1.021l-3.914-.979,0,0a1.406,1.406,0,0,0-.341-.044H4215a1.4,1.4,0,0,0-1.4,1.4v8.4a1.4,1.4,0,0,0,1.4,1.4s5.546,0,5.6-.01C4220.613,4220.542,4224.852,4219.533,4224.852,4219.533Zm11.142-5.977h3.334l2.8,5.6h-.2a3.643,3.643,0,0,1-3.278-2.026,1.4,1.4,0,0,0-1.252-.773h-1.4Zm-8.4-1.4h5.6v5.6h-5.6Zm-5.6.393,2.8.7v3.413l-2.8.7Zm-2.8,5.205h-2.8v-5.6h2.8Z"/>
        <path id="Trazado_6231" data-name="Trazado 6231" d="M4289.175,4231.907H4216.4a1.241,1.241,0,0,0-1.242,1.242v33.588a1.242,1.242,0,0,0,1.242,1.242h72.774a1.242,1.242,0,0,0,1.242-1.242v-33.588A1.242,1.242,0,0,0,4289.175,4231.907Zm-71.532,13.68h70.29v8.712h-70.29Zm70.29-11.2v8.712h-70.29v-8.712Zm-70.29,31.1v-8.712h70.29v8.712Z"/>
      </g>
    </g>
  </g>
</svg>
