<svg xmlns="http://www.w3.org/2000/svg" width="135.392" height="125.143" viewBox="0 0 135.392 125.143">
  <g id="Grupo_9251" data-name="Grupo 9251" transform="translate(-4184.313 -3639.114)">
    <rect id="Rectángulo_3173" data-name="Rectángulo 3173" width="135.392" height="125.143" rx="12" transform="translate(4184.313 3639.114)" fill="#96c940"/>
    <g id="Grupo_8982" data-name="Grupo 8982">
      <path id="Trazado_6187" data-name="Trazado 6187" d="M4290.913,3733.632a4.919,4.919,0,1,1-6.957,6.957l-15.838-15.838a41.489,41.489,0,0,0,6.957-6.957l15.838,15.838Z" fill="#00aad6"/>
      <path id="Trazado_6188" data-name="Trazado 6188" d="M4268.054,3710.773l7.021,7.021a41.489,41.489,0,0,1-6.957,6.957l-7.021-7.021h0a31.382,31.382,0,0,0,6.955-6.956Z" fill="#ffeec9"/>
      <path id="Trazado_6189" data-name="Trazado 6189" d="M4273.986,3692.5a30.987,30.987,0,0,1-5.934,18.271,31.382,31.382,0,0,1-6.955,6.956,31.151,31.151,0,1,1,12.889-25.227Z" fill="#00aad6"/>
      <path id="Trazado_6190" data-name="Trazado 6190" d="M4242.825,3667.9a24.6,24.6,0,1,1-24.6,24.6,24.629,24.629,0,0,1,24.6-24.6Z" fill="#a8dae7"/>
      <path id="Trazado_6191" data-name="Trazado 6191" d="M4289.753,3739.429a3.275,3.275,0,0,1-4.638,0l-14.562-14.562a43.226,43.226,0,0,0,4.637-4.638l14.563,14.563a3.277,3.277,0,0,1,0,4.637Zm-76.448-46.927a29.517,29.517,0,1,1,46.828,23.9h0a29.506,29.506,0,0,1-46.828-23.9Zm50.269,25.386a32.932,32.932,0,0,0,4.638-4.637l4.653,4.653a39.845,39.845,0,0,1-4.638,4.637l-4.653-4.653Zm28.5,14.584-21.891-21.891a32.508,32.508,0,0,0,5.445-18.079,32.8,32.8,0,1,0-32.8,32.8,32.507,32.507,0,0,0,18.08-5.444l6.051,6.051,0,0,15.838,15.838a6.559,6.559,0,1,0,9.276-9.277Z" fill="#1a1413"/>
      <path id="Trazado_6192" data-name="Trazado 6192" d="M4242.825,3715.462a22.96,22.96,0,1,1,22.961-22.96,22.986,22.986,0,0,1-22.961,22.96Zm26.241-22.96a26.24,26.24,0,1,0-26.241,26.24,26.27,26.27,0,0,0,26.241-26.24Z" fill="#1a1413"/>
      <path id="Trazado_6193" data-name="Trazado 6193" d="M4260.261,3687.581a1.641,1.641,0,0,0,.943-2.12,19.711,19.711,0,0,0-18.379-12.64,1.64,1.64,0,1,0,0,3.28,16.51,16.51,0,0,1,15.317,10.537,1.641,1.641,0,0,0,2.119.943Z" fill="#1a1413"/>
      <path id="Trazado_6194" data-name="Trazado 6194" d="M4260.866,3690.861a1.641,1.641,0,1,0,1.64,1.641,1.641,1.641,0,0,0-1.64-1.641Z" fill="#1a1413"/>
    </g>
  </g>
</svg>
