<svg xmlns="http://www.w3.org/2000/svg" width="108.2" height="112.598" viewBox="0 0 108.2 112.598">
  <g id="Grupo_9445" data-name="Grupo 9445" transform="translate(-187.924 -2340.669)">
    <path id="Trazado_6804" data-name="Trazado 6804" d="M248.355,2342.318h-54.35a4.432,4.432,0,0,0-4.432,4.432v100.436a4.431,4.431,0,0,0,4.432,4.431h72.6a4.431,4.431,0,0,0,4.432-4.431V2365Zm0,0" fill="#f2f2f2"/>
    <path id="Trazado_6805" data-name="Trazado 6805" d="M252.967,2346.931V2370.9a2.288,2.288,0,0,0,2.288,2.288h3.971v74a4.432,4.432,0,0,1-4.432,4.432h11.813a4.432,4.432,0,0,0,4.432-4.432V2365Zm0,0" fill="#cdd6df"/>
    <path id="Trazado_6806" data-name="Trazado 6806" d="M230.973,2430.612h-9.49a2.459,2.459,0,0,1-2.459-2.459v-7.722a2.458,2.458,0,0,1,2.459-2.458h9.49Zm0,0" fill="#fd715c"/>
    <path id="Trazado_6807" data-name="Trazado 6807" d="M248.355,2362.714v-20.4L271.039,2365h-20.4a2.289,2.289,0,0,1-2.288-2.288Zm0,0" fill="#b3b3b3"/>
    <path id="Trazado_6808" data-name="Trazado 6808" d="M242.163,2451.338l-.473.126a4.484,4.484,0,0,1-5.489-3.174l-5.127-19.173,9.134-2.443,5.127,19.174a4.484,4.484,0,0,1-3.172,5.49Zm0,0" fill="#426175"/>
    <path id="Trazado_6809" data-name="Trazado 6809" d="M245.432,2434.519H230.077a3.979,3.979,0,0,1-3.979-3.979v-12.5a3.978,3.978,0,0,1,3.979-3.978h15.355Zm0,0" fill="#fed066"/>
    <path id="Trazado_6810" data-name="Trazado 6810" d="M287.2,2431.565h-8.6v-14.546h8.6a7.273,7.273,0,0,1,0,14.546Zm0,0" fill="#cdd6df"/>
    <path id="Trazado_6811" data-name="Trazado 6811" d="M281.979,2451.412l-36.547-16.893v-20.453l36.547-16.894a1.9,1.9,0,0,1,2.748,1.694v50.853a1.9,1.9,0,0,1-2.748,1.693Zm0,0" fill="#fd715c"/>
    <path id="Trazado_6812" data-name="Trazado 6812" d="M245.432,2434.519H230.077a3.979,3.979,0,0,1-3.979-3.979v-12.5a3.978,3.978,0,0,1,3.979-3.978h15.355Zm0,0" fill="#fed066"/>
    <path id="Trazado_6813" data-name="Trazado 6813" d="M281.979,2451.412l-36.547-16.893v-20.453l36.547-16.894a1.9,1.9,0,0,1,2.748,1.694v50.853a1.9,1.9,0,0,1-2.748,1.693Zm0,0" fill="#fd715c"/>
    <path id="Trazado_6814" data-name="Trazado 6814" d="M226.1,2430.54a3.979,3.979,0,0,0,3.979,3.979h15.355V2421.6H226.1Zm0,0" fill="#f5b556"/>
    <path id="Trazado_6815" data-name="Trazado 6815" d="M245.432,2421.6v12.915l36.547,16.893a1.9,1.9,0,0,0,2.748-1.693v-10.134Zm0,0" fill="#e5483c"/>
    <path id="Trazado_6816" data-name="Trazado 6816" d="M231.139,2449.967H194.005a2.786,2.786,0,0,1-2.783-2.782V2346.75a2.786,2.786,0,0,1,2.783-2.782h52.7v18.746a3.942,3.942,0,0,0,3.937,3.938H269.39v28.721a1.649,1.649,0,0,0,3.3,0V2365a1.649,1.649,0,0,0-.483-1.166l-22.684-22.685a1.652,1.652,0,0,0-1.166-.482h-54.35a6.087,6.087,0,0,0-6.081,6.081v100.435a6.087,6.087,0,0,0,6.081,6.081h37.133a1.65,1.65,0,0,0,0-3.3ZM250,2362.714V2346.3l17.052,17.052H250.642a.639.639,0,0,1-.638-.638Zm0,0" fill="#4d4d4d"/>
    <path id="Trazado_6817" data-name="Trazado 6817" d="M287.2,2415.37h-.825v-16.5a3.547,3.547,0,0,0-5.111-3.182l-36.2,16.732H230.077a5.638,5.638,0,0,0-5.359,3.907h-3.234a4.113,4.113,0,0,0-4.109,4.108v7.722a4.112,4.112,0,0,0,4.109,4.108h3.234a5.637,5.637,0,0,0,5.359,3.907h1.176l3.355,12.549a6.141,6.141,0,0,0,5.11,4.494,1.65,1.65,0,0,0,.425.055h26.464a6.093,6.093,0,0,0,5.855-4.436l8.8,4.069a3.545,3.545,0,0,0,5.11-3.18v-16.5h.825a8.922,8.922,0,1,0,0-17.844Zm-66.529,12.783v-7.722a.811.811,0,0,1,.811-.809h2.965v9.341h-2.965a.812.812,0,0,1-.811-.81Zm7.075,2.387v-12.5a2.331,2.331,0,0,1,2.329-2.329h13.706v17.154H230.077a2.331,2.331,0,0,1-2.329-2.329Zm6.919,5.627h6.373l2.7,10.107a2.837,2.837,0,0,1-2.006,3.47l-.472.126a2.837,2.837,0,0,1-3.469-2.006Zm31.94,13.8H246.371a6.114,6.114,0,0,0,.558-4.545l-2.475-9.254h.615l24.311,11.238a2.784,2.784,0,0,1-2.773,2.561Zm16.471-.248a.246.246,0,0,1-.358.219l-.049-.023-35.589-16.451v-18.343l35.589-16.451.049-.024a.247.247,0,0,1,.358.22Zm4.124-19.8h-.825v-11.246h.825a5.623,5.623,0,1,1,0,11.246Zm0,0" fill="#4d4d4d"/>
  </g>
</svg>
