<svg xmlns="http://www.w3.org/2000/svg" width="117" height="117" viewBox="0 0 117 117">
  <g id="Grupo_9468" data-name="Grupo 9468" transform="translate(-229.316 -4725.779)">
    <rect id="Rectángulo_3306" data-name="Rectángulo 3306" width="62.156" height="102.375" transform="translate(256.738 4738.576)" fill="#e6e6e6"/>
    <path id="Trazado_7088" data-name="Trazado 7088" d="M262.222,4778.794v-40.218h-5.484v102.375h62.156v-5.485a56.671,56.671,0,0,1-56.672-56.672Zm0,0" fill="#cecece"/>
    <rect id="Rectángulo_3307" data-name="Rectángulo 3307" width="62.156" height="3.656" transform="translate(256.738 4738.576)" fill="#cecece"/>
    <rect id="Rectángulo_3308" data-name="Rectángulo 3308" width="25.594" height="54.844" transform="translate(231.144 4786.107)" fill="#e6e6e6"/>
    <rect id="Rectángulo_3309" data-name="Rectángulo 3309" width="3.656" height="54.844" transform="translate(253.081 4786.107)" fill="#cecece"/>
    <path id="Trazado_7089" data-name="Trazado 7089" d="M236.628,4815.357v-29.25h-5.484v54.844h25.594v-5.485a20.11,20.11,0,0,1-20.11-20.109Zm0,0" fill="#cecece"/>
    <rect id="Rectángulo_3310" data-name="Rectángulo 3310" width="25.594" height="54.844" transform="translate(318.894 4786.107)" fill="#e6e6e6"/>
    <path id="Trazado_7090" data-name="Trazado 7090" d="M324.378,4815.357v-29.25h-5.484v54.844h25.594v-5.485a20.11,20.11,0,0,1-20.11-20.109Zm0,0" fill="#cecece"/>
    <path id="Trazado_7091" data-name="Trazado 7091" d="M256.738,4727.607h62.156a3.648,3.648,0,0,1,3.656,3.656v3.656a3.648,3.648,0,0,1-3.656,3.657H256.738a3.649,3.649,0,0,1-3.657-3.657v-3.656a3.649,3.649,0,0,1,3.657-3.656Zm0,0" fill="#a7d0e1"/>
    <path id="Trazado_7092" data-name="Trazado 7092" d="M264.05,4733.091a5.483,5.483,0,0,1-5.484-5.484h-1.828a3.656,3.656,0,0,0-3.657,3.656v3.656a3.657,3.657,0,0,0,3.657,3.657h62.156a3.656,3.656,0,0,0,3.656-3.657v-1.828Zm0,0" fill="#80bbce"/>
    <path id="Trazado_7093" data-name="Trazado 7093" d="M296.956,4751.373h-5.484v-5.485H284.16v5.485h-5.485v7.312h5.485v5.484h7.312v-5.484h5.484Zm0,0" fill="#f97878"/>
    <rect id="Rectángulo_3311" data-name="Rectángulo 3311" width="9.141" height="10.969" transform="translate(278.675 4829.982)" fill="#80bbce"/>
    <rect id="Rectángulo_3312" data-name="Rectángulo 3312" width="9.141" height="10.969" transform="translate(287.816 4829.982)" fill="#a7d0e1"/>
    <path id="Trazado_7094" data-name="Trazado 7094" d="M294.555,4829.982h-6.739v10.969h9.14v-9.891c-.811-.347-1.61-.7-2.4-1.078Zm0,0" fill="#80bbce"/>
    <rect id="Rectángulo_3313" data-name="Rectángulo 3313" width="7.313" height="7.313" transform="translate(264.05 4771.482)" fill="#a7d0e1"/>
    <rect id="Rectángulo_3314" data-name="Rectángulo 3314" width="7.313" height="7.313" transform="translate(284.16 4771.482)" fill="#a7d0e1"/>
    <rect id="Rectángulo_3315" data-name="Rectángulo 3315" width="7.313" height="7.313" transform="translate(304.269 4771.482)" fill="#a7d0e1"/>
    <rect id="Rectángulo_3316" data-name="Rectángulo 3316" width="7.313" height="7.313" transform="translate(264.05 4786.107)" fill="#a7d0e1"/>
    <rect id="Rectángulo_3317" data-name="Rectángulo 3317" width="7.313" height="7.313" transform="translate(284.16 4786.107)" fill="#a7d0e1"/>
    <rect id="Rectángulo_3318" data-name="Rectángulo 3318" width="7.313" height="7.313" transform="translate(304.269 4786.107)" fill="#a7d0e1"/>
    <rect id="Rectángulo_3319" data-name="Rectángulo 3319" width="7.313" height="7.313" transform="translate(264.05 4800.732)" fill="#a7d0e1"/>
    <path id="Trazado_7095" data-name="Trazado 7095" d="M264.05,4808.044h6.3a56.248,56.248,0,0,1-3.721-7.312H264.05Zm0,0" fill="#80bbce"/>
    <rect id="Rectángulo_3320" data-name="Rectángulo 3320" width="7.312" height="7.313" transform="translate(240.285 4793.419)" fill="#a7d0e1"/>
    <rect id="Rectángulo_3321" data-name="Rectángulo 3321" width="7.312" height="7.313" transform="translate(240.285 4808.044)" fill="#a7d0e1"/>
    <rect id="Rectángulo_3322" data-name="Rectángulo 3322" width="7.312" height="7.313" transform="translate(240.285 4822.669)" fill="#a7d0e1"/>
    <rect id="Rectángulo_3323" data-name="Rectángulo 3323" width="7.313" height="7.313" transform="translate(328.035 4793.419)" fill="#a7d0e1"/>
    <rect id="Rectángulo_3324" data-name="Rectángulo 3324" width="7.313" height="7.313" transform="translate(328.035 4808.044)" fill="#a7d0e1"/>
    <rect id="Rectángulo_3325" data-name="Rectángulo 3325" width="7.313" height="7.313" transform="translate(328.035 4822.669)" fill="#a7d0e1"/>
    <rect id="Rectángulo_3326" data-name="Rectángulo 3326" width="7.313" height="7.313" transform="translate(284.16 4800.732)" fill="#a7d0e1"/>
    <rect id="Rectángulo_3327" data-name="Rectángulo 3327" width="7.313" height="7.313" transform="translate(304.269 4800.732)" fill="#a7d0e1"/>
    <rect id="Rectángulo_3328" data-name="Rectángulo 3328" width="7.313" height="7.313" transform="translate(264.05 4815.357)" fill="#80bbce"/>
    <rect id="Rectángulo_3329" data-name="Rectángulo 3329" width="7.313" height="7.313" transform="translate(284.16 4815.357)" fill="#a7d0e1"/>
    <rect id="Rectángulo_3330" data-name="Rectángulo 3330" width="7.313" height="7.313" transform="translate(304.269 4815.357)" fill="#a7d0e1"/>
    <path id="Trazado_7096" data-name="Trazado 7096" d="M344.488,4784.279H320.722v-44.212a5.481,5.481,0,0,0,3.656-5.148v-3.656a5.484,5.484,0,0,0-5.484-5.484H256.738a5.485,5.485,0,0,0-5.485,5.484v3.656a5.483,5.483,0,0,0,3.657,5.148v44.212H231.144a1.829,1.829,0,0,0-1.828,1.828v54.844a1.829,1.829,0,0,0,1.828,1.828H344.488a1.829,1.829,0,0,0,1.828-1.828v-54.844a1.829,1.829,0,0,0-1.828-1.828Zm-111.516,3.656H254.91v51.188H232.972Zm25.594-1.828v-45.7h42.047a1.828,1.828,0,1,0,0-3.656H256.738a1.829,1.829,0,0,1-1.828-1.829v-3.656a1.829,1.829,0,0,1,1.828-1.828h62.156a1.829,1.829,0,0,1,1.828,1.828v3.656a1.829,1.829,0,0,1-1.828,1.829H307.925a1.828,1.828,0,1,0,0,3.656h9.141v98.719H298.785v-9.141a1.829,1.829,0,0,0-1.829-1.828H278.675a1.829,1.829,0,0,0-1.828,1.828v9.141H258.566Zm21.937,45.7h5.485v7.313H280.5Zm9.141,7.313v-7.313h5.484v7.313Zm53.016,0H320.722v-51.188H342.66Zm0,0"/>
    <path id="Trazado_7097" data-name="Trazado 7097" d="M278.675,4760.513h3.656v3.656A1.829,1.829,0,0,0,284.16,4766h7.312a1.829,1.829,0,0,0,1.828-1.829v-3.656h3.656a1.829,1.829,0,0,0,1.829-1.828v-7.312a1.829,1.829,0,0,0-1.829-1.829H293.3v-3.656a1.829,1.829,0,0,0-1.828-1.828H284.16a1.829,1.829,0,0,0-1.829,1.828v3.656h-3.656a1.829,1.829,0,0,0-1.828,1.829v7.312a1.829,1.829,0,0,0,1.828,1.828Zm1.828-7.312h3.657a1.829,1.829,0,0,0,1.828-1.828v-3.657h3.656v3.657a1.829,1.829,0,0,0,1.828,1.828h3.656v3.656h-3.656a1.829,1.829,0,0,0-1.828,1.828v3.656h-3.656v-3.656a1.829,1.829,0,0,0-1.828-1.828H280.5Zm0,0"/>
    <path id="Trazado_7098" data-name="Trazado 7098" d="M271.363,4769.654H264.05a1.829,1.829,0,0,0-1.828,1.828v7.312a1.829,1.829,0,0,0,1.828,1.829h7.313a1.829,1.829,0,0,0,1.828-1.829v-7.312a1.829,1.829,0,0,0-1.828-1.828Zm-1.828,7.312h-3.657v-3.656h3.657Zm0,0"/>
    <path id="Trazado_7099" data-name="Trazado 7099" d="M291.472,4769.654H284.16a1.829,1.829,0,0,0-1.829,1.828v7.312a1.829,1.829,0,0,0,1.829,1.829h7.312a1.829,1.829,0,0,0,1.828-1.829v-7.312a1.829,1.829,0,0,0-1.828-1.828Zm-1.828,7.312h-3.656v-3.656h3.656Zm0,0"/>
    <path id="Trazado_7100" data-name="Trazado 7100" d="M304.269,4780.623h7.312a1.829,1.829,0,0,0,1.829-1.829v-7.312a1.829,1.829,0,0,0-1.829-1.828h-7.312a1.829,1.829,0,0,0-1.828,1.828v7.312a1.829,1.829,0,0,0,1.828,1.829Zm1.828-7.313h3.656v3.656H306.1Zm0,0"/>
    <path id="Trazado_7101" data-name="Trazado 7101" d="M271.363,4784.279H264.05a1.829,1.829,0,0,0-1.828,1.828v7.312a1.829,1.829,0,0,0,1.828,1.829h7.313a1.829,1.829,0,0,0,1.828-1.829v-7.312a1.829,1.829,0,0,0-1.828-1.828Zm-1.828,7.312h-3.657v-3.656h3.657Zm0,0"/>
    <path id="Trazado_7102" data-name="Trazado 7102" d="M291.472,4784.279H284.16a1.829,1.829,0,0,0-1.829,1.828v7.312a1.829,1.829,0,0,0,1.829,1.829h7.312a1.829,1.829,0,0,0,1.828-1.829v-7.312a1.829,1.829,0,0,0-1.828-1.828Zm-1.828,7.312h-3.656v-3.656h3.656Zm0,0"/>
    <path id="Trazado_7103" data-name="Trazado 7103" d="M304.269,4795.248h7.312a1.829,1.829,0,0,0,1.829-1.829v-7.312a1.829,1.829,0,0,0-1.829-1.828h-7.312a1.829,1.829,0,0,0-1.828,1.828v7.312a1.829,1.829,0,0,0,1.828,1.829Zm1.828-7.313h3.656v3.656H306.1Zm0,0"/>
    <path id="Trazado_7104" data-name="Trazado 7104" d="M271.363,4798.9H264.05a1.829,1.829,0,0,0-1.828,1.828v7.312a1.829,1.829,0,0,0,1.828,1.829h7.313a1.829,1.829,0,0,0,1.828-1.829v-7.312a1.829,1.829,0,0,0-1.828-1.828Zm-1.828,7.312h-3.657v-3.656h3.657Zm0,0"/>
    <path id="Trazado_7105" data-name="Trazado 7105" d="M247.6,4791.591h-7.312a1.829,1.829,0,0,0-1.829,1.828v7.313a1.829,1.829,0,0,0,1.829,1.828H247.6a1.829,1.829,0,0,0,1.828-1.828v-7.313a1.829,1.829,0,0,0-1.828-1.828Zm-1.828,7.313h-3.656v-3.656h3.656Zm0,0"/>
    <path id="Trazado_7106" data-name="Trazado 7106" d="M247.6,4806.216h-7.312a1.829,1.829,0,0,0-1.829,1.828v7.313a1.829,1.829,0,0,0,1.829,1.828H247.6a1.829,1.829,0,0,0,1.828-1.828v-7.313a1.829,1.829,0,0,0-1.828-1.828Zm-1.828,7.313h-3.656v-3.656h3.656Zm0,0"/>
    <path id="Trazado_7107" data-name="Trazado 7107" d="M247.6,4820.841h-7.312a1.829,1.829,0,0,0-1.829,1.828v7.313a1.829,1.829,0,0,0,1.829,1.828H247.6a1.829,1.829,0,0,0,1.828-1.828v-7.313a1.829,1.829,0,0,0-1.828-1.828Zm-1.828,7.313h-3.656V4824.5h3.656Zm0,0"/>
    <path id="Trazado_7108" data-name="Trazado 7108" d="M328.035,4802.56h7.312a1.829,1.829,0,0,0,1.828-1.828v-7.313a1.829,1.829,0,0,0-1.828-1.828h-7.312a1.829,1.829,0,0,0-1.829,1.828v7.313a1.829,1.829,0,0,0,1.829,1.828Zm1.828-7.312h3.656v3.656h-3.656Zm0,0"/>
    <path id="Trazado_7109" data-name="Trazado 7109" d="M328.035,4817.185h7.312a1.829,1.829,0,0,0,1.828-1.828v-7.313a1.829,1.829,0,0,0-1.828-1.828h-7.312a1.829,1.829,0,0,0-1.829,1.828v7.313a1.829,1.829,0,0,0,1.829,1.828Zm1.828-7.312h3.656v3.656h-3.656Zm0,0"/>
    <path id="Trazado_7110" data-name="Trazado 7110" d="M328.035,4831.81h7.312a1.829,1.829,0,0,0,1.828-1.828v-7.313a1.829,1.829,0,0,0-1.828-1.828h-7.312a1.829,1.829,0,0,0-1.829,1.828v7.313a1.829,1.829,0,0,0,1.829,1.828Zm1.828-7.312h3.656v3.656h-3.656Zm0,0"/>
    <path id="Trazado_7111" data-name="Trazado 7111" d="M291.472,4798.9H284.16a1.829,1.829,0,0,0-1.829,1.828v7.312a1.829,1.829,0,0,0,1.829,1.829h7.312a1.829,1.829,0,0,0,1.828-1.829v-7.312a1.829,1.829,0,0,0-1.828-1.828Zm-1.828,7.312h-3.656v-3.656h3.656Zm0,0"/>
    <path id="Trazado_7112" data-name="Trazado 7112" d="M304.269,4809.873h7.312a1.829,1.829,0,0,0,1.829-1.829v-7.312a1.829,1.829,0,0,0-1.829-1.828h-7.312a1.829,1.829,0,0,0-1.828,1.828v7.312a1.829,1.829,0,0,0,1.828,1.829Zm1.828-7.313h3.656v3.656H306.1Zm0,0"/>
    <path id="Trazado_7113" data-name="Trazado 7113" d="M271.363,4813.529H264.05a1.829,1.829,0,0,0-1.828,1.828v7.312a1.829,1.829,0,0,0,1.828,1.829h7.313a1.829,1.829,0,0,0,1.828-1.829v-7.312a1.829,1.829,0,0,0-1.828-1.828Zm-1.828,7.312h-3.657v-3.656h3.657Zm0,0"/>
    <path id="Trazado_7114" data-name="Trazado 7114" d="M291.472,4813.529H284.16a1.829,1.829,0,0,0-1.829,1.828v7.312a1.829,1.829,0,0,0,1.829,1.829h7.312a1.829,1.829,0,0,0,1.828-1.829v-7.312a1.829,1.829,0,0,0-1.828-1.828Zm-1.828,7.312h-3.656v-3.656h3.656Zm0,0"/>
    <path id="Trazado_7115" data-name="Trazado 7115" d="M304.269,4824.5h7.312a1.829,1.829,0,0,0,1.829-1.829v-7.312a1.829,1.829,0,0,0-1.829-1.828h-7.312a1.829,1.829,0,0,0-1.828,1.828v7.312a1.829,1.829,0,0,0,1.828,1.829Zm1.828-7.313h3.656v3.656H306.1Zm0,0"/>
    <path id="Trazado_7116" data-name="Trazado 7116" d="M318.894,4733.091H313.41a1.828,1.828,0,1,1,0-3.656h5.484a1.828,1.828,0,1,1,0,3.656Zm0,0" fill="#fff"/>
  </g>
</svg>
