<svg xmlns="http://www.w3.org/2000/svg" width="110.94" height="105.495" viewBox="0 0 110.94 105.495">
  <g id="Grupo_8829" data-name="Grupo 8829" transform="translate(-1804.719 -5544.019)">
    <path id="Trazado_5800" data-name="Trazado 5800" d="M1837.82,5630.641c0,8.617,4.092,12.76,4.092,12.76h-8.88a2.212,2.212,0,0,1-1.81-.927,22.583,22.583,0,0,1,0-23.668,2.216,2.216,0,0,1,1.81-.926h8.88s-4.092,4.143-4.092,12.761Zm0,0" fill="#fb3a82"/>
    <path id="Trazado_5801" data-name="Trazado 5801" d="M1841.912,5617.88s-3.975,4.025-4.089,12.4l-8.331,9.022a22.4,22.4,0,0,1-1.619-8.657,20.253,20.253,0,0,1,3.349-11.835,2.217,2.217,0,0,1,1.81-.925h8.88Zm0,0" fill="#fb1466"/>
    <path id="Trazado_5802" data-name="Trazado 5802" d="M1906.214,5630.64a19.375,19.375,0,0,0,4.651,12.762H1839.68s-4.092-4.144-4.092-12.762,4.092-12.76,4.092-12.76h71.185a19.373,19.373,0,0,0-4.651,12.76Zm0,0" fill="#e0d3ce"/>
    <path id="Trazado_5803" data-name="Trazado 5803" d="M1849.265,5617.88l-13.6,14.735c-.047-.63-.074-1.287-.074-1.974,0-8.618,4.092-12.761,4.092-12.761Zm0,0" fill="#cdbfbb"/>
    <path id="Trazado_5804" data-name="Trazado 5804" d="M1906.215,5630.641a19.378,19.378,0,0,0,4.651,12.761h-8.435a19.826,19.826,0,0,1,0-25.52h8.435a19.37,19.37,0,0,0-4.651,12.759Zm0,0" fill="#cdbfbb"/>
    <path id="Trazado_5805" data-name="Trazado 5805" d="M1915.657,5615.5a3.7,3.7,0,0,1-3.7,3.7h-70.772a3.7,3.7,0,0,1,0-7.407h70.772a3.7,3.7,0,0,1,3.7,3.705Zm0,0" fill="#fb3a82"/>
    <path id="Trazado_5806" data-name="Trazado 5806" d="M1854.883,5611.794l-6.837,7.407h-6.864a3.7,3.7,0,0,1,0-7.407Zm0,0" fill="#fb1466"/>
    <path id="Trazado_5807" data-name="Trazado 5807" d="M1915.659,5615.5a3.708,3.708,0,0,1-3.706,3.707h-7.184a3.705,3.705,0,0,0,0-7.41h7.184a3.7,3.7,0,0,1,3.706,3.7Zm0,0" fill="#fb1466"/>
    <path id="Trazado_5808" data-name="Trazado 5808" d="M1911.953,5649.487h-70.771a3.7,3.7,0,1,1,0-7.408h70.772a3.7,3.7,0,1,1,0,7.408Zm0,0" fill="#fb3a82"/>
    <path id="Trazado_5809" data-name="Trazado 5809" d="M1915.659,5645.783a3.7,3.7,0,0,1-3.706,3.7h-7.184a3.7,3.7,0,1,0,0-7.406h7.184a3.7,3.7,0,0,1,3.706,3.7Zm0,0" fill="#fb1466"/>
    <path id="Trazado_5810" data-name="Trazado 5810" d="M1871.107,5626.811a1.673,1.673,0,0,1-1.674,1.674h-33.756a23.177,23.177,0,0,1,.52-3.348h33.236a1.673,1.673,0,0,1,1.674,1.674Zm0,0" fill="#cdbfbb"/>
    <path id="Trazado_5811" data-name="Trazado 5811" d="M1906.972,5625.137a19.8,19.8,0,0,0-.646,3.349h-23.1a1.674,1.674,0,0,1,0-3.349Zm0,0" fill="#cdbfbb"/>
    <path id="Trazado_5812" data-name="Trazado 5812" d="M1888.885,5636.09h-39a1.673,1.673,0,1,1,0-3.347h39a1.673,1.673,0,1,1,0,3.347Zm0,0" fill="#cdbfbb"/>
    <path id="Trazado_5813" data-name="Trazado 5813" d="M1853.48,5606.732l-5.98-5.979-40.708,37.578a6.446,6.446,0,1,0,9.11,9.109Zm0,0" fill="#873f30"/>
    <path id="Trazado_5814" data-name="Trazado 5814" d="M1815.721,5647.628a6.448,6.448,0,0,1-9.113,0,6.375,6.375,0,0,1-1.572-2.569,6.436,6.436,0,0,0,6.541-1.566c.062-.062.123-.128.184-.191l37.579-40.709,4.141,4.141L1815.9,5647.44c-.061.064-.121.127-.181.188Zm0,0" fill="#6c3328"/>
    <path id="Trazado_5815" data-name="Trazado 5815" d="M1859.369,5586.584l-13.771,16.425,5.626,5.625,16.425-13.77Zm0,0" fill="#873f30"/>
    <path id="Trazado_5816" data-name="Trazado 5816" d="M1859.369,5586.584l-4.45,5.308,1.335,1.335a2.515,2.515,0,0,1,0,3.558l-8.439,8.439,3.409,3.41,16.425-13.77Zm0,0" fill="#6c3328"/>
    <path id="Trazado_5817" data-name="Trazado 5817" d="M1847.686,5612.007l-5.46-5.46a4.042,4.042,0,1,1,5.716-5.717l5.461,5.461a4.042,4.042,0,0,1-5.717,5.716Zm0,0" fill="#ba5d4f"/>
    <path id="Trazado_5818" data-name="Trazado 5818" d="M1853.4,5612.007a4.041,4.041,0,0,1-5.716,0l-4.14-4.138a4.043,4.043,0,1,0,5.718-5.718l4.138,4.139a4.04,4.04,0,0,1,0,5.717Zm0,0" fill="#a34f41"/>
    <path id="Trazado_5819" data-name="Trazado 5819" d="M1866.5,5549.043l12.124,12.124-19.035,19.034-12.124-12.124Zm0,0" fill="#ba5d4f"/>
    <path id="Trazado_5820" data-name="Trazado 5820" d="M1886.15,5606.775l-12.124-12.124,19.034-19.035,12.124,12.125Zm0,0" fill="#a34f41"/>
    <path id="Trazado_5821" data-name="Trazado 5821" d="M1844.058,5572.255l-.421-.421a4.091,4.091,0,0,1,0-5.784l20.834-20.834a4.091,4.091,0,0,1,5.784,0l.421.421a4.092,4.092,0,0,1,0,5.784l-20.834,20.834a4.09,4.09,0,0,1-5.784,0Zm0,0" fill="#873f30"/>
    <path id="Trazado_5822" data-name="Trazado 5822" d="M1881.978,5610.175l.421.421a4.09,4.09,0,0,0,5.783,0l20.835-20.834a4.09,4.09,0,0,0,0-5.784l-.421-.421a4.092,4.092,0,0,0-5.784,0l-20.834,20.835a4.089,4.089,0,0,0,0,5.783Zm0,0" fill="#6c3328"/>
    <path id="Trazado_5823" data-name="Trazado 5823" d="M1883.889,5556.713l13.615,13.616-28.747,28.747-13.616-13.615Zm0,0" fill="#fcc16d"/>
    <path id="Trazado_5824" data-name="Trazado 5824" d="M1861.857,5592.2l28.747-28.748,6.893,6.891-28.749,28.748Zm0,0" fill="#fca62f"/>
    <path id="Trazado_5825" data-name="Trazado 5825" d="M1883.955,5556.141l-3.336-1.365a3.07,3.07,0,0,0-3.329.67l-23.423,23.423a3.071,3.071,0,0,0-.67,3.331l1.363,3.335a2.045,2.045,0,0,0,3.339.672l26.729-26.728a2.045,2.045,0,0,0-.673-3.338Zm0,0" fill="#873f30"/>
    <path id="Trazado_5826" data-name="Trazado 5826" d="M1898.092,5570.278l1.365,3.335a3.07,3.07,0,0,1-.67,3.33l-23.424,23.423a3.071,3.071,0,0,1-3.33.67l-3.336-1.364a2.044,2.044,0,0,1-.671-3.338l26.728-26.729a2.045,2.045,0,0,1,3.338.673Zm0,0" fill="#6c3328"/>
  </g>
</svg>
