<svg xmlns="http://www.w3.org/2000/svg" width="90.571" height="117" viewBox="0 0 90.571 117">
  <g id="Grupo_9470" data-name="Grupo 9470" transform="translate(-242.53 -6941.505)">
    <path id="Trazado_7127" data-name="Trazado 7127" d="M331.387,6989.488a35.579,35.579,0,0,0-60.548-25.365l-12.859-12.857h2.947a4.023,4.023,0,0,0,0-8.047h-12.66a4.023,4.023,0,0,0-4.023,4.023v12.66a4.023,4.023,0,0,0,8.046,0v-2.947l13.456,13.456a35.581,35.581,0,0,0,26.02,54.447v16.234h-3.054a4.023,4.023,0,0,0,0,8.046h3.054v3.63a4.023,4.023,0,0,0,8.046,0v-3.63h3.054a4.023,4.023,0,1,0,0-8.045h-3.054v-16.235a35.648,35.648,0,0,0,31.575-35.37Zm-63.15,0a27.553,27.553,0,1,1,27.552,27.552,27.583,27.583,0,0,1-27.552-27.552Zm0,0" fill="#21c1f8"/>
    <path id="Trazado_7128" data-name="Trazado 7128" d="M299.813,7024.858v16.235h3.053a4.023,4.023,0,1,1,0,8.045h-3.053v3.629a4.023,4.023,0,0,1-7.226,2.436,4,4,0,0,0,.82-2.436v-3.629h3.053a4.023,4.023,0,1,0,0-8.045h-3.053v-16.235a35.6,35.6,0,0,0-.817-70.824q1.58-.143,3.2-.144a35.6,35.6,0,0,1,4.024,70.968Zm0,0" fill="#1faaee"/>
    <path id="Trazado_7129" data-name="Trazado 7129" d="M260.19,6989.488a35.649,35.649,0,0,0,31.576,35.37v16.234h-3.054a4.023,4.023,0,0,0,0,8.046h3.054v3.63a4.023,4.023,0,0,0,8.046,0v-3.63h3.054a4.023,4.023,0,1,0,0-8.045h-3.054v-16.235a35.648,35.648,0,0,0,31.575-35.37h-8.045a27.553,27.553,0,0,1-55.105,0Zm71.2,0h-8.045" fill="#fb3a82"/>
    <path id="Trazado_7130" data-name="Trazado 7130" d="M331.387,6989.488a35.648,35.648,0,0,1-31.574,35.37v16.235h2.951a4.107,4.107,0,0,1,4.126,4.1,4.024,4.024,0,0,1-4.024,3.943h-3.053v3.629a4.023,4.023,0,0,1-7.226,2.436,4,4,0,0,0,.82-2.436v-1.343a2.287,2.287,0,0,1,2.286-2.286h.662a4.11,4.11,0,0,0,4.129-4.1,4.022,4.022,0,0,0-4.024-3.945h-.767a2.286,2.286,0,0,1-2.286-2.285v-11.967a2.286,2.286,0,0,1,1.912-2.251,35.657,35.657,0,0,0,29.665-35.1Zm0,0" fill="#fb1466"/>
    <path id="Trazado_7131" data-name="Trazado 7131" d="M288.407,6986.392h14.764a4.023,4.023,0,0,0,0-8.046H288.407a4.023,4.023,0,1,0,0,8.046Zm0,0" fill="#fca62f"/>
    <path id="Trazado_7132" data-name="Trazado 7132" d="M307.2,6982.368a4.024,4.024,0,0,1-4.026,4.025H297.54a4.023,4.023,0,0,0,0-8.047h5.629a4.023,4.023,0,0,1,4.026,4.022Zm0,0" fill="#f98824"/>
    <path id="Trazado_7133" data-name="Trazado 7133" d="M307.193,6996.607a4.022,4.022,0,0,0-4.022-4.023H288.407a4.023,4.023,0,1,0,0,8.046h14.764a4.021,4.021,0,0,0,4.022-4.023Zm0,0" fill="#fca62f"/>
    <path id="Trazado_7134" data-name="Trazado 7134" d="M307.2,6996.607a4.025,4.025,0,0,1-4.026,4.024H297.54a4.023,4.023,0,0,0,0-8.046h5.629a4.023,4.023,0,0,1,4.026,4.022Zm0,0" fill="#f98824"/>
    <path id="Trazado_7135" data-name="Trazado 7135" d="M295.789,6952.176a37.055,37.055,0,0,0-24.914,9.561l-8.861-8.861a5.738,5.738,0,0,0-1.087-11.371h-12.66a5.744,5.744,0,0,0-5.737,5.737v12.66a5.737,5.737,0,0,0,11.37,1.086l9.68,9.68a37.329,37.329,0,0,0,26.472,55.689v1.787a1.714,1.714,0,0,0,3.428,0v-3.287a1.716,1.716,0,0,0-1.522-1.7,33.841,33.841,0,0,1-30.01-31.953h4.627a29.264,29.264,0,0,0,58.428,0h4.623a33.586,33.586,0,0,1-6.308,18.02,1.713,1.713,0,1,0,2.782,2,37.293,37.293,0,0,0-30.311-59.045Zm-28.83,17.022L253.5,6955.742a1.715,1.715,0,0,0-2.927,1.213v2.947a2.309,2.309,0,1,1-4.618,0v-12.66a2.311,2.311,0,0,1,2.309-2.309h12.66a2.309,2.309,0,1,1,0,4.618H257.98a1.713,1.713,0,0,0-1.212,2.925l12.858,12.859a1.715,1.715,0,0,0,2.414.011,33.865,33.865,0,0,1,57.591,22.429H325a29.264,29.264,0,0,0-58.428,0h-4.622a33.707,33.707,0,0,1,5.239-16.443,1.715,1.715,0,0,0-.233-2.134Zm28.83,46.128a25.838,25.838,0,1,1,25.839-25.838,25.867,25.867,0,0,1-25.839,25.838Zm0,0"/>
    <path id="Trazado_7136" data-name="Trazado 7136" d="M318.137,7014.932a33.641,33.641,0,0,1-18.517,8.223,1.715,1.715,0,0,0-1.522,1.7v16.234a1.713,1.713,0,0,0,1.714,1.713h3.054a2.309,2.309,0,0,1,0,4.619h-3.054a1.714,1.714,0,0,0-1.714,1.714v3.63a2.309,2.309,0,1,1-4.618,0v-3.63a1.714,1.714,0,0,0-1.714-1.714h-3.054a2.309,2.309,0,0,1,0-4.619h3.054a1.713,1.713,0,0,0,1.714-1.713v-4.859a1.714,1.714,0,0,0-3.428,0v3.145h-1.34a5.737,5.737,0,0,0,0,11.474h1.34v1.916a5.737,5.737,0,0,0,11.474,0v-1.916h1.34a5.737,5.737,0,0,0,0-11.474h-1.34v-13.021a37.058,37.058,0,0,0,18.875-8.85,1.714,1.714,0,1,0-2.264-2.575Zm0,0"/>
    <path id="Trazado_7137" data-name="Trazado 7137" d="M303.171,6976.632H288.407a5.737,5.737,0,0,0,0,11.473h14.764a5.737,5.737,0,0,0,0-11.473Zm0,8.046H288.407a2.309,2.309,0,0,1,0-4.618h14.764a2.309,2.309,0,0,1,0,4.618Zm0,0"/>
    <path id="Trazado_7138" data-name="Trazado 7138" d="M303.171,6990.871h-3.553a1.713,1.713,0,1,0,0,3.427h3.553a2.309,2.309,0,0,1,0,4.618H288.407a2.309,2.309,0,0,1,0-4.618h3.122a1.713,1.713,0,1,0,0-3.427h-3.122a5.737,5.737,0,0,0,0,11.473h14.764a5.737,5.737,0,0,0,0-11.473Zm0,0"/>
  </g>
</svg>
