<svg xmlns="http://www.w3.org/2000/svg" width="172.236" height="172.235" viewBox="0 0 172.236 172.235">
  <g id="Grupo_8131" data-name="Grupo 8131" transform="translate(-916.074 -2649.056)">
    <path id="Trazado_1265" data-name="Trazado 1265" d="M1088.31,2735.173a86.118,86.118,0,1,1-86.118-86.117,86.118,86.118,0,0,1,86.118,86.117Zm0,0" fill="#5fc6ff"/>
    <g id="Grupo_8130" data-name="Grupo 8130">
      <path id="Trazado_1266" data-name="Trazado 1266" d="M1062.406,2732.485a4.554,4.554,0,0,1,0,5.377c-6.817,9.286-31.19,39.444-60.214,39.444s-53.4-30.158-60.213-39.444a4.554,4.554,0,0,1,0-5.377c6.816-9.286,31.19-39.444,60.213-39.444s53.4,30.158,60.214,39.444Zm0,0" fill="#f9cabe"/>
      <path id="Trazado_1267" data-name="Trazado 1267" d="M1062.406,2733.257a2.527,2.527,0,0,1,0,3.833c-6.817,6.62-31.19,30.228-60.214,30.228s-53.4-23.608-60.213-30.228a2.527,2.527,0,0,1,0-3.833c6.816-6.62,31.19-27.069,60.213-27.069s53.4,20.449,60.214,27.069Zm0,0" fill="#f9a089"/>
      <path id="Trazado_1268" data-name="Trazado 1268" d="M1054.858,2735.173a34.938,34.938,0,0,1-1.285,8.849c-11.228,8.047-30.863,18.538-51.381,18.538s-40.152-10.491-51.381-18.538a34.9,34.9,0,0,1-1.284-8.849,32.448,32.448,0,0,1,.884-7.246c11.165-6.826,31.01-15.927,51.781-15.927s40.616,9.1,51.782,15.927a32.569,32.569,0,0,1,.884,7.246Zm0,0" fill="#ecf0f1"/>
      <path id="Trazado_1269" data-name="Trazado 1269" d="M1059.071,2716.214a2.105,2.105,0,0,1-1.685-.843c-14.013-18.683-35.677-30.757-55.194-30.757s-41.18,12.074-55.193,30.757a2.107,2.107,0,1,1-3.371-2.528c14.782-19.708,37.77-32.442,58.564-32.442s43.782,12.734,58.564,32.442a2.107,2.107,0,0,1-1.685,3.371Zm0,0" fill="#f9cabe"/>
      <path id="Trazado_1270" data-name="Trazado 1270" d="M1002.192,2789.946c-20.794,0-43.782-12.734-58.564-32.442a2.107,2.107,0,1,1,3.371-2.528c14.013,18.683,35.677,30.757,55.193,30.757s41.181-12.074,55.194-30.757a2.106,2.106,0,1,1,3.37,2.528c-14.782,19.708-37.77,32.442-58.564,32.442Zm0,0" fill="#f9cabe"/>
      <path id="Trazado_1271" data-name="Trazado 1271" d="M1029.579,2735.173a27.386,27.386,0,1,1-44.682-21.235,78.141,78.141,0,0,1,34.59,0,27.335,27.335,0,0,1,10.092,21.235Zm0,0" fill="#3b97d3"/>
      <path id="Trazado_1272" data-name="Trazado 1272" d="M1012.725,2735.173a10.533,10.533,0,1,1-10.533-10.532,10.533,10.533,0,0,1,10.533,10.532Zm0,0" fill="#35495e"/>
      <path id="Trazado_1273" data-name="Trazado 1273" d="M989.553,2726.747a8.427,8.427,0,1,1-8.427-8.426,8.427,8.427,0,0,1,8.427,8.426Zm0,0" fill="#ecf0f1"/>
      <path id="Trazado_1274" data-name="Trazado 1274" d="M1021.152,2747.813a4.214,4.214,0,1,1-4.214-4.213,4.213,4.213,0,0,1,4.214,4.213Zm0,0" fill="#ecf0f1"/>
    </g>
  </g>
</svg>
