<svg xmlns="http://www.w3.org/2000/svg" width="171.303" height="171.303" viewBox="0 0 171.303 171.303">
  <g id="Grupo_8157" data-name="Grupo 8157" transform="translate(-354.227 -4328.312)">
    <path id="Trazado_1355" data-name="Trazado 1355" d="M525.53,4413.964a85.652,85.652,0,1,1-85.652-85.652,85.651,85.651,0,0,1,85.652,85.652Zm0,0" fill="#5fc6ff"/>
    <path id="Trazado_1356" data-name="Trazado 1356" d="M472.042,4477.452l10.033,11.063a84.977,84.977,0,0,1-28.211,9.961,85.471,85.471,0,0,1-56.181-9.961l9.509-7.683c0-16.355,2.824-31.933,18.7-33.723.336-.042.675-.073,1.014-.1.861-.07,1.727-.106,2.605-.106h20.727a31.949,31.949,0,0,1,3.623.2,31.369,31.369,0,0,1,3.5.6c14.151,3.237,14.675,14.624,14.675,29.752Zm0,0" fill="#f2efea"/>
    <path id="Trazado_1357" data-name="Trazado 1357" d="M425.895,4447.109v51.369a85.026,85.026,0,0,1-28.212-9.963v-9.785a31.822,31.822,0,0,1,28.212-31.621Zm0,0" fill="#512375"/>
    <path id="Trazado_1358" data-name="Trazado 1358" d="M482.075,4478.73v9.785a84.977,84.977,0,0,1-28.211,9.961V4447.1a31.146,31.146,0,0,1,3.5.6,31.846,31.846,0,0,1,24.708,31.03Zm0,0" fill="#673389"/>
    <path id="Trazado_1359" data-name="Trazado 1359" d="M439.876,4459.933l-14.329,7.963-4.36-20.275,8.9-5.245" fill="#d8d4ce"/>
    <path id="Trazado_1360" data-name="Trazado 1360" d="M439.876,4459.933,454.2,4467.9l4.36-20.275-8.9-5.245" fill="#d8d4ce"/>
    <path id="Trazado_1361" data-name="Trazado 1361" d="M497.416,4403.329a12.235,12.235,0,1,1-12.235-12.235,12.235,12.235,0,0,1,12.235,12.235Zm0,0" fill="#2f373b"/>
    <path id="Trazado_1362" data-name="Trazado 1362" d="M472.578,4413.012a12.241,12.241,0,0,0-11.493,8.026,12.235,12.235,0,1,0,7.137,15.644,12.236,12.236,0,1,0,4.356-23.67Zm0,0" fill="#2f373b"/>
    <path id="Trazado_1363" data-name="Trazado 1363" d="M406.81,4403.329a12.236,12.236,0,1,1-12.235-12.235,12.235,12.235,0,0,1,12.235,12.235Zm0,0" fill="#151a1c"/>
    <path id="Trazado_1364" data-name="Trazado 1364" d="M423.025,4420.237a12.2,12.2,0,0,0-4.356.8,12.239,12.239,0,1,0-7.136,15.645,12.238,12.238,0,1,0,11.492-16.446Zm0,0" fill="#151a1c"/>
    <path id="Trazado_1365" data-name="Trazado 1365" d="M451.234,4434.641v13.937a11.357,11.357,0,0,1-22.713,0v-13.937Zm0,0" fill="#bf7c5e"/>
    <path id="Trazado_1366" data-name="Trazado 1366" d="M451.234,4447.694v.884a11.356,11.356,0,0,1-8,10.848,11.354,11.354,0,0,1-7.9-9.37q1.139.07,2.288.071a38.909,38.909,0,0,0,6.307-.509,38.491,38.491,0,0,0,7.308-1.924Zm0,0" fill="#d39272"/>
    <path id="Trazado_1367" data-name="Trazado 1367" d="M408.212,4411.8a10.559,10.559,0,1,1-8.868-10.426,10.561,10.561,0,0,1,8.868,10.426Zm0,0" fill="#d39272"/>
    <path id="Trazado_1368" data-name="Trazado 1368" d="M408.212,4411.8a10.561,10.561,0,0,1-8.868,10.425,39.464,39.464,0,0,1,0-20.851,10.561,10.561,0,0,1,8.868,10.426Zm0,0" fill="#bf7c5e"/>
    <path id="Trazado_1369" data-name="Trazado 1369" d="M401.427,4411.8a3.775,3.775,0,1,1-3.776-3.775,3.775,3.775,0,0,1,3.776,3.775Zm0,0" fill="#bf7c5e"/>
    <path id="Trazado_1370" data-name="Trazado 1370" d="M471.543,4411.8a10.559,10.559,0,1,0,8.868-10.426,10.561,10.561,0,0,0-8.868,10.426Zm0,0" fill="#d39272"/>
    <path id="Trazado_1371" data-name="Trazado 1371" d="M471.543,4411.8a10.561,10.561,0,0,0,8.868,10.425,39.437,39.437,0,0,0,0-20.851,10.561,10.561,0,0,0-8.868,10.426Zm0,0" fill="#bf7c5e"/>
    <path id="Trazado_1372" data-name="Trazado 1372" d="M485.878,4411.8a3.774,3.774,0,1,1-3.774-3.775,3.774,3.774,0,0,1,3.774,3.775Zm0,0" fill="#bf7c5e"/>
    <path id="Trazado_1373" data-name="Trazado 1373" d="M479.17,4391.226v14.963a39.292,39.292,0,0,1-32.987,38.783l-.192.033a38.679,38.679,0,0,1-6.115.474,39.292,39.292,0,0,1-39.292-39.29v-14.963a39.27,39.27,0,0,1,39.292-39.295h0a39.259,39.259,0,0,1,39.29,39.295Zm0,0" fill="#bf7c5e"/>
    <path id="Trazado_1374" data-name="Trazado 1374" d="M479.17,4391.226v14.963a39.292,39.292,0,0,1-32.987,38.783l-.192.033a39.3,39.3,0,0,1-33.17-38.816v-14.963A39.3,39.3,0,0,1,446,4352.406a39.3,39.3,0,0,1,33.173,38.82Zm0,0" fill="#d39272"/>
    <path id="Trazado_1375" data-name="Trazado 1375" d="M466.622,4416.5a4.895,4.895,0,1,1-4.894-4.894,4.894,4.894,0,0,1,4.894,4.894Zm0,0" fill="#bf7c5e"/>
    <path id="Trazado_1376" data-name="Trazado 1376" d="M422.922,4416.5a4.895,4.895,0,1,1-4.895-4.894,4.894,4.894,0,0,1,4.895,4.894Zm0,0" fill="#bf7c5e"/>
    <path id="Trazado_1377" data-name="Trazado 1377" d="M460.979,4402.87a6.527,6.527,0,0,0-13.053,0" fill="#bf7c5e"/>
    <path id="Trazado_1378" data-name="Trazado 1378" d="M431.831,4402.87a6.526,6.526,0,0,0-13.052,0" fill="#bf7c5e"/>
    <path id="Trazado_1379" data-name="Trazado 1379" d="M429.763,4405.648a4.458,4.458,0,1,1-4.457-4.457,4.458,4.458,0,0,1,4.457,4.457Zm0,0" fill="#2f373b"/>
    <path id="Trazado_1380" data-name="Trazado 1380" d="M458.91,4405.648a4.458,4.458,0,1,1-4.457-4.457,4.458,4.458,0,0,1,4.457,4.457Zm0,0" fill="#2f373b"/>
    <path id="Trazado_1381" data-name="Trazado 1381" d="M444.336,4416.871h-8.914a1.923,1.923,0,0,1,0-3.846h8.914a1.923,1.923,0,1,1,0,3.846Zm0,0" fill="#bf7c5e"/>
    <path id="Trazado_1382" data-name="Trazado 1382" d="M439.88,4429.035a19.845,19.845,0,0,1-9.58-2.473,1.747,1.747,0,1,1,1.683-3.063,16.308,16.308,0,0,0,15.792,0,1.747,1.747,0,1,1,1.683,3.063,19.84,19.84,0,0,1-9.578,2.473Zm0,0" fill="#bf7c5e"/>
    <path id="Trazado_1383" data-name="Trazado 1383" d="M428.854,4404.862a1.91,1.91,0,1,1-1.909-1.911,1.91,1.91,0,0,1,1.909,1.911Zm0,0" fill="#fff"/>
    <path id="Trazado_1384" data-name="Trazado 1384" d="M458.22,4404.862a1.91,1.91,0,1,1-1.91-1.911,1.91,1.91,0,0,1,1.91,1.911Zm0,0" fill="#fff"/>
    <path id="Trazado_1385" data-name="Trazado 1385" d="M487.767,4365.135a12.233,12.233,0,0,0-11.764-15.6c-.213,0-.423,0-.63.014a12.244,12.244,0,0,0-15.686-10.695,12.235,12.235,0,0,0-19.807-2.289,12.24,12.24,0,0,0-19.812,2.289,12.246,12.246,0,0,0-15.688,10.695c-.205-.011-.415-.014-.628-.014a12.237,12.237,0,0,0-11.764,15.6,17.816,17.816,0,0,0,1.388,32.432,10.322,10.322,0,0,0,19.923-3.79c0-.276-.013-.545-.035-.819a17.762,17.762,0,0,0,4.464-9.92c.064,0,.13,0,.194,0a10.481,10.481,0,0,0,1.457-.1,10.239,10.239,0,0,0,3.3-1.059,12.236,12.236,0,0,0,17.2-.967,12.23,12.23,0,0,0,17.2.967,10.27,10.27,0,0,0,4.761,1.162c.063,0,.126,0,.193,0a17.722,17.722,0,0,0,4.464,9.92c-.021.274-.035.543-.035.819a10.322,10.322,0,0,0,19.924,3.79,17.818,17.818,0,0,0,1.384-32.436Zm0,0" fill="#2f373b"/>
    <path id="Trazado_1386" data-name="Trazado 1386" d="M430.79,4332.521a12.231,12.231,0,0,0-10.722,6.334,12.246,12.246,0,0,0-15.688,10.695c-.205-.011-.415-.014-.628-.014a12.237,12.237,0,0,0-11.764,15.6,17.816,17.816,0,0,0,1.388,32.432,10.322,10.322,0,0,0,19.923-3.79c0-.276-.013-.545-.035-.819a17.762,17.762,0,0,0,4.464-9.92c.064,0,.13,0,.194,0a10.481,10.481,0,0,0,1.457-.1,17.825,17.825,0,0,1,7.683-24.3,12.239,12.239,0,0,1,11.765-15.6c.209,0,.842-6.478,1.053-6.478a12.221,12.221,0,0,0-9.09-4.045Zm0,0" fill="#151a1c"/>
    <path id="Trazado_1387" data-name="Trazado 1387" d="M492.992,4417.747a1,1,0,0,0-.244-.132,7.154,7.154,0,0,0-1.349-.746,10.451,10.451,0,0,1-1.185,1.741,5.084,5.084,0,0,1,1.53.789c.21.157.419.331.624.519a8.6,8.6,0,0,1,2.307,6.045c0,4.186-2.607,7.592-5.813,7.592s-5.814-3.406-5.814-7.592a8.183,8.183,0,0,1,3.05-6.674,1.026,1.026,0,0,0-1.191-1.671,10.254,10.254,0,0,0-3.911,8.345c0,5.318,3.528,9.644,7.866,9.644s7.865-4.326,7.865-9.644a10.218,10.218,0,0,0-3.735-8.216Zm0,0" fill="#ffe05c"/>
    <path id="Trazado_1388" data-name="Trazado 1388" d="M386.763,4417.747a1.006,1.006,0,0,1,.245-.132,7.132,7.132,0,0,1,1.35-.746,10.327,10.327,0,0,0,1.184,1.741,5.078,5.078,0,0,0-1.531.789c-.21.157-.418.331-.623.519a8.6,8.6,0,0,0-2.308,6.045c0,4.186,2.608,7.592,5.814,7.592s5.814-3.406,5.814-7.592a8.186,8.186,0,0,0-3.05-6.674,1.026,1.026,0,1,1,1.19-1.671,10.255,10.255,0,0,1,3.912,8.345c0,5.318-3.529,9.644-7.866,9.644s-7.866-4.326-7.866-9.644a10.221,10.221,0,0,1,3.735-8.216Zm0,0" fill="#ffe05c"/>
  </g>
</svg>
