<svg xmlns="http://www.w3.org/2000/svg" width="171.303" height="171.303" viewBox="0 0 171.303 171.303">
  <g id="Grupo_8158" data-name="Grupo 8158" transform="translate(-916.541 -4328.312)">
    <path id="Trazado_1389" data-name="Trazado 1389" d="M1087.844,4413.964a85.651,85.651,0,1,1-85.652-85.652,85.651,85.651,0,0,1,85.652,85.652Zm0,0" fill="#5fc6ff"/>
    <path id="Trazado_1390" data-name="Trazado 1390" d="M1044.389,4478.73v9.785a85.053,85.053,0,0,1-31.246,10.4,86.575,86.575,0,0,1-24.034-.3A85.087,85.087,0,0,1,960,4488.515v-9.785a31.837,31.837,0,0,1,23.987-30.853,31.379,31.379,0,0,1,5.24-.87c.861-.069,1.727-.1,2.6-.1h20.727a31.973,31.973,0,0,1,7.059.783l.067.015a31.846,31.846,0,0,1,24.708,31.03Zm0,0" fill="#dd104f"/>
    <path id="Trazado_1391" data-name="Trazado 1391" d="M1044.389,4478.73v9.785a84.856,84.856,0,0,1-24.758,9.32q-.786.163-1.581.311-3.707.7-7.522,1.063c-2.031.2-4.087.325-6.157.377-.723.019-1.451.029-2.177.029q-4.224,0-8.339-.4-3.813-.374-7.522-1.071a85.643,85.643,0,0,1-10.079-2.53V4478.73a31.662,31.662,0,0,1,5.579-18c.091-.139.188-.271.283-.408a31.875,31.875,0,0,1,25.972-13.418h4.467a31.74,31.74,0,0,1,4.23.28,31.253,31.253,0,0,1,7.174,1.829,31.825,31.825,0,0,1,20.43,29.719Zm0,0" fill="#f73b6c"/>
    <path id="Trazado_1392" data-name="Trazado 1392" d="M1002.19,4459.933,987.86,4467.9l-4.36-20.275,8.9-5.245" fill="#f2efea"/>
    <path id="Trazado_1393" data-name="Trazado 1393" d="M1002.19,4459.933l14.329,7.963,4.36-20.275-8.9-5.245" fill="#f2efea"/>
    <path id="Trazado_1394" data-name="Trazado 1394" d="M1013.548,4434.641v13.937a11.356,11.356,0,0,1-22.713,0v-13.937Zm0,0" fill="#915e48"/>
    <path id="Trazado_1395" data-name="Trazado 1395" d="M1013.548,4447.694v.884a8.211,8.211,0,1,1-15.9,1.478q1.139.07,2.288.071a38.9,38.9,0,0,0,6.307-.509,38.479,38.479,0,0,0,7.309-1.924Zm0,0" fill="#a57259"/>
    <path id="Trazado_1396" data-name="Trazado 1396" d="M971.039,4411.8a10.56,10.56,0,1,1-8.869-10.426,10.562,10.562,0,0,1,8.869,10.426Zm0,0" fill="#a57259"/>
    <path id="Trazado_1397" data-name="Trazado 1397" d="M971.039,4411.8a10.562,10.562,0,0,1-8.869,10.425,39.491,39.491,0,0,1,0-20.851,10.561,10.561,0,0,1,8.869,10.426Zm0,0" fill="#915e48"/>
    <path id="Trazado_1398" data-name="Trazado 1398" d="M964.253,4411.8a3.775,3.775,0,1,1-3.774-3.775,3.775,3.775,0,0,1,3.774,3.775Zm0,0" fill="#915e48"/>
    <path id="Trazado_1399" data-name="Trazado 1399" d="M1033.343,4411.8a10.56,10.56,0,1,0,8.869-10.426,10.562,10.562,0,0,0-8.869,10.426Zm0,0" fill="#a57259"/>
    <path id="Trazado_1400" data-name="Trazado 1400" d="M1033.343,4411.8a10.562,10.562,0,0,0,8.869,10.425,39.491,39.491,0,0,0,0-20.851,10.561,10.561,0,0,0-8.869,10.426Zm0,0" fill="#915e48"/>
    <path id="Trazado_1401" data-name="Trazado 1401" d="M1041.484,4391.226v14.963a39.292,39.292,0,0,1-32.987,38.783c-.063.011-.13.021-.192.033a38.679,38.679,0,0,1-6.115.474,39.292,39.292,0,0,1-39.292-39.29v-14.963a39.27,39.27,0,0,1,39.292-39.295h0a39.259,39.259,0,0,1,39.29,39.295Zm0,0" fill="#915e48"/>
    <path id="Trazado_1402" data-name="Trazado 1402" d="M1047.679,4411.8a3.775,3.775,0,1,1-3.776-3.775,3.775,3.775,0,0,1,3.776,3.775Zm0,0" fill="#915e48"/>
    <path id="Trazado_1403" data-name="Trazado 1403" d="M1041.484,4391.226v14.963a39.292,39.292,0,0,1-32.987,38.783c-.063.011-.13.021-.192.033a39.3,39.3,0,0,1-33.17-38.816v-14.963a39.3,39.3,0,0,1,33.176-38.82,39.3,39.3,0,0,1,33.173,38.82Zm0,0" fill="#a57259"/>
    <path id="Trazado_1404" data-name="Trazado 1404" d="M1009.174,4418.134l12.353,2.745a8.871,8.871,0,0,0,10.65-7.054l3.229-17.519,6.811-3.05v21.809a33.156,33.156,0,0,1-33.156,33.156H995.326a33.156,33.156,0,0,1-33.156-33.156v-21.809l6.812,3.05,3.227,17.519a8.873,8.873,0,0,0,10.65,7.054l12.353-2.745a32.174,32.174,0,0,1,13.962,0Zm0,0" fill="#2f373b"/>
    <path id="Trazado_1405" data-name="Trazado 1405" d="M1001.437,4448.22h-6.111a33.155,33.155,0,0,1-33.156-33.156v-21.808l6.81,3.05,3.227,17.518a8.833,8.833,0,0,0,4.233,6.041,41.78,41.78,0,0,0,25,28.355Zm0,0" fill="#151a1c"/>
    <path id="Trazado_1406" data-name="Trazado 1406" d="M1002.191,4425.541a19.866,19.866,0,0,1-9.58-2.473,1.749,1.749,0,0,1,1.684-3.065,16.3,16.3,0,0,0,15.791,0,1.748,1.748,0,1,1,1.683,3.065,19.862,19.862,0,0,1-9.578,2.473Zm0,0" fill="#151a1c"/>
    <path id="Trazado_1407" data-name="Trazado 1407" d="M1006.647,4415.123h-8.914a1.923,1.923,0,0,1,0-3.845h8.914a1.923,1.923,0,1,1,0,3.845Zm0,0" fill="#915e48"/>
    <path id="Trazado_1408" data-name="Trazado 1408" d="M993.822,4403.9a4.457,4.457,0,1,1-4.456-4.458,4.456,4.456,0,0,1,4.456,4.458Zm0,0" fill="#2f373b"/>
    <path id="Trazado_1409" data-name="Trazado 1409" d="M1019.475,4403.9a4.458,4.458,0,1,1-4.458-4.458,4.457,4.457,0,0,1,4.458,4.458Zm0,0" fill="#2f373b"/>
    <path id="Trazado_1410" data-name="Trazado 1410" d="M992.914,4403.113a1.91,1.91,0,1,1-1.909-1.909,1.909,1.909,0,0,1,1.909,1.909Zm0,0" fill="#fff"/>
    <path id="Trazado_1411" data-name="Trazado 1411" d="M1018.785,4403.113a1.91,1.91,0,1,1-1.911-1.909,1.911,1.911,0,0,1,1.911,1.909Zm0,0" fill="#fff"/>
    <path id="Trazado_1412" data-name="Trazado 1412" d="M995.212,4376.5l-12.353-2.745a8.873,8.873,0,0,0-10.65,7.054l-3.227,17.519-6.812,3.049v-21.809a33.155,33.155,0,0,1,33.156-33.155h13.735a33.155,33.155,0,0,1,33.156,33.155v21.809l-6.811-3.049-3.229-17.519a8.871,8.871,0,0,0-10.65-7.054l-12.353,2.745a32.174,32.174,0,0,1-13.962,0Zm0,0" fill="#2f373b"/>
    <path id="Trazado_1413" data-name="Trazado 1413" d="M1010.057,4346.425a33.165,33.165,0,0,0-31.673,27.492,8.86,8.86,0,0,0-6.177,6.891l-3.227,17.518-6.81,3.048v-21.808a33.154,33.154,0,0,1,33.152-33.155h13.739c.332,0,.665,0,1,.014Zm0,0" fill="#151a1c"/>
  </g>
</svg>
